<svg width="24" height="24" viewBox="0 0 24 24" fill="none" xmlns="http://www.w3.org/2000/svg">
<path d="M22.909 4.27257C22.909 3.52257 22.2954 2.90894 21.5454 2.90894H20.6363V4.27257C20.6363 5.52712 19.6181 6.5453 18.3635 6.5453C17.109 6.5453 16.0908 5.52712 16.0908 4.27257V2.90894H14.2726V4.27257C14.2726 5.52712 13.2545 6.5453 11.9999 6.5453C10.7454 6.5453 9.72718 5.52712 9.72718 4.27257V2.90894H7.909V4.27257C7.909 5.52712 6.89082 6.5453 5.63627 6.5453C4.38173 6.5453 3.36355 5.52712 3.36355 4.27257V2.90894H2.45446C1.70446 2.90894 1.09082 3.52257 1.09082 4.27257V7.45439H22.909V4.27257Z" fill="#CDD1D9"/>
<path d="M10.6362 2.45446V4.27264C10.6362 5.02264 11.2499 5.63627 11.9999 5.63627C12.7499 5.63627 13.3635 5.02264 13.3635 4.27264V2.45446C13.3635 1.70446 12.7499 1.09082 11.9999 1.09082C11.2499 1.09082 10.6362 1.70446 10.6362 2.45446ZM5.63623 5.63627C6.38623 5.63627 6.99987 5.02264 6.99987 4.27264V2.45446C6.99987 1.70446 6.38623 1.09082 5.63623 1.09082C4.88623 1.09082 4.27259 1.70446 4.27259 2.45446V4.27264C4.27259 5.02264 4.88623 5.63627 5.63623 5.63627ZM18.3635 5.63627C19.1135 5.63627 19.7271 5.02264 19.7271 4.27264V2.45446C19.7271 1.70446 19.1135 1.09082 18.3635 1.09082C17.6135 1.09082 16.9999 1.70446 16.9999 2.45446V4.27264C16.9999 5.02264 17.6135 5.63627 18.3635 5.63627ZM1.13623 8.36355V21.5454C1.13623 22.2954 1.74987 22.909 2.49987 22.909H21.5908C22.3408 22.909 22.9544 22.2954 22.9544 21.5454V8.36355H1.13623ZM12.9317 10.6363C12.9317 10.3863 13.1362 10.1817 13.3862 10.1817H15.2044C15.4544 10.1817 15.659 10.3863 15.659 10.6363V12.4545C15.659 12.7045 15.4544 12.909 15.2044 12.909H13.3862C13.1362 12.909 12.9317 12.7045 12.9317 12.4545V10.6363ZM6.56805 20.6363C6.56805 20.8863 6.3635 21.0908 6.1135 21.0908H4.29532C4.04532 21.0908 3.84078 20.8863 3.84078 20.6363V18.8181C3.84078 18.5681 4.04532 18.3635 4.29532 18.3635H6.1135C6.3635 18.3635 6.56805 18.5681 6.56805 18.8181V20.6363ZM6.56805 16.5454C6.56805 16.7954 6.3635 16.9999 6.1135 16.9999H4.29532C4.04532 16.9999 3.84078 16.7954 3.84078 16.5454V14.7272C3.84078 14.4772 4.04532 14.2726 4.29532 14.2726H6.1135C6.3635 14.2726 6.56805 14.4772 6.56805 14.7272V16.5454ZM6.56805 12.4545C6.56805 12.7045 6.3635 12.909 6.1135 12.909H4.29532C4.04532 12.909 3.84078 12.7045 3.84078 12.4545V10.6363C3.84078 10.3863 4.04532 10.1817 4.29532 10.1817H6.1135C6.3635 10.1817 6.56805 10.3863 6.56805 10.6363V12.4545ZM11.1135 20.6363C11.1135 20.8863 10.909 21.0908 10.659 21.0908H8.84078C8.59078 21.0908 8.38623 20.8863 8.38623 20.6363V18.8181C8.38623 18.5681 8.59078 18.3635 8.84078 18.3635H10.659C10.909 18.3635 11.1135 18.5681 11.1135 18.8181V20.6363ZM11.1135 16.5454C11.1135 16.7954 10.909 16.9999 10.659 16.9999H8.84078C8.59078 16.9999 8.38623 16.7954 8.38623 16.5454V14.7272C8.38623 14.4772 8.59078 14.2726 8.84078 14.2726H10.659C10.909 14.2726 11.1135 14.4772 11.1135 14.7272V16.5454ZM11.1135 12.4545C11.1135 12.7045 10.909 12.909 10.659 12.909H8.84078C8.59078 12.909 8.38623 12.7045 8.38623 12.4545V10.6363C8.38623 10.3863 8.59078 10.1817 8.84078 10.1817H10.659C10.909 10.1817 11.1135 10.3863 11.1135 10.6363V12.4545ZM15.659 20.6363C15.659 20.8863 15.4544 21.0908 15.2044 21.0908H13.3862C13.1362 21.0908 12.9317 20.8863 12.9317 20.6363V18.8181C12.9317 18.5681 13.1362 18.3635 13.3862 18.3635H15.2044C15.4544 18.3635 15.659 18.5681 15.659 18.8181V20.6363ZM15.6044 15.2726L14.2317 16.6408C14.1903 16.6841 14.1405 16.7185 14.0855 16.742C14.0304 16.7655 13.9711 16.7777 13.9112 16.7777C13.8513 16.7777 13.7921 16.7655 13.737 16.742C13.6819 16.7185 13.6322 16.6841 13.5908 16.6408L12.9862 16.0408C12.809 15.8635 12.809 15.5726 12.9862 15.3954C13.1635 15.2181 13.4544 15.2181 13.6317 15.3954L13.9135 15.6772L14.959 14.6317C15.1362 14.4545 15.4271 14.4545 15.6044 14.6317C15.7817 14.809 15.7817 15.0954 15.6044 15.2726ZM20.2044 20.6363C20.2044 20.8863 19.9999 21.0908 19.7499 21.0908H17.9317C17.6817 21.0908 17.4771 20.8863 17.4771 20.6363V18.8181C17.4771 18.5681 17.6817 18.3635 17.9317 18.3635H19.7499C19.9999 18.3635 20.2044 18.5681 20.2044 18.8181V20.6363ZM20.2044 16.5454C20.2044 16.7954 19.9999 16.9999 19.7499 16.9999H17.9317C17.6817 16.9999 17.4771 16.7954 17.4771 16.5454V14.7272C17.4771 14.4772 17.6817 14.2726 17.9317 14.2726H19.7499C19.9999 14.2726 20.2044 14.4772 20.2044 14.7272V16.5454ZM20.2499 12.4545C20.2499 12.7045 20.0453 12.909 19.7953 12.909H17.9771C17.7271 12.909 17.5226 12.7045 17.5226 12.4545V10.6363C17.5226 10.3863 17.7271 10.1817 17.9771 10.1817H19.7953C20.0453 10.1817 20.2499 10.3863 20.2499 10.6363V12.4545Z" fill="#CDD1D9"/>
</svg>
