<svg width="90" height="107" viewBox="0 0 90 107" fill="none" xmlns="http://www.w3.org/2000/svg">
<g clip-path="url(#clip0_138_2012)">
<path d="M78.5771 55.6853C76.8429 54.4735 74.9076 53.4328 73.6293 51.7886C70.3888 47.6261 72.6236 41.8328 74.4159 36.9451C77.1602 29.458 78.4386 20.7501 74.1924 13.9253C69.9865 7.19952 57.8514 2.93794 49.7122 4.23083C38.8063 4.79844 27.811 7.71759 19.1399 14.0289C10.4688 20.3402 5.58349 31.7285 9.30669 40.6841C12.3148 47.8919 8.81057 56.2979 6.58916 63.785C5.51198 67.4159 3.12072 70.5783 1.82005 74.1461C0.890368 76.7004 0.505981 80.1826 2.00331 82.6378C3.50064 85.0929 6.75006 85.5029 8.2608 87.8184C10.585 91.3682 10.3213 93.7287 12.6857 95.9677C14.7418 97.9092 18.0493 99.9184 20.9501 100.256C34.6495 101.851 47.6383 102.959 61.4584 100.797C66.7818 99.9635 72.1408 98.7246 76.7401 96.0532C83.8915 91.8998 88.6204 84.264 88.978 76.331C89.3355 68.398 85.3173 60.3973 78.5771 55.6853Z" fill="#FFE5F8"/>
<g style="mix-blend-mode:multiply" opacity="0.2">
<path d="M67.2064 18.8374H17.9673C16.342 18.8374 15.0895 20.2035 15.1649 21.8906L18.3798 92.1932C18.4565 93.8803 19.8365 95.2464 21.4618 95.2464H70.7009C72.3262 95.2464 73.5787 93.8803 73.5034 92.1932L70.2884 21.8906C70.2117 20.2035 68.8317 18.8374 67.2064 18.8374Z" fill="#2A9C9E"/>
</g>
<path d="M67.9276 18.4275H17.6209C15.9604 18.4275 14.6143 19.7694 14.6143 21.4247V90.424C14.6143 92.0793 15.9604 93.4212 17.6209 93.4212H67.9276C69.5881 93.4212 70.9342 92.0793 70.9342 90.424V21.4247C70.9342 19.7694 69.5881 18.4275 67.9276 18.4275Z" fill="#FFBD95"/>
<g style="mix-blend-mode:multiply" opacity="0.3">
<path d="M20.3504 22.2376C20.0297 29.3713 19.9557 67.545 21.0918 72.3454C22.4087 77.9068 25.2742 83.3369 29.928 86.5431C33.2937 88.8655 37.3678 89.8723 41.3789 90.084C47.7649 90.4201 54.3975 89.3149 60.6862 88.4365C63.1104 88.0977 65.5346 87.7303 67.9355 87.2603L66.4706 22.2349L20.3504 22.2376Z" fill="#FBAE8A"/>
</g>
<path d="M20.0191 22.2375C19.5381 29.1622 18.6035 66.2144 19.6326 70.87C20.8235 76.2674 23.567 81.5377 28.1482 84.651C31.4618 86.9023 35.514 87.8818 39.5224 88.0867C45.9015 88.4146 52.5588 87.3408 58.868 86.4884C61.2991 86.1605 63.7329 85.8053 66.1434 85.3463V22.2334L20.0191 22.2375Z" fill="white"/>
<g style="mix-blend-mode:multiply" opacity="0.3">
<path d="M60.6711 16.2268H49.0845C48.9192 16.2257 48.7553 16.1971 48.5994 16.1421C48.343 16.0453 48.1116 15.8927 47.9219 15.6954C47.7322 15.498 47.5892 15.2609 47.5031 15.0015C47.4155 14.7518 47.3855 14.4856 47.4154 14.2228C47.4713 13.738 47.463 13.2479 47.3907 12.7652C46.9988 10.1505 44.8213 7.99484 42.382 7.81042C39.5576 7.60277 37.4897 9.99614 37.82 12.9701C37.8661 13.3918 37.958 13.8072 38.0941 14.2091C38.4408 15.2323 37.8296 16.2214 36.8525 16.2214H25.2796C24.7068 16.2214 24.3204 16.7678 24.4574 17.3757L26.724 27.5189C26.8391 28.0366 27.29 28.4259 27.7724 28.4259H60.8808C61.3645 28.4259 61.7277 28.0366 61.729 27.5189L61.7482 17.3757C61.7496 16.7678 61.2453 16.2268 60.6711 16.2268Z" fill="#E8E8E8"/>
</g>
<path d="M28.8577 85.1101C29.0262 85.2125 29.1975 85.3123 29.3688 85.4093L29.4387 85.4489C29.6292 85.5554 29.8224 85.6565 30.017 85.7549L30.1801 85.8368C30.3418 85.9161 30.5035 85.9939 30.668 86.0691L30.7927 86.1278C30.9873 86.2153 31.1846 86.3 31.3819 86.3806L31.5614 86.453C31.7163 86.5144 31.8712 86.5745 32.0274 86.6319L32.2014 86.6975C32.3974 86.7685 32.5947 86.8341 32.7934 86.901L32.9908 86.9625C33.1401 87.0103 33.2895 87.0554 33.4389 87.0991L33.654 87.1619C33.85 87.218 34.0473 87.2712 34.2447 87.3204L34.4571 87.3723C34.601 87.4078 34.7462 87.442 34.8915 87.4748L35.1381 87.5281C35.3355 87.5704 35.5314 87.61 35.7288 87.6483C31.0544 84.6757 33.136 78.8466 33.136 78.8466C25.9648 78.9832 21.2397 72.4397 19.4404 69.4207C19.4745 69.9127 19.5386 70.4022 19.6323 70.8865C20.8231 76.2838 23.5666 81.5542 28.1478 84.6675C28.3315 84.7932 28.5192 84.912 28.7083 85.0295L28.8577 85.1101Z" fill="#EFEFEF"/>
<path d="M44.0652 21.5547L48.4079 15.5098C48.1698 15.4298 47.9556 15.2915 47.7851 15.1074C47.6146 14.9234 47.4932 14.6996 47.4322 14.4565L42.333 21.5602L44.0652 21.5547Z" fill="#F9F9F9"/>
<path d="M42.3316 21.5559L38.5151 26.8686H40.2487L44.0652 21.5559H42.3316Z" fill="#F3F3F3"/>
<path d="M24.7275 21.5544L25.2757 26.0297C25.3044 26.2606 25.4165 26.4731 25.591 26.6275C25.7656 26.7819 25.9906 26.8676 26.224 26.8685H38.5191L42.3356 21.5544H24.7275Z" fill="#E0E0E0"/>
<path d="M47.4321 14.4565C47.3725 14.2202 47.3725 13.9728 47.4321 13.7365C47.6052 13.0329 47.6156 12.2993 47.4627 11.5911C47.3097 10.8829 46.9973 10.2187 46.549 9.64846C46.1007 9.07825 45.5284 8.61705 44.8751 8.29967C44.2218 7.9823 43.5048 7.81705 42.778 7.81641C42.0513 7.81577 41.334 7.97976 40.6801 8.29598C40.0263 8.61221 39.4531 9.07241 39.0039 9.64182C38.5546 10.2112 38.241 10.875 38.0868 11.5829C37.9325 12.2908 37.9417 13.0244 38.1135 13.7283C38.1677 13.9496 38.1708 14.1802 38.1225 14.4027C38.0741 14.6253 37.9757 14.834 37.8346 15.0131C37.6935 15.1922 37.5134 15.3369 37.3079 15.4365C37.1025 15.536 36.877 15.5877 36.6486 15.5876H25.0784C24.9434 15.5882 24.8099 15.6172 24.6869 15.6728C24.5638 15.7284 24.4539 15.8093 24.3644 15.9101C24.2749 16.011 24.2077 16.1295 24.1674 16.258C24.127 16.3865 24.1143 16.5221 24.1301 16.6558L24.7276 21.5546H42.3329L47.4321 14.4565ZM42.7728 10.6314C43.1615 10.6309 43.5417 10.7453 43.8652 10.9602C44.1887 11.175 44.441 11.4807 44.5902 11.8385C44.7394 12.1963 44.7788 12.5902 44.7034 12.9704C44.6279 13.3505 44.4411 13.6998 44.1666 13.9741C43.892 14.2484 43.542 14.4354 43.1608 14.5113C42.7796 14.5873 42.3844 14.5489 42.0251 14.4009C41.6658 14.2529 41.3587 14.002 41.1425 13.68C40.9262 13.358 40.8107 12.9793 40.8104 12.5918C40.8095 12.334 40.8596 12.0787 40.9579 11.8403C41.0562 11.6019 41.2007 11.3852 41.3831 11.2026C41.5655 11.02 41.7823 10.8751 42.021 10.7761C42.2597 10.6772 42.5157 10.6261 42.7742 10.626L42.7728 10.6314Z" fill="#E8E8E8"/>
<path d="M44.065 21.5559L40.2485 26.8686H41.5175L45.334 21.5559H44.065Z" fill="#E0E0E0"/>
<path d="M45.3341 21.5547L49.6207 15.5876H48.8861C48.7245 15.5873 48.5639 15.561 48.4106 15.5098L44.0679 21.5547H45.3341Z" fill="#E8E8E8"/>
<path d="M50.8277 21.5544L47.0112 26.8685H59.3268C59.5602 26.8676 59.7853 26.7819 59.9598 26.6275C60.1344 26.4731 60.2465 26.2606 60.2751 26.0297L60.8233 21.5544H50.8277Z" fill="#E0E0E0"/>
<path d="M60.8205 21.5547L61.4179 16.6559C61.4338 16.5222 61.4211 16.3866 61.3807 16.2581C61.3403 16.1296 61.2732 16.011 61.1837 15.9102C61.0941 15.8093 60.9843 15.7285 60.8612 15.6729C60.7382 15.6173 60.6047 15.5883 60.4696 15.5876H55.1142L50.8276 21.5547H60.8205Z" fill="#E8E8E8"/>
<path d="M45.3341 21.5559L41.5176 26.8686H42.3001L46.1166 21.5559H45.3341Z" fill="#F3F3F3"/>
<path d="M46.1165 21.5559L50.403 15.5889H49.6192L45.334 21.5559H46.1165Z" fill="#F9F9F9"/>
<path d="M50.8279 21.5559L55.1145 15.5889H54.3306L50.0454 21.5559H50.8279Z" fill="#F9F9F9"/>
<path d="M50.0455 21.5559L46.229 26.8686H47.0115L50.828 21.5559H50.0455Z" fill="#F3F3F3"/>
<path d="M50.0451 21.5559L54.3303 15.5889H50.4028L46.1162 21.5559H50.0451Z" fill="#E8E8E8"/>
<path d="M46.1168 21.5559L42.3003 26.8686H46.2292L50.0457 21.5559H46.1168Z" fill="#E0E0E0"/>
<g opacity="0.5">
<path d="M42.774 10.6257L43.7538 9.25965C43.5308 9.19045 43.3012 9.14466 43.0686 9.12305L41.812 10.8716C42.1061 10.7085 42.4375 10.6237 42.774 10.6257Z" fill="#E8E8E8"/>
<path d="M43.7539 9.26245L42.7741 10.6285C43.1356 10.628 43.4903 10.7268 43.7991 10.9142C44.1078 11.1016 44.3588 11.3703 44.5243 11.6907C44.6898 12.0111 44.7634 12.3708 44.737 12.7302C44.7107 13.0896 44.5854 13.4348 44.375 13.7279C44.1645 14.0209 43.8771 14.2504 43.5443 14.391C43.2114 14.5317 42.8461 14.5781 42.4885 14.5252C42.131 14.4723 41.7949 14.3221 41.5175 14.091C41.24 13.86 41.0318 13.5572 40.9159 13.2159L40.0142 14.4713C40.3281 14.9088 40.7421 15.2653 41.2219 15.5113C41.7017 15.7573 42.2334 15.8857 42.773 15.8858C43.3125 15.886 43.8443 15.7578 44.3243 15.5121C44.8042 15.2663 45.2184 14.91 45.5325 14.4727C45.8467 14.0354 46.0517 13.5297 46.1305 12.9976C46.2093 12.4656 46.1597 11.9224 45.9858 11.4132C45.8119 10.9041 45.5187 10.4436 45.1306 10.07C44.7424 9.69646 44.2705 9.42054 43.7539 9.26518V9.26245Z" fill="#F9F9F9"/>
<path d="M41.808 10.8799L43.0647 9.13134C42.9687 9.12314 42.8728 9.11768 42.7741 9.11768C42.21 9.11764 41.6548 9.25781 41.1587 9.52552C40.6626 9.79322 40.2413 10.18 39.9329 10.6509C39.6244 11.1217 39.4387 11.6618 39.3923 12.2223C39.346 12.7827 39.4406 13.3459 39.6675 13.8607L40.8446 12.2214C40.8981 11.9416 41.012 11.6767 41.1783 11.445C41.3447 11.2134 41.5595 11.0206 41.808 10.8799Z" fill="#F9F9F9"/>
<path d="M40.8104 12.5916C40.8106 12.4697 40.8221 12.3481 40.8446 12.2283L39.6675 13.8676C39.7613 14.0818 39.8775 14.2855 40.0142 14.4755L40.9159 13.22C40.8465 13.0177 40.8109 12.8055 40.8104 12.5916Z" fill="#E8E8E8"/>
</g>
<path d="M31.8082 44.8614H25.9868V39.0569H31.8082V44.8614ZM26.6254 44.2248H31.171V39.6935H26.6254V44.2248Z" fill="#E8E8E8"/>
<path d="M59.356 44.9049H58.3419V44.2683H59.3629L59.356 44.9049ZM57.3141 44.9049H56.2932V44.2683H57.3141V44.9049ZM55.2709 44.9049H54.25V44.2683H55.2709V44.9049ZM53.229 44.9049H52.2081V44.2683H53.229V44.9049ZM51.1858 44.9049H50.1649V44.2683H51.1858V44.9049ZM49.1439 44.9049H48.123V44.2683H49.1439V44.9049ZM47.1021 44.9049H46.0798V44.2683H47.1048L47.1021 44.9049ZM45.0588 44.9049H44.0379V44.2683H45.0588V44.9049ZM43.017 44.9049H41.996V44.2683H43.017V44.9049ZM40.9737 44.9049H39.9528V44.2683H40.9737V44.9049ZM38.9318 44.9049H37.9109V44.2683H38.9318V44.9049ZM36.8886 44.9049H35.8677V44.2683H36.8886V44.9049Z" fill="#E8E8E8"/>
<path d="M31.8082 54.3829H25.9868V48.5784H31.8082V54.3829ZM26.6254 53.7463H31.171V49.215H26.6254V53.7463Z" fill="#E8E8E8"/>
<path d="M59.356 54.4266H58.3419V53.79H59.3629L59.356 54.4266ZM57.3141 54.4266H56.2932V53.79H57.3141V54.4266ZM55.2709 54.4266H54.25V53.79H55.2709V54.4266ZM53.229 54.4266H52.2081V53.79H53.229V54.4266ZM51.1858 54.4266H50.1649V53.79H51.1858V54.4266ZM49.1439 54.4266H48.123V53.79H49.1439V54.4266ZM47.1021 54.4266H46.0798V53.79H47.1048L47.1021 54.4266ZM45.0588 54.4266H44.0379V53.79H45.0588V54.4266ZM43.017 54.4266H41.996V53.79H43.017V54.4266ZM40.9737 54.4266H39.9528V53.79H40.9737V54.4266ZM38.9318 54.4266H37.9109V53.79H38.9318V54.4266ZM36.8886 54.4266H35.8677V53.79H36.8886V54.4266Z" fill="#E8E8E8"/>
<path d="M31.8082 63.903H25.9868V58.0999H31.8082V63.903ZM26.6254 63.2732H31.171V58.7364H26.6254V63.2732Z" fill="#E8E8E8"/>
<path d="M59.356 63.9481H58.3419V63.3115H59.3629L59.356 63.9481ZM57.3141 63.9481H56.2932V63.3115H57.3141V63.9481ZM55.2709 63.9481H54.25V63.3115H55.2709V63.9481ZM53.229 63.9481H52.2081V63.3115H53.229V63.9481ZM51.1858 63.9481H50.1649V63.3115H51.1858V63.9481ZM49.1439 63.9481H48.123V63.3115H49.1439V63.9481ZM47.1021 63.9481H46.0798V63.3115H47.1048L47.1021 63.9481ZM45.0588 63.9481H44.0379V63.3115H45.0588V63.9481ZM43.017 63.9481H41.996V63.3115H43.017V63.9481ZM40.9737 63.9481H39.9528V63.3115H40.9737V63.9481ZM38.9318 63.9481H37.9109V63.3115H38.9318V63.9481ZM36.8886 63.9481H35.8677V63.3115H36.8886V63.9481Z" fill="#E8E8E8"/>
<path d="M31.8082 73.4247H25.9868V67.6216H31.8082V73.4247ZM26.6254 72.7895H31.171V68.2582H26.6254V72.7895Z" fill="#E8E8E8"/>
<path d="M59.356 73.4698H58.3419V72.8359H59.3629L59.356 73.4698ZM57.3141 73.4698H56.2932V72.8359H57.3141V73.4698ZM55.2709 73.4698H54.25V72.8359H55.2709V73.4698ZM53.229 73.4698H52.2081V72.8359H53.229V73.4698ZM51.1858 73.4698H50.1649V72.8359H51.1858V73.4698ZM49.1439 73.4698H48.123V72.8359H49.1439V73.4698ZM47.1021 73.4698H46.0798V72.8359H47.1048L47.1021 73.4698ZM45.0588 73.4698H44.0379V72.8359H45.0588V73.4698ZM43.017 73.4698H41.996V72.8359H43.017V73.4698ZM40.9737 73.4698H39.9528V72.8359H40.9737V73.4698ZM38.9318 73.4698H37.9109V72.8359H38.9318V73.4698ZM36.8886 73.4698H35.8677V72.8359H36.8886V73.4698Z" fill="#E8E8E8"/>
<path d="M28.2029 43.8394L25.9473 41.4064L26.7531 40.6647L28.0261 42.0376L30.9697 37.2522L31.9043 37.8246L28.2029 43.8394Z" fill="#FF7C83"/>
<path d="M28.2029 53.3733L25.9473 50.9417L26.7531 50.1999L28.0261 51.5728L30.9697 46.7888L31.9043 47.3598L28.2029 53.3733Z" fill="#FF7C83"/>
<path d="M40.4555 30.2688C40.4619 30.4865 40.2915 30.6887 39.9444 30.8754C39.6911 31.0181 39.4161 31.1187 39.1304 31.1732C39.4238 31.2268 39.7072 31.3254 39.9704 31.4655C40.2938 31.6486 40.4596 31.8754 40.4679 32.1349C40.4742 32.3471 40.3706 32.583 40.1568 32.8425C40.2581 32.9331 40.3306 33.0514 40.3651 33.1827C40.3651 33.2455 40.3431 33.2783 40.2938 33.2797C40.2823 33.2798 40.271 33.2769 40.2611 33.2711C40.2512 33.2653 40.2431 33.2569 40.2376 33.2469C40.1824 33.1483 40.1157 33.0566 40.0389 32.9737C39.7154 33.277 39.3269 33.5031 38.9029 33.6349C38.4828 33.771 38.0453 33.8464 37.6038 33.8589C37.3069 33.8698 37.0111 33.8191 36.7349 33.71C36.3777 33.5716 36.195 33.3717 36.1868 33.1103C36.1831 32.959 36.2191 32.8093 36.2912 32.6761C36.3633 32.5429 36.469 32.4308 36.5979 32.3507C36.8461 32.1773 37.1369 32.0743 37.4393 32.0529C37.622 31.5976 37.8189 31.1572 38.0299 30.7319C38.0971 30.5953 38.2095 30.3863 38.3643 30.124C38.4036 30.0714 38.4552 30.0293 38.5148 30.0014C38.5743 29.9735 38.6398 29.9607 38.7055 29.9642C38.7686 29.9642 38.8015 29.9792 38.8028 30.0148C38.8026 30.0293 38.7983 30.0435 38.7905 30.0557C38.359 30.6851 37.9839 31.3512 37.6695 32.0461C38.69 32.037 39.4565 32.241 39.969 32.6581C40.0941 32.5028 40.1644 32.3108 40.1691 32.1117C40.1609 31.8266 39.9613 31.609 39.5702 31.4587C39.2636 31.3455 38.9377 31.2935 38.611 31.3057H38.537H38.4548C38.3958 31.3057 38.3657 31.2879 38.3643 31.247C38.3643 31.1664 38.426 31.1103 38.5562 31.0858L38.8823 31.0338C39.4305 30.9045 39.8261 30.7178 40.0691 30.4738C40.1509 30.4089 40.204 30.3148 40.2171 30.2115C40.2171 30.0494 40.0024 29.9342 39.573 29.8658C39.2802 29.8204 38.9838 29.8026 38.6877 29.8126C37.9032 29.8319 37.1306 30.008 36.4156 30.3303C36.399 30.3387 36.3808 30.3438 36.3622 30.3453C36.3252 30.3453 36.3074 30.329 36.306 30.2921C36.3114 30.223 36.3421 30.1583 36.3923 30.1104C36.4387 30.0539 36.496 30.0075 36.5609 29.9738C37.1314 29.7482 37.7396 29.6323 38.3534 29.6322C38.7599 29.6164 39.167 29.6443 39.5675 29.7156C40.1513 29.8185 40.4473 30.0029 40.4555 30.2688ZM39.8498 32.8098C39.5594 32.5901 39.2283 32.4299 38.8755 32.3385C38.5221 32.239 38.1558 32.193 37.7888 32.2018C37.7216 32.2018 37.6517 32.2018 37.5928 32.2155C37.3397 32.802 37.2159 33.1923 37.2214 33.3862C37.2228 33.4046 37.2256 33.4229 37.2296 33.4409C37.2341 33.4584 37.2373 33.4762 37.2392 33.4942C37.2392 33.5529 37.2159 33.583 37.1666 33.5843C37.094 33.5843 37.0556 33.5269 37.0515 33.4054C37.0515 33.2018 37.1488 32.8166 37.3626 32.2497C36.7623 32.3671 36.4695 32.6545 36.4842 33.1117C36.4915 33.3193 36.6349 33.4773 36.9145 33.5857C37.1318 33.6734 37.3652 33.7148 37.5996 33.7073C38.6055 33.6772 39.3556 33.378 39.8498 32.8098Z" fill="#2A9C9E"/>
<path d="M42.8277 32.5132C42.8241 32.5484 42.8108 32.582 42.7893 32.6102C42.6002 32.9371 42.4175 33.1484 42.2412 33.244C42.1671 33.2862 42.0839 33.3101 41.9986 33.3137C41.7245 33.3219 41.5802 33.132 41.5656 32.744C41.5632 32.6761 41.5655 32.6081 41.5724 32.5405C41.286 33.0869 41.0243 33.3601 40.7899 33.3724C40.6529 33.3724 40.5762 33.3014 40.5707 33.1484C40.5634 32.9134 40.668 32.6261 40.8845 32.2864C41.101 31.9467 41.3143 31.7377 41.5245 31.6594C41.5941 31.6268 41.6696 31.6082 41.7465 31.6047C41.815 31.597 41.8844 31.6077 41.9475 31.6355C42.0106 31.6634 42.0651 31.7074 42.1055 31.7632C42.1159 31.777 42.1234 31.7928 42.1274 31.8096C42.1274 31.8096 42.1123 31.8219 42.0808 31.8315C42.053 31.8395 42.0291 31.8575 42.0137 31.882C41.8977 32.1311 41.8504 32.4065 41.8766 32.6798C41.8862 33.005 41.9616 33.1648 42.1028 33.1607C42.2028 33.1607 42.3398 33.0432 42.5139 32.8192C42.5987 32.6981 42.6941 32.5847 42.7989 32.4804C42.8195 32.4804 42.8263 32.4913 42.8277 32.5132ZM41.8054 31.8301C41.7849 31.8278 41.7642 31.8278 41.7437 31.8301C41.561 31.8356 41.3783 31.9567 41.1956 32.1935C40.9297 32.5378 40.8 32.8155 40.8064 33.0268C40.8064 33.1224 40.8434 33.1634 40.9064 33.1634C41.0069 33.1634 41.133 33.0555 41.2846 32.8397C41.5067 32.5318 41.6822 32.193 41.8054 31.8342V31.8301Z" fill="#2A9C9E"/>
<path d="M42.6836 32.4641C42.6343 32.5201 42.5973 32.5488 42.5699 32.5488C42.5425 32.5488 42.5425 32.5488 42.5425 32.5296C42.5489 32.5019 42.5621 32.4761 42.5809 32.4545C42.6274 32.3575 42.6781 32.2633 42.7316 32.1704C42.7828 32.0826 42.844 32.001 42.9139 31.9272C42.9807 31.8591 43.0568 31.8007 43.14 31.7537C43.2242 31.708 43.3182 31.6831 43.414 31.6813C43.7484 31.6704 43.9225 31.8439 43.9334 32.2004C43.9363 32.2936 43.9209 32.3864 43.8882 32.4736L43.9142 32.445C44.1463 32.2938 44.3287 32.0782 44.4391 31.8248C44.4515 31.7828 44.4515 31.7383 44.4391 31.6963L44.424 31.6499C44.424 31.6362 44.424 31.6253 44.424 31.6185C44.424 31.6116 44.4501 31.6103 44.4775 31.6185C44.5243 31.6302 44.5702 31.6457 44.6145 31.6649C44.7378 31.7114 44.7598 31.8753 44.6775 32.1581C44.672 32.1861 44.6637 32.2136 44.6529 32.24C44.641 32.2728 44.6287 32.307 44.6159 32.3425C44.6035 32.3794 44.5912 32.4135 44.5775 32.4463C44.5676 32.4708 44.5593 32.4959 44.5528 32.5215C44.5282 32.5952 44.509 32.6485 44.4939 32.6827C44.4755 32.7271 44.4599 32.7728 44.4473 32.8193C44.5577 32.7196 44.6754 32.6282 44.7995 32.546C44.866 32.3428 44.9759 32.1564 45.1215 31.9996C45.3673 31.7264 45.5957 31.5861 45.8067 31.5789C45.952 31.5789 46.026 31.628 46.0301 31.7401C46.0168 31.8262 45.9845 31.9083 45.9355 31.9805C45.8752 32.0916 45.8245 32.1476 45.7834 32.1485C45.7656 32.1485 45.756 32.1376 45.756 32.1157C45.7573 32.0851 45.7643 32.055 45.7766 32.0269C45.7895 31.9967 45.7965 31.9642 45.7971 31.9313C45.7971 31.8357 45.7341 31.7947 45.6162 31.7947C45.4536 31.8002 45.3097 31.9108 45.1846 32.1267C45.079 32.2927 45.0216 32.4847 45.0188 32.6813C45.027 32.9613 45.1558 33.0979 45.3984 33.0911C45.7071 33.082 46.0223 32.8621 46.3439 32.4313C46.3878 32.3753 46.4248 32.3466 46.4577 32.3452C46.4905 32.3439 46.4837 32.3521 46.4851 32.3657C46.4805 32.3942 46.4671 32.4205 46.4467 32.4409C46.2762 32.6961 46.0591 32.9171 45.8067 33.0925C45.6564 33.1974 45.479 33.2572 45.2956 33.2646C44.9598 33.2755 44.7872 33.102 44.7748 32.7455C44.7748 32.7277 44.7748 32.7086 44.7748 32.6908C44.5735 32.8321 44.417 33.0279 44.324 33.255C44.3198 33.266 44.3198 33.2781 44.3238 33.2891C44.3278 33.3002 44.3357 33.3094 44.3459 33.3151C44.3676 33.3296 44.3848 33.35 44.3952 33.3739L44.4103 33.4217C44.4117 33.4243 44.4126 33.4271 44.4129 33.4301C44.4132 33.433 44.4128 33.436 44.4119 33.4388C44.411 33.4416 44.4096 33.4442 44.4077 33.4464C44.4057 33.4486 44.4034 33.4505 44.4007 33.4518C44.3823 33.4592 44.3616 33.4592 44.3432 33.4518C44.3007 33.4397 44.2594 33.4237 44.2198 33.4039C44.0951 33.363 44.0746 33.199 44.1554 32.9108C44.1662 32.8607 44.1818 32.8117 44.202 32.7646C44.2209 32.7203 44.2365 32.6746 44.2486 32.628C44.2721 32.5627 44.2917 32.4961 44.3075 32.4286C44.3212 32.3698 44.3336 32.3111 44.3459 32.251C44.0979 32.4627 43.9526 32.5624 43.906 32.5501C43.8981 32.5509 43.8901 32.5487 43.8837 32.5439C43.8774 32.5391 43.8731 32.532 43.8718 32.5242C43.8055 32.6817 43.7128 32.8267 43.5977 32.9531C43.3519 33.2264 43.1235 33.3671 42.9125 33.3753C42.7672 33.3753 42.6932 33.3261 42.6891 33.2127C42.7042 33.1271 42.7364 33.0453 42.7837 32.9723C42.8385 32.863 42.8892 32.807 42.9344 32.8056C42.9518 32.8056 42.9614 32.8165 42.9632 32.8384C42.9605 32.8689 42.9531 32.8989 42.9413 32.9272C42.9296 32.9578 42.9227 32.9901 42.9207 33.0228C42.9207 33.1171 42.9851 33.1594 43.103 33.1594C43.2656 33.1539 43.4095 33.0433 43.5346 32.8275C43.6406 32.6615 43.698 32.4695 43.7005 32.2728C43.6909 31.9928 43.5634 31.8562 43.3195 31.863C43.2505 31.8639 43.1826 31.8803 43.1208 31.9108C43.0622 31.9416 43.0101 31.9834 42.9673 32.0338C42.9184 32.0922 42.8749 32.1548 42.8371 32.2209L42.7001 32.46L42.6836 32.4641Z" fill="#2A9C9E"/>
<path d="M47.3278 31.9504C47.3451 31.93 47.3582 31.9063 47.3661 31.8808L47.4072 31.7783C47.4223 31.7414 47.436 31.7059 47.4511 31.6717C47.4611 31.6454 47.4754 31.6209 47.4936 31.5993C47.5065 31.5835 47.5228 31.5707 47.5413 31.562C47.5598 31.5532 47.58 31.5487 47.6005 31.5488C47.6216 31.5448 47.6434 31.5458 47.6641 31.5517C47.6848 31.5577 47.7038 31.5684 47.7195 31.5831C47.7353 31.5977 47.7473 31.6158 47.7548 31.636C47.7622 31.6561 47.7647 31.6777 47.7622 31.6991C47.7604 31.7279 47.7519 31.756 47.7375 31.781C47.4963 32.2045 47.3798 32.5392 47.3881 32.7824C47.3881 32.9545 47.4785 33.0378 47.6416 33.0324C47.7966 33.0142 47.9395 32.9398 48.0431 32.8233C48.1593 32.7095 48.2623 32.5831 48.3501 32.4463C48.3918 32.3716 48.4449 32.3038 48.5077 32.2455C48.5214 32.2455 48.5282 32.2578 48.5296 32.2851C48.5268 32.3262 48.5141 32.3661 48.4926 32.4012C48.2011 32.9222 47.8896 33.1876 47.558 33.1977C47.2994 33.2059 47.1651 33.0474 47.1551 32.7223C47.1486 32.5495 47.1708 32.3769 47.2209 32.2113C47.1126 32.2414 47.0016 32.2769 46.8906 32.3165C46.7796 32.3561 46.6618 32.404 46.5412 32.4531C46.5334 32.489 46.5228 32.5241 46.5096 32.5583C46.4973 32.5932 46.4873 32.6288 46.4795 32.6649C46.4669 32.8154 46.4304 32.963 46.3712 33.102C46.3288 33.1813 46.2767 33.2209 46.2191 33.2222C46.1616 33.2236 46.1561 33.184 46.1533 33.102C46.153 33.0831 46.1572 33.0643 46.1657 33.0474C46.2109 32.9285 46.2561 32.7892 46.3027 32.6266C46.3493 32.4641 46.3918 32.2742 46.4398 32.0556C46.448 32.0201 46.4548 31.975 46.463 31.919C46.4713 31.863 46.4822 31.8043 46.4973 31.7318C46.5175 31.6908 46.5495 31.6565 46.5891 31.6335C46.6292 31.6041 46.6766 31.5862 46.7262 31.5816C46.759 31.5816 46.7755 31.5939 46.7755 31.6212C46.7663 31.6918 46.7503 31.7614 46.7275 31.8288C46.696 31.945 46.6481 32.113 46.5905 32.3316L46.8193 32.2469C46.9084 32.2141 47.0139 32.1786 47.1359 32.1389C47.1831 32.1288 47.229 32.1137 47.2729 32.0939C47.2839 32.0492 47.3022 32.0014 47.3278 31.9504Z" fill="#2A9C9E"/>
<path d="M50.0069 32.3125C50.0068 32.3178 50.0055 32.323 50.0031 32.3277C50.0007 32.3324 49.9974 32.3366 49.9932 32.3398C49.9284 32.4575 49.8339 32.5564 49.7191 32.6267C49.6091 32.7029 49.4801 32.7474 49.3464 32.7551C49.2575 32.7581 49.1695 32.7374 49.0915 32.695C48.8941 33.031 48.6845 33.2027 48.4625 33.21C48.3035 33.2155 48.2213 33.1244 48.2158 32.9368C48.2076 32.68 48.3108 32.374 48.5255 32.0188C48.5156 31.9697 48.5096 31.9199 48.5077 31.8699C48.5049 31.6985 48.5567 31.5306 48.6557 31.3904C48.6952 31.32 48.7521 31.2607 48.8209 31.2182C48.8896 31.1757 48.9681 31.1513 49.049 31.1472C49.1044 31.1479 49.1584 31.1649 49.2042 31.196C49.25 31.2271 49.2856 31.2709 49.3066 31.3221C49.3595 31.4216 49.3885 31.5319 49.3916 31.6445C49.3785 31.972 49.2914 32.2924 49.1367 32.5816C49.2076 32.6215 49.2884 32.6404 49.3696 32.6362C49.5257 32.6264 49.6724 32.5587 49.7808 32.4464C49.846 32.3918 49.9056 32.3309 49.9589 32.2647C49.9654 32.2638 49.9721 32.2644 49.9783 32.2665C49.9845 32.2685 49.9902 32.272 49.9948 32.2767C49.9995 32.2813 50.003 32.2869 50.0051 32.2932C50.0072 32.2994 50.0078 32.306 50.0069 32.3125ZM48.9887 32.624C48.8476 32.5401 48.7276 32.4251 48.6379 32.2879C48.5373 32.4824 48.475 32.6943 48.4542 32.9122C48.4542 33.0024 48.4926 33.0488 48.5598 33.0488C48.6269 33.0488 48.705 32.9901 48.8064 32.8794C48.8827 32.8064 48.9445 32.7197 48.9887 32.624ZM49.1888 31.8234C49.1841 31.7201 49.1647 31.618 49.1312 31.5202C49.0805 31.3767 49.0188 31.307 48.9476 31.3084C48.8922 31.3133 48.8395 31.3348 48.7967 31.3702C48.7539 31.4056 48.7228 31.4531 48.7078 31.5065C48.6657 31.61 48.6484 31.7217 48.657 31.833C48.6806 31.7961 48.7119 31.7647 48.7488 31.7412C48.7857 31.7176 48.8274 31.7023 48.8708 31.6964C48.8995 31.6931 48.9284 31.6972 48.955 31.7082C48.9816 31.7192 49.005 31.7368 49.0229 31.7592C49.0229 31.7592 49.0229 31.7756 49.0229 31.7934C49.0268 31.8044 49.0291 31.8159 49.0298 31.8275C49.0298 31.8412 49.0079 31.848 48.9626 31.8494C48.8818 31.8494 48.7982 31.9409 48.7132 32.1226C48.7758 32.2901 48.89 32.4335 49.0394 32.5324C49.1318 32.3071 49.1824 32.0668 49.1888 31.8234Z" fill="#2A9C9E"/>
<path d="M37.2723 36.3534C41.6676 35.107 46.2681 34.7466 50.8048 35.2933C51.0679 35.3247 51.0638 34.9135 50.8048 34.8835C46.2318 34.3353 41.5951 34.7008 37.1654 35.9586C37.1143 35.9743 37.0714 36.0093 37.0457 36.056C37.0201 36.1028 37.0137 36.1577 37.028 36.209C37.0422 36.2604 37.076 36.3042 37.1221 36.3311C37.1682 36.3581 37.2231 36.3661 37.275 36.3534H37.2723Z" fill="#2A9C9E"/>
<g style="mix-blend-mode:multiply" opacity="0.7">
<path d="M68.269 65.1408L67.7524 64.1941L66.8219 62.4879L63.3082 56.0468L63.6495 55.7968L63.0821 54.7518L62.7395 55.0031L57.5581 52.5797L57.0922 51.7491L56.692 52.0524L55.434 49.8557L53.7402 52.1863L54.5995 53.6411L54.1404 53.9908L54.6132 54.805L54.5213 61.0412L54.1966 61.2789L54.7886 62.2652L55.112 62.0302L60.2495 70.6242L61.1951 72.2062L61.72 73.0846L62.0571 73.6487L62.93 75.1077L70.8248 69.8251L68.6006 65.7487L68.269 65.1408Z" fill="#E8E8E8"/>
<path d="M71.6344 71.3197L71.3165 70.7363L71.644 70.5178L71.1479 69.6052L70.819 69.8252L62.9243 75.1078L62.6118 75.3168L63.1312 76.1815L63.4423 75.9739L63.7739 76.5285C63.8125 76.5856 63.8625 76.6342 63.9207 76.6713C63.9789 76.7084 64.0441 76.7332 64.1122 76.7442C64.1804 76.7552 64.2501 76.7522 64.3171 76.7353C64.3841 76.7184 64.4468 76.688 64.5016 76.646L71.3864 72.097C71.5152 72.0194 71.6114 71.8978 71.657 71.7548C71.7027 71.6118 71.6946 71.4572 71.6344 71.3197Z" fill="#E8E8E8"/>
</g>
<path d="M68.2823 62.4851L62.9214 70.224L63.5244 71.0737L68.8853 63.3976L68.2823 62.4851Z" fill="#FF7C83"/>
<path d="M62.4393 53.6384L55.2681 59.447L61.8349 68.694L67.1972 60.8404L62.4393 53.6384Z" fill="#FF7C83"/>
<path d="M67.1973 60.8403L61.835 68.6939L62.9217 70.2239L68.2826 62.4851L67.1973 60.8403Z" fill="white"/>
<path d="M68.8853 63.3977L63.5244 71.0737L63.9122 71.6201L69.2732 63.9851L68.8853 63.3977Z" fill="white"/>
<path opacity="0.9" d="M67.1973 60.8403L61.835 68.6939L62.9217 70.2239L68.2826 62.4851L67.1973 60.8403Z" fill="#FF7C83"/>
<path d="M63.9121 71.6201L64.9152 73.0327L71.874 67.9221L69.273 63.9851L63.9121 71.6201Z" fill="#FF7C83"/>
<path opacity="0.9" d="M68.8853 63.3977L63.5244 71.0737L63.9122 71.6201L69.2732 63.9851L68.8853 63.3977Z" fill="#FF7C83"/>
<path d="M54.5444 52.3734L53.5303 50.9335L54.8856 48.6973L56.3628 50.8488L54.5444 52.3734Z" fill="#FF7C83"/>
<path d="M62.4388 53.6384L57.2191 51.3106L56.6805 50.5142L54.1138 52.6657L54.6564 53.4471L55.2676 59.447L54.9853 59.6765L55.6609 60.6259L63.3995 54.4007L62.7376 53.3966L62.4388 53.6384Z" fill="#28364F"/>
<path d="M64.9196 73.0326L64.6455 73.2348L65.2416 74.0722L65.5157 73.8714L65.8967 74.4082C65.9354 74.4629 65.9846 74.5093 66.0415 74.5447C66.0984 74.5802 66.1619 74.6039 66.2281 74.6146C66.2943 74.6253 66.362 74.6227 66.4273 74.607C66.4925 74.5912 66.5539 74.5627 66.6079 74.523L72.6842 70.1174C72.7999 70.0343 72.8796 69.9103 72.9068 69.7707C72.9341 69.6311 72.9069 69.4864 72.8308 69.366L72.4567 68.8018L72.7445 68.5915L72.1634 67.709L71.8743 67.918L64.9196 73.0326Z" fill="#28364F"/>
</g>
<defs>
<clipPath id="clip0_138_2012">
<rect width="90" height="107" fill="white"/>
</clipPath>
</defs>
</svg>
