<svg width="24" height="22" viewBox="0 0 24 22" fill="none" xmlns="http://www.w3.org/2000/svg">
<path d="M12.0167 21.4964C-0.210114 17.3225 -2.30654 4.39939 3.47639 1.06282C7.90004 -0.816906 10.6049 2.55689 12.1004 4.41997C13.0222 3.09621 15.6276 -0.970998 20.5575 1.06282C26.3022 4.06345 24.1748 17.1019 12.0167 21.4964Z" fill="#EC75AF"/>
<path d="M7.9834 4.99121C8.80594 6.09097 9.89247 8.07627 9.28068 8.91817C9.7832 9.07439 10.2671 9.27152 10.7143 9.50291" stroke="white" stroke-width="0.818666" stroke-miterlimit="10" stroke-linecap="round" stroke-linejoin="round"/>
<path d="M12.3471 11.6173C12.5878 12.0364 12.7725 12.482 12.8847 12.944C12.8887 12.9605 12.912 12.9573 12.9113 12.9404C12.8549 11.4494 13.5821 9.91859 15.0643 10.0749C17.284 10.3822 17.6394 12.609 18.1478 13.6106C18.6276 13.0325 19.3736 13.7892 19.1535 14.4018C19.0881 14.699 18.1684 16.0757 17.3694 15.8611C16.7053 15.2829 16.463 14.2681 16.1218 13.4497C16.1164 13.4367 16.0975 13.4412 16.0977 13.4553C16.1426 17.6838 11.609 17.4294 9.42187 14.8533C8.37584 13.775 7.47685 11.5453 6.90226 10.7769C6.52161 10.2678 5.75607 10.2644 5.16491 10.0477C4.57378 9.83107 3.97364 9.52021 3.64727 8.97367C2.65081 6.96521 3.42997 4.55306 5.89203 4.24934C6.87689 4.12785 7.62491 4.57229 7.98324 4.99122" stroke="white" stroke-width="0.818666" stroke-miterlimit="10" stroke-linecap="round" stroke-linejoin="round"/>
<path d="M8.65326 10.1277C9.4367 9.59854 10.3865 10.3641 10.8852 9.42268C11.0932 8.92411 10.8831 7.82404 11.8535 7.71218C13.2973 7.54579 12.9907 12.5902 10.1222 11.9913" stroke="white" stroke-width="0.818666" stroke-miterlimit="10" stroke-linecap="round" stroke-linejoin="round"/>
</svg>
