<svg width="90" height="105" viewBox="0 0 90 105" fill="none" xmlns="http://www.w3.org/2000/svg"><path d="M84.0467 35.8842C80.3747 23.1908 69.8413 12.4625 56.6089 9.79162L56.7218 9.82281C51.9182 8.76242 46.9456 8.72655 42.1272 9.71754C12.3407 16.3811 2.94961 43.969 3.0002 56.1341L3.01188 56.0561C2.97665 58.0057 3.06896 59.9555 3.2882 61.893L3.27069 61.7877C5.28669 79.7332 17.2328 91.9724 33.3394 95.1034C64.4122 102.188 94.942 65.9286 84.0467 35.8842ZM20.5331 88.8785C20.5001 88.8571 20.5331 88.8785 20.4125 88.8044L20.5331 88.8785Z" fill="#FF9EA8"/><path d="M84.047 35.8843C81.4823 27.0178 75.5685 19.1182 67.7245 14.2444C74.4846 22.2375 86.5689 39.2979 82.5895 55.6389C77.2187 77.6999 58.9833 91.6644 58.9521 91.6898C78.503 81.9206 91.821 57.3214 84.047 35.8843Z" fill="#FF9EA8"/><path d="M37.3227 11.0278C11.3191 19.4245 2.95349 44.6496 3.00019 56.1343L3.01187 56.0563C3.01093 56.0673 3.01093 56.0784 3.01187 56.0895C8.85553 27.1096 26.7251 15.4708 37.3227 11.0278Z" fill="#FF7C83"/><path d="M50.1389 11.9226C49.2594 11.9226 48.3545 11.9616 47.4497 12.0396C45.215 12.2444 43.004 12.6563 40.8451 13.2697C38.7172 13.862 36.6504 14.6558 34.6726 15.6404C32.7797 16.6068 30.9865 17.7581 29.3193 19.0774C27.5126 20.514 25.8269 22.0972 24.2793 23.8109C22.6541 25.6031 21.1275 27.4826 19.7064 29.4412C19.2646 30.0416 18.8093 30.6811 18.2742 31.4492L18.0796 31.7182C17.9336 31.9288 17.7857 32.1393 17.6437 32.3518C17.4173 32.6896 17.2219 33.0471 17.0599 33.4202C17.0217 33.4958 17.0011 33.5791 16.9996 33.6639C16.4528 34.5801 15.9293 35.5257 15.4428 36.4712C14.4833 38.3881 13.6385 40.3607 12.9131 42.3783C12.1444 44.4662 11.4575 46.601 10.8737 48.724C10.2581 50.9417 9.76118 53.1908 9.3851 55.4616C9.01035 57.7059 8.79123 59.9734 8.72932 62.248C8.67247 64.4391 8.82561 66.6307 9.18662 68.7926C9.35483 69.7805 9.58359 70.7571 9.87159 71.7169C10.1498 72.6272 10.4812 73.5203 10.864 74.3916C11.6352 76.1532 12.5999 77.8232 13.7401 79.3708C14.887 80.9358 16.1911 82.3789 17.632 83.6773C20.505 86.2828 23.8977 88.2471 27.5855 89.4401C28.4982 89.7281 29.4275 89.9605 30.3682 90.1361C31.3781 90.3311 32.4114 90.4305 33.3766 90.5163C34.9003 90.6527 36.4376 90.721 37.9515 90.721C38.6151 90.721 39.2884 90.7073 39.9481 90.682C44.5405 90.4987 48.8313 89.6468 52.6979 88.1476C54.7313 87.3623 56.6795 86.3714 58.5123 85.1901C59.3218 84.6696 60.1566 84.0633 61.1413 83.2854C61.9197 82.6694 62.7195 81.9851 63.5192 81.2521C66.5895 78.4089 69.2692 75.1697 71.4879 71.6194C73.7229 68.0541 75.5228 64.233 76.8489 60.238C77.515 58.2433 78.0627 56.211 78.4894 54.1515C78.9121 52.1752 79.2002 50.1723 79.3514 48.1567C79.6208 44.2313 79.296 40.2876 78.3882 36.4595C77.5051 32.6417 76.0093 28.9928 73.9592 25.6552C72.9413 24.0091 71.7767 22.4588 70.4799 21.023C69.1693 19.5834 67.7196 18.2773 66.1521 17.124C64.329 15.7821 62.3448 14.6752 60.2462 13.8293C58.2265 13.0205 56.1136 12.4684 53.9569 12.1858C52.6919 12.0167 51.4171 11.9327 50.1409 11.9343" fill="#FFE5F8"/><path d="M32.5593 57.6821C32.4445 57.6821 32.3316 57.6821 32.2168 57.6821C31.9683 57.697 31.7209 57.725 31.4754 57.7659C31.0019 57.8534 30.5411 57.9995 30.1035 58.2007C29.225 58.6148 28.4553 59.229 27.8559 59.9943C27.5797 60.3421 27.3361 60.7148 27.1281 61.1074C26.9288 61.4854 26.7628 61.8801 26.6319 62.2869C26.3706 63.1007 26.2393 63.9508 26.2427 64.8057C26.2443 65.668 26.3701 66.5256 26.6164 67.3518C26.8559 68.1803 27.2165 68.9687 27.6866 69.6913C28.1505 70.4138 28.7274 71.0569 29.3952 71.596C29.6487 71.8041 29.921 71.9881 30.2086 72.1457C30.4223 72.2627 30.6489 72.3543 30.8838 72.4187C31.118 72.4857 31.3603 72.5199 31.6038 72.52C31.8003 72.5203 31.9962 72.4981 32.1876 72.4538C32.6107 72.357 33.0086 72.1716 33.3552 71.9098C33.7415 71.6196 34.0866 71.2779 34.3807 70.8941C34.7118 70.4595 35.0005 69.9941 35.2427 69.5041C35.7753 68.4155 36.1495 67.2561 36.3538 66.0612C36.5808 64.8564 36.6274 63.6244 36.492 62.4058C36.4255 61.8397 36.3016 61.2819 36.1223 60.7409C35.9585 60.2434 35.7231 59.7726 35.4237 59.3431C35.1361 58.9267 34.7723 58.5688 34.3515 58.2884C34.2269 58.2062 34.0968 58.1326 33.9623 58.0681C34.4543 58.1513 34.9372 58.2819 35.4042 58.458C35.653 58.5619 35.8877 58.6969 36.1028 58.8596V58.8226C36.2186 58.9411 36.3283 59.0654 36.4317 59.1949C36.509 59.3004 36.5742 59.4142 36.6263 59.5342C36.6362 59.5528 36.65 59.5691 36.6668 59.5819C36.6836 59.5947 36.703 59.6037 36.7236 59.6082C36.7371 59.6105 36.7509 59.6105 36.7644 59.6082C36.7932 59.6073 36.8213 59.5993 36.8462 59.5849C36.8811 59.5639 36.9068 59.5304 36.9182 59.4913C36.928 59.45 36.9232 59.4066 36.9046 59.3685C36.6302 58.7641 36.0347 58.3099 35.1299 58.0174C34.7355 57.8946 34.3311 57.8065 33.9214 57.7542C33.547 57.706 33.1702 57.6774 32.7928 57.6685H32.5515" fill="#F49B77"/><path d="M30.9442 57.7737C30.499 57.9116 30.0708 58.0993 29.6676 58.3332C29.2653 58.5692 28.8883 58.8462 28.5429 59.1598C28.1943 59.4742 27.8775 59.8222 27.5971 60.1989C27.316 60.5774 27.0698 60.9806 26.8616 61.4037C26.442 62.2464 26.1977 63.1657 26.1435 64.1058C26.1299 64.359 26.1299 64.6128 26.1435 64.8661C26.1552 65.139 26.1766 65.412 26.2116 65.683C26.2467 65.9539 26.2875 66.2132 26.3439 66.4745C26.4004 66.7357 26.4665 66.9911 26.5385 67.2543C26.7428 67.9304 27.016 68.5837 27.3539 69.2038C27.5236 69.5157 27.7087 69.8189 27.9085 70.1123C28.0116 70.2624 28.1186 70.4086 28.2315 70.551C28.286 70.6192 28.3424 70.6835 28.3989 70.7459C28.4553 70.8083 28.5253 70.8921 28.5935 70.9623C28.6178 70.9895 28.6517 71.0061 28.688 71.0086C28.7243 71.0112 28.7602 70.9995 28.788 70.9759C28.814 70.952 28.8306 70.9195 28.8348 70.8843C28.8357 70.8483 28.824 70.8131 28.8017 70.7849C28.7336 70.6835 28.6616 70.5899 28.5935 70.4808C28.4611 70.2761 28.321 70.0753 28.1868 69.8725L28.2121 69.9115C27.9308 69.484 27.6741 69.0407 27.4434 68.5839C27.2204 68.1379 27.0292 67.6766 26.8713 67.2036C26.6209 66.4412 26.4692 65.6497 26.4198 64.8486C26.3994 64.5344 26.3994 64.2192 26.4198 63.905C26.4441 63.6075 26.487 63.3119 26.5483 63.0199V63.055C26.6794 62.4451 26.8901 61.8552 27.1749 61.3004C27.4606 60.7467 27.8157 60.2317 28.2315 59.7681L28.2198 59.7817C28.6031 59.3568 29.0378 58.9815 29.5139 58.6646L29.4925 58.6802C29.9243 58.3944 30.3905 58.1644 30.8799 57.9959H30.8994L30.985 57.9686C31.0092 57.9639 31.0306 57.9498 31.0445 57.9293C31.0583 57.9089 31.0635 57.8838 31.059 57.8595C31.0547 57.8384 31.0436 57.8193 31.0274 57.8052C31.0113 57.7911 30.9909 57.7828 30.9695 57.7815C30.9631 57.7796 30.9563 57.7796 30.95 57.7815M30.8974 57.994H30.8858H30.8994" fill="#E48866"/><path d="M34.5735 62.4935C34.57 62.3789 34.525 62.2695 34.4471 62.1855L34.3984 62.1426C34.3721 62.1168 34.341 62.0962 34.307 62.0822C33.7083 61.83 33.1414 61.5081 32.6179 61.123C31.947 60.6206 31.3388 60.0394 30.8062 59.3918C30.2052 58.6362 29.7017 57.8076 29.3078 56.9257C28.9068 55.9964 28.6231 55.0205 28.4633 54.0208C28.33 53.1303 28.3084 52.2264 28.3991 51.3305C28.5937 49.7397 29.1658 48.2229 29.7145 46.7569C29.9714 46.0706 30.238 45.361 30.4618 44.6553C30.8357 43.533 31.0493 42.3634 31.0961 41.1812C31.1077 40.707 31.0718 40.2329 30.9891 39.7658C30.9186 39.3821 30.7969 39.0097 30.6272 38.6585C30.238 37.8358 29.4946 37.1807 28.4127 36.709C27.8698 36.475 27.2977 36.2917 26.747 36.1143C26.3169 35.9759 25.8732 35.8336 25.4471 35.6679C24.9076 35.4599 24.3948 35.1883 23.9195 34.8588C23.6076 34.6244 23.3236 34.3549 23.073 34.0556C22.8267 33.7439 22.6177 33.4043 22.4503 33.0438C22.2787 32.6349 22.1565 32.2068 22.0864 31.7688C22.0099 31.1809 22.0047 30.5859 22.0709 29.9967C22.2008 29.0453 22.4472 28.1136 22.8045 27.2225C23.2578 26.1019 23.8183 25.0279 24.478 24.0155L24.6298 23.8069C24.9904 23.3429 25.3569 22.888 25.7292 22.4422C25.7857 22.3779 25.8421 22.3136 25.9005 22.2473C27.3249 20.7091 28.9206 19.3639 30.5454 18.0597L30.7109 17.9271C30.7198 17.918 30.7248 17.9057 30.7248 17.893C30.7248 17.8802 30.7198 17.868 30.7109 17.8589C30.7061 17.8532 30.7002 17.8486 30.6934 17.8456C30.6867 17.8426 30.6793 17.8411 30.6719 17.8413C30.6625 17.8377 30.6521 17.8377 30.6427 17.8413C29.8352 18.4866 29.0315 19.1378 28.2492 19.8143C27.7563 20.2419 27.2743 20.6799 26.8034 21.1282C26.8051 21.1219 26.8051 21.1151 26.8034 21.1087C26.8058 21.1032 26.807 21.0972 26.807 21.0912C26.807 21.0852 26.8058 21.0792 26.8034 21.0737C26.7998 21.0682 26.7949 21.0637 26.7891 21.0606C26.7833 21.0576 26.7769 21.056 26.7703 21.0561C26.7649 21.0559 26.7595 21.0569 26.7545 21.0589C26.7495 21.0609 26.7449 21.0639 26.7411 21.0678C26.71 21.099 26.6808 21.1321 26.6516 21.1633C27.1659 20.5937 27.72 20.0615 28.3096 19.5706L28.3349 19.5511C28.5918 19.3423 28.8594 19.147 29.1366 18.9662C29.23 18.9026 29.2959 18.8058 29.3208 18.6954C29.3457 18.5851 29.3279 18.4693 29.2709 18.3716C29.2295 18.306 29.1719 18.2522 29.1038 18.2153C29.0356 18.1784 28.9591 18.1597 28.8817 18.161C28.8015 18.1603 28.723 18.1833 28.6559 18.2273C28.0568 18.6234 27.4948 19.073 26.9766 19.5706C26.367 20.1447 25.7962 20.7589 25.2681 21.409C24.6494 22.1613 24.0794 22.9525 23.5615 23.7777C23.495 23.6277 23.3959 23.4945 23.2715 23.3878C23.1527 23.2853 23.0134 23.2095 22.8629 23.1655C22.7685 23.1391 22.6709 23.126 22.5729 23.1265C22.5321 23.1265 22.4893 23.1265 22.4503 23.1265C21.7907 23.1948 21.2205 23.612 20.699 24.035C20.1307 24.5064 19.5992 25.0206 19.1092 25.5732C18.7297 25.9865 18.3736 26.4076 18.0506 26.8248C17.7275 27.242 17.4668 27.6339 17.1807 28.0355C16.8168 28.5599 16.4627 29.096 16.0929 29.6867C15.4274 30.7473 14.7716 31.9014 14.147 33.116C12.959 35.4392 11.9368 37.8438 11.088 40.3117C11.0257 40.493 10.9615 40.6704 10.8934 40.8498C10.7669 41.2026 10.6365 41.5672 10.5198 41.9298C10.2908 42.6124 10.1151 43.3118 9.99436 44.0217C9.87111 44.7204 9.87506 45.4357 10.006 46.133C10.0701 46.45 10.1872 46.7539 10.3524 47.0318C10.4741 47.2318 10.625 47.4125 10.8 47.5679C10.2513 48.6516 9.7748 49.7704 9.37361 50.9172C8.7414 52.7294 8.25785 54.5902 7.92778 56.4812C7.60299 58.3016 7.41436 60.1439 7.36345 61.9925C7.29567 63.8987 7.41691 65.8069 7.7254 67.6891C7.7444 67.7911 7.79832 67.8834 7.87788 67.9499C7.95744 68.0164 8.05765 68.0531 8.16129 68.0536C8.1859 68.0556 8.21062 68.0556 8.23523 68.0536C8.34922 68.0313 8.45016 67.9657 8.51691 67.8705C8.58366 67.7752 8.61103 67.6578 8.59328 67.5428C8.59235 67.5273 8.59235 67.5116 8.59328 67.496C8.67379 67.4803 8.74809 67.4417 8.80734 67.3849C8.85111 67.3457 8.88606 67.2976 8.90988 67.2438C8.9337 67.1901 8.94584 67.1318 8.9455 67.073C8.86182 66.2932 8.78399 65.5251 8.74118 64.7472C8.71912 64.3443 8.7094 63.9407 8.71199 63.5365C8.71199 63.1466 8.73339 62.745 8.75285 62.3512C8.8268 60.8579 8.94745 59.3665 9.16734 57.8868C9.29577 57.0368 9.45534 56.1946 9.65188 55.3524C9.84842 54.5102 10.0878 53.6972 10.3583 52.8843C10.7474 51.7145 11.1833 50.5663 11.6757 49.4394C12.5196 47.4505 13.6165 45.579 14.939 43.8716C15.685 42.9402 16.5454 42.107 17.4999 41.3917C17.8776 41.1235 18.2714 40.8787 18.6791 40.6587L18.9107 40.5632C19.0372 40.5164 19.1636 40.4696 19.2901 40.4287C19.9408 40.2295 20.6132 40.1098 21.2925 40.0719H21.5066C21.9644 40.0698 22.4211 40.1175 22.8687 40.2142C23.2171 40.2979 23.5547 40.4215 23.8748 40.5827C24.1096 40.7099 24.3295 40.8629 24.5305 41.0389C24.6989 41.199 24.8496 41.3767 24.9801 41.5691C25.1045 41.7732 25.2063 41.9902 25.2836 42.2164C25.3656 42.5037 25.4159 42.7992 25.4335 43.0976C25.4403 43.5567 25.3913 44.015 25.2875 44.4623C25.1766 44.9165 25.0287 45.3688 24.8886 45.8074L24.7718 46.1681L24.6882 46.4352C24.5228 46.9557 24.3574 47.4762 24.1997 47.9948C23.8292 49.1724 23.5405 50.3742 23.3357 51.5917C23.144 52.7917 23.1276 54.0132 23.2871 55.2179C23.4824 56.5255 23.8976 57.7905 24.515 58.959C25.3785 60.6411 26.5556 62.142 27.9826 63.3806C28.6937 63.9958 29.4726 64.5276 30.3041 64.9656C30.7115 65.1809 31.132 65.3704 31.5632 65.5329C31.9861 65.6914 32.4191 65.8216 32.8592 65.9228C32.8804 65.9438 32.9047 65.9616 32.9312 65.9754C32.9986 66.0166 33.076 66.0382 33.155 66.0378C33.1931 66.0375 33.231 66.0323 33.2678 66.0222C33.3764 65.9908 33.4702 65.9217 33.5325 65.8272C34.3186 64.757 34.6884 63.5755 34.5735 62.4935Z" fill="#FF9EA8"/><path d="M22.9874 33.9933C23.0556 34.1114 23.1317 34.2247 23.2151 34.3325C23.3178 34.4631 23.4297 34.5862 23.5498 34.701C23.6617 34.8073 23.7793 34.9076 23.902 35.0012C24.0882 35.1433 24.2832 35.2736 24.4858 35.3911C24.9915 35.6708 25.5111 35.9245 26.0425 36.1514C26.606 36.3928 27.1568 36.6628 27.6927 36.9605C27.8347 37.0404 27.9748 37.1243 28.1111 37.2139C28.2473 37.3036 28.3854 37.3972 28.5158 37.4986C28.682 37.6268 28.8388 37.7668 28.9848 37.9177C29.104 38.0409 29.2158 38.1711 29.3195 38.3076C29.4333 38.4627 29.536 38.6255 29.6269 38.795C29.7048 38.9391 29.7731 39.0883 29.8313 39.2415C29.8993 39.4161 29.9553 39.5952 29.9986 39.7776C30.0371 39.937 30.067 40.0984 30.0881 40.2611C30.1364 40.6274 30.1488 40.9977 30.1251 41.3665C30.1015 41.7342 30.0515 42.0997 29.9753 42.4601C29.8954 42.8365 29.7927 43.2076 29.6678 43.5714C29.6036 43.7663 29.5335 43.9476 29.4615 44.1348C29.3701 44.3609 29.2786 44.589 29.1891 44.8152C28.8174 45.7529 28.4594 46.6965 28.1617 47.6596C28.0157 48.1353 27.8814 48.6148 27.7725 49.1003C27.716 49.3518 27.6615 49.6033 27.6168 49.8586C27.572 50.114 27.5351 50.3285 27.5039 50.5663V50.5527C27.4254 51.1342 27.3871 51.7205 27.3891 52.3073C27.3891 52.5958 27.4008 52.8921 27.4241 53.1729C27.4436 53.4263 27.4708 53.6797 27.5039 53.9332C27.5858 54.5439 27.7061 55.1488 27.8639 55.7443C27.9437 56.0387 28.0313 56.3292 28.1286 56.6235C28.2259 56.9179 28.3348 57.2084 28.4535 57.4833V57.4716C28.6328 57.9013 28.8388 58.3193 29.0704 58.7232C29.1852 58.9181 29.3059 59.1131 29.4343 59.3081C29.5627 59.503 29.6756 59.6512 29.804 59.8149C29.9461 59.9923 30.092 60.1658 30.2477 60.3296C30.4034 60.4934 30.5746 60.6766 30.7478 60.8423C30.921 61.0081 31.0845 61.1582 31.2615 61.3063C31.4386 61.4545 31.5748 61.5656 31.7344 61.6962C32.1332 61.9978 32.5519 62.272 32.9876 62.517C33.2016 62.6359 33.4157 62.749 33.6356 62.8543C33.8555 62.9595 34.0462 63.0492 34.2544 63.1311H34.2408C34.3556 63.1779 34.4723 63.2247 34.5872 63.2676C34.6115 63.0167 34.6115 62.764 34.5872 62.5131C34.5813 62.3982 34.5351 62.2891 34.4568 62.2051C34.4419 62.1893 34.4256 62.1749 34.4081 62.1622C34.3819 62.1348 34.35 62.1135 34.3147 62.0998C33.717 61.8469 33.1508 61.525 32.6276 61.1406C31.9565 60.64 31.3487 60.0593 30.8179 59.4114C30.2173 58.655 29.7133 57.8266 29.3175 56.9452C28.918 56.0162 28.635 55.0411 28.475 54.0424C28.3416 53.1518 28.32 52.2479 28.4107 51.352C28.6053 49.7651 29.1755 48.2522 29.7223 46.7901L29.7379 46.7472C29.9908 46.0726 30.2516 45.3825 30.4734 44.6768C30.8475 43.5545 31.0611 42.3849 31.1078 41.2027C31.1203 40.7285 31.0844 40.2542 31.0008 39.7873C30.9306 39.4029 30.8088 39.0298 30.6388 38.678C30.2496 37.8534 29.5063 37.1983 28.4205 36.7285C27.8756 36.4926 27.2879 36.3055 26.7703 36.1436C26.3344 36.0033 25.8849 35.859 25.4568 35.6933C24.9176 35.4839 24.4049 35.2117 23.9292 34.8823C23.618 34.6485 23.3346 34.3796 23.0847 34.081C23.0127 33.9914 22.9446 33.8997 22.8804 33.8042C22.9154 33.8763 22.9543 33.9485 22.9952 34.0167" fill="#FF7C83"/><path d="M22.5239 38.3018H22.5356C22.1805 38.307 21.8263 38.3357 21.475 38.3875C21.296 38.4129 21.1189 38.446 20.9418 38.4831C20.7648 38.5201 20.613 38.5591 20.4515 38.6039H20.4631C20.0912 38.7101 19.7265 38.8403 19.3715 38.9938C19.1983 39.0679 19.029 39.144 18.8616 39.2278C18.6943 39.3116 18.5308 39.4013 18.3693 39.4949C17.9074 39.7654 17.4653 40.0684 17.0461 40.4014C16.832 40.5691 16.6238 40.7426 16.4214 40.9258C16.219 41.1091 16.0458 41.2729 15.8649 41.4522C15.3274 41.9929 14.8293 42.5714 14.3743 43.1834C14.1388 43.5031 13.9092 43.8287 13.6932 44.1582C13.4772 44.4876 13.2845 44.8093 13.0919 45.1427C13.0919 45.1427 13.0919 45.1427 13.0919 45.131C11.9325 47.2016 11.0511 49.4166 10.4707 51.7185C10.267 52.5113 10.0926 53.3119 9.94727 54.1203C10.0601 53.7304 10.1853 53.3281 10.3228 52.9135C10.7237 51.7107 11.1674 50.5527 11.6383 49.4668C12.6249 47.2384 13.6932 45.4176 14.9036 43.9028C15.6493 42.9718 16.509 42.1387 17.4625 41.423C17.8364 41.155 18.2263 40.9102 18.6301 40.6899L18.8246 40.612C18.9686 40.5574 19.1107 40.5067 19.2547 40.4599C19.9153 40.248 20.5997 40.1197 21.2921 40.0778H21.5062C21.964 40.0757 22.4207 40.1234 22.8683 40.2201C23.2158 40.3036 23.5527 40.4266 23.8724 40.5866C24.1061 40.7157 24.3259 40.8685 24.5282 41.0428C24.6958 41.2031 24.8458 41.3809 24.9758 41.5731C25.1002 41.7771 25.202 41.9941 25.2793 42.2203C25.3617 42.5069 25.4119 42.8018 25.4292 43.0996C25.4365 43.5587 25.3875 44.0171 25.2832 44.4642C25.1723 44.9185 25.0186 45.3942 24.894 45.7743L24.8824 45.8094C24.8434 45.9303 24.8045 46.0512 24.7675 46.172L24.6819 46.4372L24.6527 46.5288L24.6372 46.5775C24.4873 47.0513 24.3356 47.525 24.1935 48.0007C23.8227 49.1759 23.5353 50.3759 23.3334 51.5918C23.1401 52.7915 23.1231 54.0132 23.2828 55.2179C23.4784 56.5261 23.8936 57.7916 24.5107 58.961C25.3751 60.6431 26.5528 62.144 27.9803 63.3826C28.6913 63.9993 29.4709 64.5318 30.3038 64.9695C30.7108 65.1841 31.1306 65.3736 31.5608 65.5368C31.9838 65.6951 32.4168 65.8253 32.8568 65.9267C32.8783 65.9474 32.9026 65.9652 32.9288 65.9793C32.997 66.0203 33.0751 66.0419 33.1546 66.0417C33.1933 66.0412 33.2319 66.036 33.2694 66.0261C33.3779 65.9948 33.4718 65.9256 33.534 65.8312C33.8084 65.4636 34.0389 65.0651 34.2209 64.6439C33.3763 64.3585 32.5524 64.0146 31.7554 63.6146C30.9506 63.2075 30.184 62.7286 29.4651 62.1836C28.7512 61.6484 28.0985 61.0358 27.5191 60.3569C27.2223 60.0089 26.948 59.6423 26.6979 59.2593C26.4504 58.8835 26.2262 58.4929 26.0266 58.0896C25.8157 57.654 25.6331 57.2054 25.4798 56.7463C25.3056 56.2386 25.1754 55.7168 25.0906 55.1867C25.0415 54.9002 25.0077 54.6112 24.9894 54.3211C24.9758 54.0774 24.9719 53.8318 24.9777 53.5881C24.9929 53.0512 25.0482 52.5162 25.1431 51.9875C25.2326 51.4787 25.3513 50.9738 25.4875 50.4747C25.6238 49.9756 25.7931 49.4414 25.9604 48.9306C26.1278 48.4199 26.3029 47.8993 26.4683 47.3827C26.6337 46.8661 26.7933 46.3417 26.9334 45.8133C26.9325 45.8172 26.9325 45.8212 26.9334 45.825C27.0739 45.2939 27.1863 44.7558 27.27 44.2128C27.3089 43.9535 27.342 43.6903 27.3615 43.4329C27.379 43.2126 27.3887 42.9923 27.3868 42.772V42.7837C27.3852 42.53 27.367 42.2767 27.3323 42.0254C27.3167 41.9162 27.2992 41.8051 27.2778 41.6959C27.2564 41.5867 27.2331 41.5009 27.2058 41.3937C27.156 41.2148 27.0956 41.039 27.0248 40.8674C26.9879 40.7777 26.947 40.688 26.9022 40.6003C26.8575 40.5125 26.8283 40.4579 26.7874 40.3878C26.7055 40.2527 26.6158 40.1225 26.5189 39.9979C26.424 39.8762 26.3227 39.7597 26.2153 39.6489C26.0884 39.5185 25.9518 39.3979 25.8067 39.2882C25.6618 39.1784 25.5104 39.0775 25.3533 38.986C25.1734 38.8839 24.9868 38.794 24.7948 38.717C24.5943 38.6404 24.3897 38.5753 24.1818 38.5221H24.1935C23.9257 38.4521 23.6532 38.4012 23.3781 38.37C23.1081 38.3395 22.8365 38.3245 22.5647 38.3252H22.5219" fill="#FF9EA8"/><path d="M54.6243 56.329C54.5933 56.3535 54.573 56.3892 54.5679 56.4285C54.5644 56.4486 54.5653 56.4693 54.5703 56.4891C54.5753 56.5089 54.5844 56.5274 54.597 56.5435C54.6953 56.6405 54.787 56.7441 54.8714 56.8535H54.8306C54.7655 56.8544 54.7005 56.859 54.636 56.8671C54.4978 56.8827 54.3596 56.9022 54.2215 56.9275C53.9743 56.9724 53.7175 57.0328 53.4431 57.1108C52.9299 57.263 52.4306 57.4586 51.9506 57.6957C50.967 58.1909 50.0208 58.7571 49.1192 59.3898L48.7942 59.6081C48.0042 60.1404 47.1947 60.6862 46.3482 61.1522C45.6317 61.5547 44.8674 61.8652 44.0734 62.0763C43.5713 62.1982 43.0566 62.2604 42.54 62.2615H42.4622C41.9047 62.2477 41.3514 62.1618 40.8159 62.0061L40.8276 62.0178C40.1932 61.8228 39.59 61.583 39.0276 61.3549L38.6754 61.2107L38.6325 61.1931H38.6111C38.1363 60.9982 37.6382 60.8032 37.1536 60.6278C36.4901 60.3899 35.4898 60.076 34.4916 60.076C34.1383 60.0749 33.7862 60.1161 33.4427 60.1989C33.1344 60.276 32.836 60.3885 32.5534 60.5342C32.2447 60.6954 31.9554 60.8917 31.6914 61.119C31.4133 61.3607 31.1562 61.6254 30.9227 61.9106C30.6888 62.19 30.4724 62.4836 30.2747 62.7898C29.4796 64.0224 28.9495 65.4074 28.718 66.8565C28.6042 67.6026 28.5644 68.3582 28.5993 69.1121C28.6376 69.8698 28.7424 70.6227 28.9126 71.3619C28.9457 71.5062 28.9807 71.6485 29.0177 71.7908H28.9651C28.916 71.7983 28.8678 71.8107 28.8211 71.8279C28.7429 71.8554 28.6704 71.8971 28.6071 71.9507C28.5471 72.002 28.4981 72.065 28.4631 72.1359C28.443 72.1734 28.4261 72.2125 28.4125 72.2529C28.3982 72.2949 28.3872 72.3379 28.3794 72.3815C28.3638 72.465 28.3593 72.5502 28.3658 72.635C28.3699 72.7179 28.3823 72.8002 28.4027 72.8806C28.4027 72.8982 28.4125 72.9176 28.4183 72.9352C28.2458 72.9873 28.0979 73.1002 28.0019 73.253C27.9518 73.3317 27.9186 73.42 27.9046 73.5123C27.8317 73.5406 27.7655 73.5838 27.71 73.639C27.6446 73.7038 27.5913 73.7797 27.5524 73.8632C27.4831 74.0144 27.4536 74.1808 27.4667 74.3467L27.4414 74.3622C27.3853 74.4012 27.3354 74.4485 27.2935 74.5026C27.2206 74.6101 27.1819 74.7372 27.1826 74.8672C27.1845 75.0155 27.2135 75.1622 27.2682 75.3C27.3232 75.448 27.3923 75.5903 27.4745 75.725C27.6538 76.0236 27.8596 76.3055 28.0894 76.5672C28.2567 76.7634 28.4354 76.9496 28.6246 77.1247C29.0368 77.4899 29.4817 77.8162 29.9537 78.0995C30.4433 78.3971 30.9561 78.6546 31.4871 78.8696C31.9426 79.067 32.4222 79.2034 32.9134 79.2751C33.0464 79.2919 33.1803 79.3004 33.3143 79.3004C33.5674 79.3018 33.8195 79.2683 34.0635 79.201C34.4008 79.1093 34.7137 78.9443 34.98 78.7175C35.2427 78.4925 35.46 78.2192 35.6202 77.9124C35.9628 77.2339 36.1326 76.4812 36.1145 75.7211C36.374 75.981 36.6334 76.226 36.8929 76.4561C37.4774 76.8514 38.0814 77.217 38.7026 77.5517C39.0431 77.735 39.3895 77.9065 39.7437 78.0625C40.0978 78.2184 40.4306 78.3491 40.7828 78.4699C41.2426 78.6289 41.7118 78.7592 42.1878 78.8598C42.4349 78.9125 42.684 78.9573 42.935 78.9924C43.186 79.0275 43.4118 79.0509 43.6531 79.0684C44.0617 79.0528 44.4704 79.0119 44.8771 78.9573C45.4843 78.877 46.0857 78.7565 46.6771 78.5966C47.2507 78.4401 47.8131 78.2447 48.3603 78.0118H48.3486C49.3801 77.575 50.3518 77.0084 51.2403 76.3254C51.4349 76.1753 51.6295 76.0213 51.8066 75.8614C51.9078 75.7679 52.0012 75.6665 52.1062 75.5749L52.2561 75.4267L52.295 75.3858C52.9319 74.6542 53.5036 73.8681 54.0035 73.0366C55.2209 71.0785 56.0403 68.8988 56.4146 66.6226C56.5016 66.0797 56.5582 65.5323 56.5839 64.983C56.6072 64.4605 56.6208 63.9634 56.6228 63.5053C56.644 62.3599 56.5691 61.2147 56.399 60.0819C56.2942 59.3792 56.1148 58.6897 55.8639 58.0251C55.7448 57.7125 55.5983 57.4111 55.426 57.1244C55.265 56.8409 55.0689 56.5789 54.8422 56.3446C54.8172 56.3142 54.7819 56.294 54.743 56.2881H54.7255C54.6909 56.2881 54.6573 56.2997 54.6301 56.3212" fill="#FFBD95"/><path d="M56.4009 60.0897C56.4009 60.0273 56.3814 59.963 56.3697 59.8948C56.3853 60.1697 56.3931 60.4426 56.3931 60.7194C56.3901 61.3645 56.3512 62.0088 56.2763 62.6495C56.2043 63.2792 56.1012 63.905 55.9708 64.5249C55.8405 65.1449 55.6945 65.7239 55.5194 66.3146C55.3598 66.8527 55.1788 67.3849 54.9745 67.9074C54.5253 69.0661 53.9372 70.1659 53.2232 71.1826C52.5271 72.1705 51.7025 73.0608 50.7713 73.8301C50.3111 74.2083 49.8254 74.5541 49.3177 74.8653C48.7959 75.184 48.2522 75.4655 47.6909 75.7075C47.1221 75.9523 46.5369 76.1569 45.9395 76.3196C45.6184 76.4074 45.2954 76.4873 44.9665 76.5477C44.7719 76.5828 44.5773 76.614 44.3828 76.6394C44.2796 76.6569 44.1745 76.6725 44.0695 76.6861C43.5436 76.756 43.014 76.7938 42.4835 76.7992C42.215 76.7992 41.9445 76.7992 41.674 76.7992C41.4424 76.7992 41.2109 76.7797 40.9812 76.7602C40.5106 76.7245 40.0427 76.6594 39.5802 76.5653C38.5788 76.3611 37.612 76.0131 36.7099 75.532C36.2655 75.2912 35.8412 75.0147 35.4412 74.7054C35.2466 74.5475 35.0422 74.3818 34.8574 74.2063L34.6881 74.0445C34.6881 74.1011 34.7056 74.1595 34.7134 74.2161C34.7212 74.2726 34.7309 74.3818 34.7387 74.4656C34.4945 74.2074 34.2645 73.936 34.0498 73.6527L34.005 73.5883C33.9039 73.4519 33.8105 73.3115 33.7132 73.1711C33.5906 72.9762 33.4719 72.791 33.359 72.596C33.0931 72.1344 32.8565 71.6565 32.6507 71.1651C32.6451 71.1532 32.6366 71.1429 32.6261 71.1351C32.6156 71.1273 32.6033 71.1222 32.5904 71.1202C32.5534 71.0344 32.5164 70.9506 32.4775 70.8648C32.3977 70.6816 32.3199 70.5003 32.2576 70.3112C32.254 70.3013 32.2471 70.293 32.2381 70.2878C32.1925 70.0952 32.1593 69.8998 32.1389 69.7029C32.1366 69.6874 32.1289 69.6732 32.1171 69.6628C32.1054 69.6525 32.0903 69.6467 32.0747 69.6464C32.0665 69.6473 32.0585 69.6499 32.0513 69.654C32.0441 69.658 32.0378 69.6635 32.0328 69.67C32.0277 69.6766 32.024 69.684 32.0218 69.692C32.0197 69.7 32.0191 69.7083 32.0202 69.7165C32.0552 70.1318 32.0941 70.5471 32.1681 70.9584C32.207 71.1806 32.2654 71.401 32.3238 71.6193C32.3821 71.8376 32.4502 72.0599 32.5184 72.2782C32.6725 72.7147 32.8605 73.1384 33.0807 73.5454C33.3018 73.9597 33.5625 74.3514 33.8591 74.7152C34.0865 74.9911 34.34 75.2444 34.6161 75.4716L34.692 75.5301C34.6327 75.8704 34.5127 76.1973 34.3378 76.4951C34.2372 76.6653 34.1177 76.8235 33.9817 76.9669C33.8407 77.1166 33.6811 77.2476 33.5069 77.3568C33.3401 77.4612 33.161 77.5443 32.9737 77.6044C32.9036 77.6258 32.8336 77.6434 32.7635 77.659H32.6623C32.5612 77.659 32.4678 77.6395 32.3607 77.6258L32.3257 77.6063C32.2457 77.5555 32.1696 77.4988 32.098 77.4367L32.0611 77.4016C32.028 77.3646 31.991 77.3295 31.9579 77.2924C31.7886 77.0975 31.6271 76.9025 31.4695 76.69C31.3119 76.4775 31.1309 76.2358 30.9674 76.0058C30.6347 75.534 30.3155 75.0544 30.0237 74.5553C29.5001 73.6934 29.0962 72.764 28.823 71.7928H28.8094C28.7308 71.8208 28.6577 71.8624 28.5934 71.9156C28.533 71.9705 28.4841 72.0367 28.4494 72.1106C28.4297 72.1483 28.4128 72.1874 28.3988 72.2276C28.3864 72.2646 28.376 72.3024 28.3677 72.3406C28.3509 72.4299 28.3457 72.521 28.3521 72.6116C28.3554 72.6947 28.3685 72.7772 28.391 72.8573C28.391 72.8767 28.4007 72.8943 28.4046 72.9138C28.2316 72.9627 28.083 73.0746 27.9882 73.2277C27.9372 73.3066 27.9039 73.3958 27.8909 73.4889C27.8177 73.5156 27.7512 73.5582 27.6963 73.6137C27.6311 73.6782 27.5783 73.7542 27.5406 73.8379C27.4704 73.9895 27.4402 74.1566 27.4531 74.3233L27.4297 74.337C27.3894 74.3632 27.3528 74.3947 27.3207 74.4305V74.4403L27.2857 74.4773C27.2121 74.586 27.1727 74.7144 27.1729 74.8458C27.1747 74.9949 27.2044 75.1424 27.2604 75.2805C27.3142 75.4287 27.3826 75.5711 27.4647 75.7055C27.6452 76.0051 27.8517 76.2882 28.0816 76.5516C28.2489 76.7479 28.4276 76.934 28.6167 77.1092C29.0298 77.4732 29.4746 77.7994 29.9458 78.084C30.4354 78.3857 30.9489 78.6465 31.4812 78.8638C31.9369 79.0612 32.4164 79.1982 32.9075 79.2712C33.0413 79.2858 33.1758 79.2936 33.3104 79.2946C33.5641 79.2959 33.8168 79.2624 34.0615 79.1952C34.1101 79.1816 34.1588 79.1679 34.2055 79.1504C34.4901 79.0544 34.7542 78.9056 34.9839 78.7117C35.2465 78.4859 35.4638 78.2119 35.6241 77.9046C35.9682 77.226 36.1388 76.4723 36.1203 75.7114C36.3655 75.959 36.6204 76.2007 36.8831 76.4327C37.4743 76.8333 38.0855 77.2035 38.7142 77.542C39.0548 77.7252 39.4011 77.8968 39.7553 78.0528C40.1095 78.2087 40.4422 78.3394 40.7944 78.4602C41.2542 78.6192 41.7235 78.7495 42.1994 78.8501C42.4465 78.9028 42.6956 78.9476 42.9466 78.9827C43.1977 79.0178 43.4215 79.0412 43.6608 79.0587C44.0714 79.0431 44.4801 79.0022 44.8868 78.9476C45.494 78.8673 46.0953 78.7468 46.6867 78.5869C47.2604 78.4304 47.8228 78.235 48.37 78.0021H48.3583C49.3898 77.5653 50.3615 76.9987 51.25 76.3157C51.4446 76.1656 51.6392 76.0116 51.8143 75.8537C51.9155 75.7582 52.0089 75.6587 52.1159 75.5652L52.2735 75.4111L52.3689 75.3117C52.9849 74.6092 53.5409 73.856 54.0307 73.06C55.2471 71.1007 56.0664 68.9206 56.4418 66.6441C56.5283 66.1011 56.5849 65.5537 56.611 65.0045C56.6344 64.4606 56.648 63.9635 56.65 63.5268C56.6635 62.3761 56.5802 61.2264 56.4009 60.0897Z" fill="#FDB18D"/><path d="M50.8298 62.1194C50.822 62.1193 50.8143 62.1212 50.8075 62.125C50.8007 62.1287 50.795 62.1342 50.7909 62.1409C50.7279 62.2195 50.6597 62.2938 50.5866 62.3631C50.4837 62.4552 50.3744 62.5399 50.2597 62.6165C50.2052 62.6555 50.1526 62.6945 50.0962 62.7316C50.0398 62.7686 49.9658 62.8134 49.9016 62.8544C49.6914 62.9831 49.4871 63.1156 49.2808 63.2443C49.059 63.332 48.8333 63.4139 48.6056 63.4938C48.3779 63.5738 48.1211 63.6673 47.8778 63.7551C47.6346 63.8428 47.4186 63.9286 47.1909 64.0202C47.0469 64.0787 46.9049 64.1391 46.7628 64.2035C46.648 64.0339 46.5293 63.8662 46.4047 63.7024C46.134 63.3486 45.8415 63.012 45.5291 62.6945C45.2453 62.4072 44.9465 62.1352 44.6339 61.8796C44.4393 61.9439 44.2448 61.9985 44.0657 62.0453C43.5643 62.1669 43.0502 62.2284 42.5343 62.2286H42.4584C41.9667 62.2199 41.4776 62.1545 41.0009 62.0336C41.4523 62.3826 41.8941 62.7433 42.3202 63.1234C42.544 63.3184 42.7639 63.5231 42.9799 63.7297C43.1959 63.9364 43.4002 64.1469 43.6026 64.3614C43.7524 64.5212 43.8984 64.685 44.0443 64.8488C43.8497 64.8683 43.6551 64.8839 43.4605 64.8936H43.4878C43.3827 64.8936 43.2776 64.8975 43.1725 64.9053C42.8793 64.9053 42.5855 64.8916 42.291 64.8644C42.2873 64.8501 42.2807 64.8369 42.2716 64.8254C42.2594 64.8105 42.2444 64.7983 42.2273 64.7896C42.2102 64.7808 42.1915 64.7758 42.1723 64.7747C42.0244 64.7747 41.8746 64.7864 41.7267 64.7844H41.5321C41.2032 64.7376 40.8744 64.6792 40.5475 64.609C40.2653 64.5466 39.987 64.4725 39.7088 64.3926L39.5297 64.3204H39.5142C39.5036 64.3204 39.4934 64.3239 39.485 64.3302C39.2184 64.2503 38.9557 64.1645 38.6949 64.0689C38.5003 63.9988 38.3057 63.9247 38.1111 63.8467C37.7998 63.7024 37.4923 63.5517 37.1888 63.3944H37.2024C36.8443 63.1994 36.4902 63.0142 36.1496 62.7939C35.8132 62.5704 35.4884 62.3297 35.1767 62.0726C34.8731 61.827 34.5773 61.5696 34.2854 61.3103C34.0558 61.1154 33.8242 60.9087 33.5927 60.7118C33.5168 60.6202 33.4448 60.5169 33.3728 60.4311C33.3648 60.4206 33.3545 60.4121 33.3427 60.4064C33.3308 60.4006 33.3178 60.3977 33.3047 60.398C33.2828 60.3982 33.2615 60.4058 33.2443 60.4194C33.2263 60.4352 33.215 60.4574 33.2128 60.4814C33.2106 60.5054 33.2177 60.5292 33.2327 60.5481V60.5656C33.1918 60.513 33.1509 60.4623 33.112 60.4097C33.1043 60.3996 33.0942 60.3914 33.0827 60.386C33.0712 60.3806 33.0586 60.378 33.0459 60.3785C33.0254 60.3786 33.0056 60.3855 32.9894 60.398C32.9717 60.4128 32.9606 60.434 32.9584 60.457C32.9562 60.48 32.9632 60.5029 32.9778 60.5208C33.2338 60.8737 33.5093 61.2122 33.8028 61.5345C34.1142 61.8757 34.445 62.1974 34.7875 62.5093C35.5054 63.1544 36.2879 63.7235 37.1226 64.2074C37.552 64.4569 37.9931 64.6843 38.4458 64.8897C38.8891 65.0914 39.344 65.2666 39.808 65.4141C40.7137 65.7112 41.6575 65.8754 42.6102 65.9015C42.9932 65.91 43.3764 65.8892 43.7563 65.8391C44.0475 65.8024 44.3352 65.7417 44.6164 65.6578L44.7059 65.6403L44.7857 65.7339C44.9803 65.9678 45.1749 66.2037 45.3695 66.4396C45.5641 66.6755 45.7315 66.8938 45.9046 67.1258C46.0778 67.3578 46.2063 67.5352 46.3542 67.7438L46.6052 68.1825C46.9126 68.7283 47.2084 69.2807 47.4925 69.8396C47.6365 70.1262 47.7766 70.4127 47.9167 70.7013C48.0569 70.9898 48.197 71.2861 48.3371 71.5708C48.344 71.5872 48.357 71.6002 48.3733 71.6071C48.3897 71.614 48.4081 71.6143 48.4246 71.6078C48.4338 71.605 48.4419 71.5996 48.448 71.5922L48.4888 71.7014C48.5122 71.4012 48.5258 71.1029 48.5317 70.8026C48.5433 70.2259 48.518 69.6489 48.4558 69.0754C48.3957 68.515 48.2976 67.9594 48.1619 67.4124C48.0439 66.9408 47.8944 66.4777 47.7144 66.0263C47.583 65.7052 47.4355 65.3909 47.2726 65.0847C47.756 64.8864 48.2135 64.6297 48.6348 64.3204C49.0435 64.0234 49.4364 63.7052 49.8121 63.3671C50.0067 63.1917 50.2013 63.0045 50.3842 62.8095C50.5574 62.6205 50.7192 62.4213 50.8687 62.213C50.8757 62.205 50.8802 62.1953 50.8819 62.1849C50.8836 62.1745 50.8823 62.1638 50.8783 62.1541C50.8742 62.1443 50.8676 62.1359 50.859 62.1298C50.8504 62.1237 50.8403 62.1201 50.8298 62.1194ZM33.3845 60.7547L33.3319 60.6884L33.3825 60.7333C33.4273 60.7918 33.474 60.8503 33.5207 60.9068L33.3845 60.7547ZM48.0199 70.559C47.9868 70.4888 47.9537 70.4166 47.9167 70.3465C47.7669 70.0482 47.6093 69.7518 47.4497 69.4575C47.6547 69.811 47.8447 70.1755 48.0199 70.5512V70.559Z" fill="#FDB18D"/><path d="M32.0571 69.5664C32.0482 69.5662 32.0393 69.568 32.0312 69.5717C32.0231 69.5754 32.016 69.581 32.0104 69.5879C32.0064 69.595 32.0044 69.6031 32.0044 69.6113C32.0044 69.6194 32.0064 69.6275 32.0104 69.6347C32.3239 70.6197 32.7503 71.565 33.2811 72.4517C33.4153 72.6759 33.5593 72.904 33.7092 73.1263C33.859 73.3485 33.9874 73.5279 34.1781 73.7774C34.5031 74.2052 34.8499 74.6158 35.2173 75.0076C35.9418 75.7781 36.7476 76.4678 37.6205 77.0643C38.0609 77.3634 38.5198 77.6343 38.9943 77.8754C39.4775 78.1237 39.9768 78.3393 40.4888 78.5207L40.6367 78.5655C40.9383 78.6552 41.1991 78.7254 41.4307 78.7819C41.7887 78.8618 42.1507 78.9262 42.5048 78.9768C42.9178 79.031 43.3337 79.0596 43.7502 79.0626H44.0013C44.1238 79.0626 44.2484 79.049 44.3729 79.0353C44.4975 79.0217 44.5675 79.0158 44.6707 79.0061L45.1844 78.9086L45.4179 78.8618C45.4167 78.8509 45.4117 78.8407 45.404 78.8329C45.3962 78.8251 45.386 78.8202 45.3751 78.8189C44.9446 78.8817 44.5102 78.913 44.0752 78.9125C43.8339 78.9125 43.5829 78.9028 43.3299 78.8852L43.3552 78.895C42.5083 78.8175 41.6739 78.6374 40.8702 78.3588L40.8936 78.3744C39.7802 77.97 38.7228 77.4249 37.747 76.7524C36.5595 75.9279 35.4841 74.9521 34.5479 73.8496L34.5323 73.834C34.3552 73.6215 34.1879 73.407 33.9874 73.1419C33.787 72.8767 33.6177 72.635 33.4698 72.4108C33.1413 71.9124 32.8487 71.3912 32.5941 70.8512C32.4036 70.4465 32.2398 70.0297 32.1038 69.6035C32.1011 69.5932 32.0951 69.5841 32.0866 69.5777C32.0781 69.5713 32.0677 69.568 32.0571 69.5684" fill="#F5AA89"/><path d="M34.696 59.926C34.4587 59.9266 34.2216 59.9403 33.9858 59.967C33.7049 60.0032 33.4271 60.0605 33.1549 60.1385C32.7235 60.2628 32.3148 60.4557 31.9445 60.7097C31.5746 60.9636 31.2385 61.2637 30.9443 61.6026C30.6433 61.9423 30.3743 62.3091 30.1406 62.6983C29.6599 63.4953 29.274 64.3458 28.9905 65.2327C28.8641 65.6109 28.7473 66.0125 28.6325 66.4862C28.4966 67.0472 28.4068 67.6184 28.3639 68.194C28.3215 68.7868 28.3273 69.3821 28.3815 69.9739C28.4087 70.2878 28.4476 70.5725 28.4982 70.8454C28.5488 71.1183 28.6208 71.4108 28.7045 71.7149C28.8587 72.2785 29.0646 72.8267 29.3194 73.3525C29.5821 73.8984 29.8682 74.4325 30.1698 74.9394C30.4493 75.4095 30.7526 75.865 31.0785 76.3041C31.3986 76.7375 31.747 77.1491 32.1216 77.5362C32.1409 77.5565 32.1675 77.5684 32.1955 77.5693C32.215 77.5692 32.2341 77.5631 32.25 77.5518C32.269 77.5352 32.2814 77.5124 32.285 77.4875C32.287 77.464 32.2809 77.4406 32.2675 77.4212C31.9153 76.9981 31.5806 76.5575 31.2712 76.1091C30.9618 75.6607 30.6524 75.1792 30.3702 74.6938C30.0881 74.2083 29.8643 73.7755 29.6522 73.3291C29.4358 72.8697 29.2581 72.393 29.1209 71.904C29.0606 71.6817 29.0158 71.4887 28.9808 71.3191C28.9458 71.1495 28.9069 70.9078 28.8738 70.6621C28.814 70.2337 28.7802 69.8021 28.7726 69.3696C28.769 68.8803 28.7963 68.3913 28.8543 67.9055C28.9107 67.4411 28.9965 66.9807 29.1112 66.5272C29.3891 65.3768 29.8177 64.2683 30.3858 63.2305L30.3605 63.2461C30.68 62.6949 31.0606 62.1815 31.495 61.7157C31.7867 61.4174 32.1134 61.1556 32.4679 60.9359C32.6136 60.853 32.7636 60.7782 32.9174 60.7117C33.0875 60.6408 33.2616 60.5803 33.439 60.5304C33.8843 60.4161 34.3415 60.3539 34.8011 60.3452H34.8478C35.4712 60.3503 36.0917 60.4294 36.6965 60.5811C37.7745 60.8659 38.8107 61.2906 39.7788 61.8444C41.2224 62.6635 42.5519 63.6696 43.733 64.8369C44.3834 65.4842 44.9881 66.176 45.5427 66.9073C46.0951 67.6414 46.6026 68.4083 47.0625 69.2039C47.5674 70.0873 48.0222 70.9985 48.4247 71.9332C48.4307 71.9458 48.4401 71.9564 48.4517 71.964C48.4634 71.9715 48.4769 71.9757 48.4908 71.9761H48.5181C48.5266 71.9726 48.5343 71.9673 48.5407 71.9605C48.547 71.9538 48.5519 71.9459 48.555 71.9371C48.5589 71.9289 48.5608 71.9199 48.5608 71.9108C48.5608 71.9017 48.5589 71.8927 48.555 71.8845C48.1075 70.8532 47.656 69.935 47.1773 69.0655C46.9243 68.6073 46.6616 68.1667 46.3989 67.7554C46.2666 67.5487 46.1265 67.3304 45.9786 67.1198C45.8307 66.9093 45.6848 66.7046 45.5349 66.5018C45.2353 66.1002 44.9142 65.7045 44.5814 65.3321C44.2487 64.9597 43.9081 64.601 43.517 64.2248C42.7565 63.503 41.9334 62.8506 41.0573 62.2752C40.6117 61.9808 40.1427 61.7001 39.6601 61.4389C39.165 61.1673 38.655 60.9238 38.1326 60.7097C37.6007 60.4921 37.0538 60.3135 36.496 60.1756C35.9526 60.0403 35.396 59.9651 34.8361 59.9514H34.7038L34.696 59.926Z" fill="#F88D62"/><path d="M28.4925 72.8418C28.3847 72.8481 28.2799 72.8802 28.187 72.9354C28.0873 72.9916 28.0015 73.0695 27.936 73.1635C27.9056 73.21 27.882 73.2605 27.8659 73.3136C27.8659 73.3351 27.8562 73.3585 27.8523 73.3819C27.8494 73.4117 27.8494 73.4417 27.8523 73.4715C27.8551 73.4872 27.8618 73.502 27.8717 73.5144C27.8868 73.5312 27.9077 73.5416 27.9301 73.5437C27.9535 73.5452 27.9766 73.5375 27.9943 73.5222C28.01 73.5063 28.0202 73.4858 28.0235 73.4637C28.0374 73.4088 28.0563 73.3553 28.08 73.3039C28.112 73.2484 28.1485 73.1956 28.1889 73.146C28.2301 73.1042 28.275 73.0663 28.3232 73.0329C28.3602 73.0108 28.3993 72.9925 28.44 72.9783C28.4787 72.9666 28.5184 72.9588 28.5587 72.9549C28.5858 72.952 28.6132 72.952 28.6404 72.9549C28.6659 72.9615 28.6907 72.9706 28.7143 72.9822H28.728C28.7332 72.9859 28.7391 72.9886 28.7454 72.99C28.7516 72.9915 28.7581 72.9917 28.7644 72.9906C28.7708 72.9895 28.7768 72.9872 28.7823 72.9837C28.7877 72.9803 28.7924 72.9758 28.7961 72.9705C28.8029 72.9595 28.8053 72.9464 28.8028 72.9337C28.8003 72.921 28.793 72.9098 28.7824 72.9023L28.7299 72.875C28.7018 72.8617 28.6725 72.8513 28.6423 72.8438C28.6011 72.8327 28.5585 72.8275 28.5159 72.8282H28.4925" fill="#F5AA89"/><path d="M27.9085 73.4558C27.8559 73.4645 27.8052 73.4823 27.7587 73.5084C27.7047 73.5377 27.656 73.5759 27.6147 73.6215C27.5286 73.713 27.4658 73.824 27.4318 73.9451C27.394 74.0668 27.386 74.1959 27.4084 74.3214C27.4132 74.3459 27.4271 74.3676 27.4474 74.3821C27.4677 74.3966 27.4927 74.4028 27.5174 74.3993C27.5296 74.3972 27.5412 74.3927 27.5516 74.3861C27.562 74.3794 27.571 74.3708 27.5781 74.3606C27.5851 74.3505 27.5901 74.339 27.5927 74.3269C27.5953 74.3148 27.5955 74.3023 27.5933 74.2902C27.5933 74.2629 27.5933 74.2356 27.5933 74.2083C27.5936 74.135 27.6007 74.0619 27.6147 73.9899C27.6306 73.9225 27.6541 73.8571 27.6847 73.795C27.7064 73.7556 27.7318 73.7184 27.7606 73.6839L27.747 73.6975C27.7763 73.6648 27.8097 73.636 27.8463 73.6117C27.8724 73.5952 27.9005 73.5821 27.9299 73.5727C27.956 73.5654 27.9827 73.5608 28.0097 73.5591C28.0376 73.5572 28.0655 73.5572 28.0934 73.5591C28.1386 73.5701 28.1824 73.5864 28.2238 73.6078C28.2303 73.6106 28.2372 73.612 28.2443 73.6119C28.2513 73.6118 28.2583 73.6103 28.2647 73.6073C28.2711 73.6044 28.2769 73.6001 28.2815 73.5949C28.2862 73.5896 28.2897 73.5834 28.2919 73.5766C28.2963 73.5632 28.2953 73.5486 28.2891 73.5358C28.2829 73.5231 28.2721 73.5133 28.2588 73.5084C28.2279 73.4928 28.1961 73.4791 28.1634 73.4675C28.137 73.458 28.1096 73.4515 28.0817 73.448C28.0538 73.4408 28.025 73.4375 27.9961 73.4382C27.9702 73.4363 27.9442 73.4363 27.9183 73.4382M27.6166 73.9724C27.6166 73.9724 27.6166 73.9841 27.6166 73.988V73.9724Z" fill="#F5AA89"/><path d="M27.3542 74.3292C27.2243 74.422 27.1356 74.5619 27.107 74.7191C27.0912 74.8046 27.086 74.8917 27.0915 74.9784C27.1018 75.0844 27.126 75.1887 27.1635 75.2884C27.2466 75.5232 27.3591 75.7466 27.4982 75.9532C27.6464 76.1731 27.8117 76.3811 27.9924 76.5751C28.1637 76.77 28.3485 76.9455 28.5354 77.1209C28.7222 77.2964 28.9245 77.466 29.1191 77.6278C29.3333 77.799 29.5561 77.9591 29.7866 78.1074C30.2502 78.4106 30.7446 78.6635 31.2616 78.8619C31.7734 79.0594 32.3084 79.1905 32.8534 79.2518C33.1006 79.283 33.3501 79.2908 33.5987 79.2752C33.8136 79.2594 34.0259 79.2182 34.2311 79.1524C34.6212 79.0312 34.9754 78.8156 35.2625 78.5246C35.5996 78.1815 35.8469 77.7603 35.9825 77.2983C36.0194 77.1775 36.0486 77.0527 36.0739 76.926C36.0992 76.7993 36.1148 76.655 36.1284 76.5166C36.1476 76.3431 36.156 76.1686 36.1537 75.9941C36.1517 75.9086 36.1439 75.8232 36.1304 75.7387C36.1235 75.6883 36.1118 75.6387 36.0953 75.5906C36.0783 75.5459 36.0539 75.5044 36.0233 75.4677C36.008 75.4491 35.9881 75.4348 35.9656 75.4262C35.9431 75.4177 35.9187 75.4152 35.8949 75.419C35.8717 75.422 35.8497 75.4315 35.8315 75.4463C35.8133 75.4611 35.7995 75.4806 35.7918 75.5028C35.7835 75.5257 35.777 75.5492 35.7723 75.573C35.7703 75.5957 35.7703 75.6185 35.7723 75.6412C35.7723 75.6919 35.7723 75.7446 35.782 75.7953C35.782 75.8908 35.7937 75.9902 35.7957 76.0818C35.7957 76.2768 35.7957 76.4717 35.7762 76.6803C35.7643 76.8325 35.7415 76.9837 35.7081 77.1326C35.647 77.3783 35.5554 77.6154 35.4357 77.8384C35.4414 77.8263 35.4479 77.8146 35.4551 77.8033C35.3433 78.0003 35.2087 78.1835 35.0543 78.3492C34.9131 78.4907 34.7557 78.6151 34.5853 78.7196C34.4143 78.8195 34.2321 78.8987 34.0424 78.9555C33.838 79.0119 33.6276 79.0433 33.4158 79.049C33.2037 79.0507 32.9917 79.0377 32.7814 79.01C32.5429 78.981 32.3063 78.9374 32.0731 78.8794C31.4488 78.7169 30.8479 78.4751 30.2848 78.16L30.3081 78.1737C29.933 77.9641 29.574 77.7269 29.234 77.4641C29.0685 77.3354 28.909 77.2009 28.7514 77.0625C28.5937 76.924 28.4497 76.7915 28.3057 76.6492L28.3213 76.6667C28.003 76.3633 27.7227 76.0222 27.4865 75.651V75.6412C27.3894 75.475 27.3111 75.2985 27.253 75.1149V75.1305C27.2279 75.0502 27.2135 74.9669 27.2102 74.8829V74.9004C27.2091 74.8257 27.2169 74.7511 27.2335 74.6782C27.2467 74.6284 27.265 74.58 27.288 74.5339C27.3059 74.5039 27.3268 74.4759 27.3503 74.4501C27.3724 74.4284 27.3965 74.4088 27.4223 74.3916L27.4904 74.3604H27.4768C27.506 74.3522 27.536 74.347 27.5663 74.3448C27.6068 74.3448 27.6472 74.3487 27.6869 74.3565C27.7275 74.3679 27.7672 74.3822 27.8056 74.3994C27.8115 74.4019 27.8178 74.4032 27.8242 74.4031C27.8305 74.4031 27.8368 74.4018 27.8426 74.3992C27.8485 74.3966 27.8537 74.3929 27.8581 74.3883C27.8624 74.3836 27.8658 74.3781 27.8679 74.3721C27.8704 74.3662 27.8717 74.3599 27.8716 74.3535C27.8716 74.3472 27.8703 74.3409 27.8677 74.335C27.8652 74.3292 27.8615 74.3239 27.8568 74.3196C27.8521 74.3152 27.8467 74.3119 27.8407 74.3097C27.7557 74.2681 27.6628 74.2455 27.5682 74.2434C27.492 74.2427 27.4171 74.2636 27.3522 74.3039" fill="#F5AA89"/><path d="M34.6549 39.4832C34.4295 39.4853 34.2074 39.5379 34.0049 39.6372C33.7753 39.7487 33.5702 39.9051 33.4017 40.0973C33.2149 40.3074 33.0577 40.5422 32.9347 40.7952C32.6661 41.3503 32.5188 41.9565 32.5027 42.5732C32.4936 42.8402 32.5126 43.1074 32.5591 43.3705C32.6036 43.624 32.6795 43.8708 32.7848 44.1055C32.9883 44.5719 33.3437 44.9554 33.7928 45.1933C33.8165 45.2049 33.8424 45.2109 33.8687 45.2109H33.8921C33.908 45.2243 33.9266 45.2343 33.9466 45.2401C33.9595 45.242 33.9726 45.242 33.9855 45.2401C34.0119 45.2395 34.0379 45.2328 34.0614 45.2206C34.1292 45.1876 34.1943 45.1491 34.256 45.1056C34.3358 45.051 34.4078 44.9945 34.4778 44.9399C34.6062 44.8405 34.7386 44.7255 34.8787 44.5929C35.1638 44.318 35.4243 44.0186 35.6571 43.6981C35.8967 43.376 36.1009 43.0289 36.2661 42.6628C36.4251 42.3156 36.5238 41.9438 36.558 41.5633C36.5697 41.3853 36.5592 41.2065 36.5269 41.0311C36.4944 40.8591 36.4367 40.6929 36.3556 40.5379C36.1694 40.2025 35.893 39.9263 35.5578 39.7405C35.3102 39.591 35.0308 39.5021 34.7425 39.4812H34.6568" fill="#F7AA87"/><path d="M33.7737 40.3487C33.7504 40.3572 33.7312 40.3742 33.72 40.3963C33.7088 40.4183 33.7064 40.4439 33.7134 40.4677C33.7214 40.4913 33.7383 40.5108 33.7604 40.5221C33.7826 40.5334 33.8083 40.5355 33.8321 40.5281C33.8802 40.51 33.9296 40.4956 33.98 40.4852C34.0363 40.4804 34.0929 40.4804 34.1492 40.4852C34.2121 40.4928 34.274 40.5065 34.3341 40.5262C34.4019 40.5523 34.4671 40.585 34.5287 40.6236C34.6066 40.681 34.6783 40.7464 34.7428 40.8186C34.8316 40.9294 34.908 41.0497 34.9704 41.1773C35.0293 41.3063 35.073 41.4418 35.1008 41.5809C35.1113 41.6147 35.1308 41.645 35.1572 41.6686C35.1983 41.7054 35.252 41.725 35.3071 41.7232C35.3344 41.7219 35.3612 41.7153 35.3859 41.7035C35.4106 41.6918 35.4328 41.6753 35.4511 41.6549C35.47 41.6354 35.4846 41.6121 35.494 41.5866C35.5033 41.5611 35.5073 41.5339 35.5056 41.5068C35.4927 41.4097 35.4719 41.3139 35.4433 41.2202C35.4071 41.1171 35.3594 41.0183 35.3012 40.9258C35.2472 40.8421 35.1853 40.7638 35.1164 40.6919C35.0412 40.619 34.9591 40.5537 34.8712 40.4969C34.7095 40.3854 34.5244 40.3127 34.3302 40.2844C34.2776 40.275 34.2241 40.2705 34.1706 40.2708C34.0321 40.2714 33.8948 40.2978 33.7659 40.3487" fill="#F5AA89"/><path d="M50.7833 24.3645C50.1885 24.3646 49.5942 24.3959 49.0027 24.4581C47.4252 24.6154 45.8804 25.0097 44.42 25.6278C42.9508 26.2523 41.5975 27.121 40.4172 28.1973C40.1001 28.4878 39.7984 28.7822 39.5202 29.0921C39.1815 29.468 38.8731 29.8703 38.5978 30.295C38.0718 31.1067 37.655 31.9844 37.3582 32.9054C37.0268 33.9449 36.7904 35.0125 36.6518 36.0949C36.5837 36.5842 36.5234 37.1125 36.4573 37.7578C36.4242 38.0931 36.3891 38.3641 36.3424 38.6059C36.2921 38.859 36.2271 39.1089 36.1478 39.3545C36.0496 39.6577 35.9312 39.9541 35.7937 40.2415C35.6426 40.5508 35.4723 40.8503 35.2839 41.1383C35.169 41.3099 35.0406 41.4912 34.8947 41.6959L34.811 41.807C34.7643 41.8675 34.7176 41.9279 34.6728 41.9903C34.5892 42.1053 34.5074 42.2223 34.4257 42.3412C34.1437 42.7533 33.8895 43.1838 33.6648 43.6298C33.2134 44.5134 32.8966 45.4596 32.7249 46.4372C32.5539 47.4044 32.5539 48.3942 32.7249 49.3615C32.8158 49.8552 32.9519 50.3394 33.1316 50.808C33.2989 51.2293 33.4939 51.639 33.7154 52.0343C34.4802 53.4173 35.5248 54.6251 36.7822 55.5805C38.0198 56.504 39.4058 57.2088 40.8804 57.6646C42.3961 58.1373 43.9652 58.417 45.5506 58.497C45.9612 58.5185 46.3757 58.5302 46.7805 58.5302C47.9575 58.528 49.1327 58.4394 50.2968 58.265C51.1104 58.1436 51.9166 57.977 52.7117 57.7659C53.5573 57.5409 54.3786 57.2327 55.1636 56.8458C55.8857 56.4841 56.5696 56.0504 57.2049 55.5513C57.8536 55.0345 58.4588 54.4653 59.0146 53.8493C59.1722 53.6778 59.326 53.5023 59.4797 53.3249C59.5421 53.3678 59.6071 53.4068 59.6743 53.4419C59.8849 53.5482 60.1052 53.6344 60.332 53.6992C60.7474 53.8159 61.1771 53.8737 61.6085 53.8708H61.7584C62.2318 53.8591 62.7014 53.7817 63.1536 53.6407C63.6069 53.4998 64.0314 53.2786 64.4068 52.9876C64.8007 52.6869 65.1353 52.3154 65.3934 51.892C65.6494 51.4742 65.8009 51.0007 65.8351 50.5117C65.8635 50.1045 65.7721 49.6978 65.5724 49.342C65.386 49.023 65.1171 48.7603 64.794 48.5817C64.5226 48.4298 64.2247 48.3313 63.9164 48.2912C64.1305 47.9773 64.3251 47.6732 64.5294 47.3379C65.0831 46.4587 65.5609 45.5339 65.9577 44.5734C66.3356 43.6308 66.597 42.6455 66.7361 41.6394C66.864 40.6857 66.8907 39.7211 66.8159 38.7618C66.7385 37.7924 66.571 36.8323 66.3158 35.8941C66.0586 34.9479 65.716 34.0272 65.2922 33.1433C64.8785 32.2771 64.3861 31.4509 63.8211 30.6752C63.3278 29.9978 62.777 29.3645 62.1748 28.7822C61.0243 27.6869 59.7115 26.7767 58.2829 26.084C56.8505 25.3858 55.3266 24.8942 53.7567 24.6238C52.7756 24.4513 51.7813 24.3645 50.7852 24.3645" fill="#FFBD95"/><path d="M58.8274 26.3628C59.1154 26.5889 59.3995 26.8287 59.672 27.0763C60.3293 27.6684 60.936 28.3147 61.4856 29.0083C61.7697 29.369 62.0168 29.7121 62.2426 30.0572C62.4683 30.4022 62.6843 30.7726 62.8594 31.108C63.056 31.481 63.2295 31.8658 63.379 32.2601C63.5273 32.6574 63.6527 33.063 63.7546 33.4747C63.8636 33.9188 63.9487 34.3685 64.0095 34.8218C64.0698 35.2644 64.1107 35.7147 64.1282 36.1592C64.1636 37.0942 64.122 38.0306 64.0036 38.9588C63.8856 39.8794 63.7068 40.7912 63.4685 41.6881C63.2279 42.6015 62.9335 43.4999 62.587 44.3785C62.2553 45.226 61.8772 46.0545 61.4544 46.8602C61.0706 47.6 60.6431 48.3161 60.174 49.0047C59.7035 49.691 59.1901 50.3467 58.6367 50.9679C58.0974 51.5758 57.5189 52.1476 56.9048 52.6796C56.2852 53.2194 55.6292 53.7158 54.9414 54.1651C54.2604 54.607 53.5505 55.0023 52.8164 55.3485C52.0699 55.6995 51.3001 55.9985 50.5124 56.2434C50.1362 56.3577 49.76 56.4604 49.3838 56.5514C48.9712 56.6814 48.5555 56.8009 48.1364 56.9101C45.8492 57.5368 43.4787 57.8038 41.1096 57.7016L40.915 57.6899C42.4223 58.1577 43.9821 58.4341 45.5581 58.5126C45.9803 58.536 46.3948 58.5477 46.7879 58.5477C47.9648 58.5442 49.14 58.4555 50.3042 58.2826C51.1188 58.1615 51.9257 57.9935 52.7211 57.7796C53.5674 57.5571 54.389 57.2488 55.1729 56.8594C55.8961 56.4985 56.5807 56.0648 57.2162 55.5649C57.8646 55.0471 58.4705 54.478 59.0279 53.863C59.1855 53.6914 59.3392 53.516 59.4929 53.3385C59.5521 53.3863 59.6176 53.4257 59.6875 53.4555C59.897 53.5631 60.1167 53.6493 60.3433 53.7129C60.7598 53.8313 61.1908 53.8904 61.6237 53.8883H61.7736C62.2478 53.8749 62.7179 53.7962 63.1708 53.6544C63.625 53.5143 64.0503 53.293 64.4259 53.0013C64.821 52.6997 65.1563 52.3268 65.4144 51.9017C65.6713 51.4835 65.8235 51.0093 65.8581 50.5195C65.8883 50.1082 65.7962 49.6971 65.5935 49.3381C65.4084 49.0176 65.1392 48.7539 64.8151 48.5758C64.5434 48.4221 64.2448 48.3222 63.9355 48.2814C64.1301 48.0241 64.3091 47.7414 64.5543 47.3398C65.1055 46.4591 65.5807 45.533 65.9749 44.5715C66.3515 43.6271 66.6128 42.6407 66.7532 41.6335C66.881 40.6798 66.9078 39.7153 66.833 38.756C66.7568 37.785 66.5887 36.8235 66.331 35.8843C66.0753 34.9377 65.7326 34.0168 65.3074 33.1335C64.8943 32.2658 64.4019 31.4382 63.8363 30.6615C63.3378 29.9897 62.7839 29.361 62.1803 28.7822C61.1793 27.8279 60.0533 27.0147 58.8333 26.3647" fill="#FDB08C"/><path d="M44.4354 25.6181C44.2038 25.7156 43.9742 25.8131 43.7465 25.9242C43.0512 26.2439 42.376 26.6059 41.7247 27.0081C41.4056 27.2031 41.0962 27.4234 40.7946 27.6476C40.4867 27.8745 40.1917 28.1186 39.9111 28.3787C39.327 28.915 38.8048 29.5153 38.3543 30.1683C37.9573 30.7525 37.6245 31.3781 37.3619 32.034C37.1071 32.6653 36.9079 33.3176 36.7665 33.9836C36.6166 34.664 36.5135 35.3483 36.424 36.0442C36.3792 36.3893 36.3403 36.7344 36.2994 37.0794C36.2586 37.4245 36.2313 37.7091 36.1807 38.023C36.0577 38.7099 35.8457 39.3777 35.5502 40.0096C34.9392 41.306 34.0869 42.468 33.4097 43.7293C33.0513 44.382 32.7661 45.0725 32.5593 45.788C32.3427 46.5877 32.2547 47.417 32.2986 48.2444C32.3978 49.7319 32.8777 51.1687 33.6919 52.4165C33.8865 52.7362 34.118 53.0442 34.3515 53.3425C34.5851 53.6408 34.8166 53.9273 35.0696 54.1944C35.3167 54.4577 35.5856 54.6997 35.8733 54.9177C36.0134 55.0249 36.1613 55.1224 36.3092 55.216C36.4873 55.3245 36.6719 55.4222 36.8618 55.5084C36.9124 55.5202 36.965 55.5202 37.0155 55.5084C37.0551 55.5002 37.0926 55.4843 37.126 55.4615C37.1594 55.4388 37.188 55.4097 37.2101 55.3759C37.2518 55.3085 37.2653 55.2274 37.2479 55.15C37.2304 55.0727 37.1833 55.0054 37.1167 54.9625C36.9085 54.8339 36.7003 54.7033 36.4999 54.5609C36.2994 54.4186 36.1438 54.2958 35.9745 54.1535C35.6809 53.9042 35.4028 53.6373 35.1416 53.3542C34.876 53.0604 34.6297 52.7498 34.4041 52.4243V52.4379C34.4035 52.4327 34.4035 52.4275 34.4041 52.4223L34.3924 52.4067C33.9418 51.7551 33.5725 51.0506 33.293 50.309L33.3066 50.346L33.2891 50.2973C33.2895 50.2941 33.2895 50.2908 33.2891 50.2876C33.0724 49.6732 32.9299 49.0351 32.8648 48.3868C32.8158 47.7804 32.84 47.1703 32.9368 46.5698C33.0578 45.9079 33.2618 45.264 33.544 44.6534C34.1589 43.3355 35.0307 42.1638 35.7273 40.8927C36.0908 40.2501 36.3813 39.5687 36.5933 38.8613C36.697 38.4848 36.7718 38.101 36.817 37.713C36.8715 37.2802 36.926 36.8474 36.9844 36.4166C37.0428 35.9858 37.107 35.5276 37.179 35.0831C37.179 35.1104 37.179 35.1358 37.1654 35.1611C37.3515 33.8875 37.6987 32.6427 38.1987 31.457C38.3943 31.0353 38.6186 30.6275 38.87 30.2366C39.1096 29.8658 39.3729 29.5109 39.6581 29.1741C40.2723 28.4572 40.9753 27.8217 41.75 27.283C42.0594 27.0705 42.3766 26.8678 42.7016 26.6787C42.8962 26.5714 43.0791 26.4662 43.2698 26.3667C43.687 26.1181 44.1178 25.8929 44.5599 25.6922C44.7331 25.6006 44.9102 25.5109 45.0892 25.4271C45.3111 25.3237 45.5349 25.2321 45.7664 25.1444C45.8365 25.1151 45.9085 25.0839 45.9824 25.0566C45.458 25.2051 44.9433 25.3861 44.4412 25.5986" fill="#F88D62"/><path d="M65.0485 50.2621C64.9817 50.1528 64.9062 50.0492 64.8228 49.9521C64.7378 49.8524 64.6462 49.7586 64.5484 49.6714C64.5071 49.6348 64.4636 49.601 64.418 49.57C64.3612 49.5289 64.3021 49.4912 64.241 49.4569C64.1237 49.3902 63.999 49.3379 63.8693 49.301C63.7511 49.2665 63.6285 49.2495 63.5054 49.2503H63.4782C63.4123 49.2532 63.347 49.2636 63.2836 49.2815C63.2516 49.2908 63.2209 49.3038 63.1921 49.3205C63.1921 49.3205 63.1765 49.3341 63.1668 49.3399C63.1239 49.3467 63.0845 49.3677 63.0549 49.3995C63.0253 49.4313 63.0072 49.4721 63.0033 49.5154C62.9917 49.6343 62.9761 49.7533 62.9527 49.8702C62.8912 50.144 62.7965 50.4091 62.6706 50.6598C62.5145 50.9566 62.3223 51.2329 62.0985 51.4825C61.9062 51.6938 61.6886 51.8804 61.4505 52.0381C61.2781 52.1493 61.0924 52.2384 60.8978 52.3032C60.8005 52.3336 60.7009 52.3564 60.6001 52.3715C60.5937 52.3724 60.5876 52.3746 60.5822 52.378C60.5767 52.3814 60.572 52.3859 60.5683 52.3912C60.5647 52.3965 60.5621 52.4025 60.5609 52.4089C60.5597 52.4152 60.5598 52.4217 60.5612 52.428C60.5621 52.4344 60.5643 52.4405 60.5677 52.446C60.5711 52.4515 60.5756 52.4562 60.5809 52.4599C60.5862 52.4635 60.5922 52.4661 60.5985 52.4673C60.6048 52.4685 60.6113 52.4684 60.6176 52.467C61.3155 52.3392 61.9521 51.985 62.4293 51.4591C62.6788 51.194 62.8903 50.8954 63.0578 50.5721C63.2103 50.2837 63.3167 49.9732 63.3731 49.6519H63.4062C63.4645 49.6519 63.521 49.6519 63.5774 49.6519C63.6338 49.6519 63.7409 49.6714 63.8206 49.687C63.8991 49.7049 63.9765 49.7277 64.0522 49.7552C64.2307 49.823 64.4011 49.9106 64.5601 50.0164C64.6791 50.102 64.7882 50.2007 64.8851 50.3108C64.9709 50.4117 65.0447 50.5223 65.105 50.6403C65.15 50.7297 65.1828 50.8248 65.2023 50.923C65.2071 50.9368 65.2172 50.9481 65.2302 50.9547C65.2433 50.9612 65.2584 50.9624 65.2723 50.9581C65.2858 50.9528 65.2968 50.9427 65.3033 50.9297C65.3098 50.9168 65.3112 50.9018 65.3073 50.8879C65.2579 50.6658 65.1703 50.4541 65.0485 50.2621Z" fill="#F5AA89"/><path d="M42.6317 44.5735C42.5566 44.5812 42.4819 44.5929 42.408 44.6085C42.3308 44.6273 42.2558 44.6541 42.1842 44.6885C42.065 44.7479 41.9549 44.8241 41.8572 44.9146C41.7503 45.0144 41.6603 45.131 41.5907 45.2597C41.5842 45.2716 41.5827 45.2856 41.5866 45.2985C41.5904 45.3115 41.5992 45.3224 41.6111 45.3289C41.623 45.3354 41.6369 45.3368 41.6499 45.333C41.6628 45.3292 41.6737 45.3203 41.6802 45.3084C41.6977 45.2792 41.7133 45.2519 41.7327 45.2246C41.7713 45.1772 41.8136 45.1328 41.8592 45.092C41.9078 45.0524 41.9607 45.0184 42.0168 44.9907C42.096 44.9563 42.1789 44.9314 42.2639 44.9166C42.3923 44.8932 42.5231 44.8866 42.6531 44.8971C42.7669 44.9133 42.8785 44.9421 42.9859 44.9829C43.1319 45.0389 43.2709 45.1115 43.4004 45.1993C43.5797 45.3318 43.7441 45.4835 43.8908 45.6516C43.9394 45.7139 43.9861 45.7783 44.0289 45.8465C44.079 45.9274 44.1377 46.0026 44.2041 46.0707C44.2248 46.0894 44.2501 46.1024 44.2773 46.1086C44.3046 46.1147 44.333 46.1138 44.3597 46.1058C44.3861 46.0971 44.4098 46.0818 44.4285 46.0614C44.4473 46.0409 44.4604 46.0159 44.4668 45.9888C44.5063 45.7812 44.463 45.5663 44.3461 45.3903C44.3012 45.3092 44.2484 45.2328 44.1885 45.1622C44.1211 45.0794 44.0469 45.0025 43.9666 44.9322C43.8466 44.8283 43.7097 44.7459 43.5619 44.6885C43.4841 44.6592 43.4043 44.628 43.3245 44.6066C43.2477 44.5878 43.1697 44.5747 43.091 44.5676C43.0287 44.5676 42.9684 44.5579 42.9081 44.5579C42.817 44.5589 42.7261 44.5647 42.6356 44.5754" fill="#FDB08C"/><path d="M38.9632 52.2801H38.8756C38.6551 52.3084 38.4462 52.3952 38.2704 52.5316C38.0834 52.6721 37.9181 52.8397 37.78 53.0287C37.6338 53.2284 37.5074 53.4419 37.4025 53.6662C37.213 54.0664 37.0907 54.4952 37.0406 54.9353H37.023C36.7837 54.9139 36.521 54.9022 36.2447 54.9022C35.8652 54.9022 35.476 54.9237 35.0868 54.9626C34.7813 54.9938 34.4369 55.0426 34.0672 55.1128H34.0399C34.0363 55.2224 34.0441 55.3322 34.0633 55.4403C34.1186 55.7971 34.194 56.1505 34.289 56.4989C34.4156 56.9578 34.5723 57.4078 34.758 57.846C34.934 58.2695 35.1361 58.6817 35.3632 59.0801C35.518 59.3509 35.6903 59.6114 35.8788 59.8599C36.0545 60.0874 36.2436 60.3042 36.4451 60.5091C36.6882 60.751 36.9484 60.9751 37.2235 61.1797L37.2585 61.2031L37.2916 61.2285C37.5489 61.0485 37.7952 60.8532 38.0291 60.6436C38.4774 60.233 38.9017 59.7969 39.2998 59.3374C39.5936 59.0021 39.8836 58.6414 40.1541 58.3236L40.2397 58.2203L40.2942 58.154L40.3136 58.1306L40.3311 58.1092L40.4751 57.9318C40.8527 57.4698 41.2224 57.0214 41.6135 56.5944C41.6135 56.5944 41.631 56.5788 41.631 56.5769L41.7089 56.4969L41.7673 56.4365L41.8081 56.3917C41.9521 56.2415 42.1039 56.0817 42.2382 55.9199C42.3441 55.7913 42.4385 55.6537 42.5203 55.5085C42.561 55.4418 42.5937 55.3704 42.6176 55.296C42.6429 55.2283 42.6586 55.1575 42.6643 55.0855C42.6684 55.0064 42.6558 54.9273 42.6274 54.8535C42.6029 54.7908 42.5651 54.7342 42.5164 54.6878C42.4431 54.6154 42.3537 54.5613 42.2557 54.5298C42.1931 54.5077 42.1274 54.4958 42.0611 54.4948H42.0008C42.0098 54.4899 42.0178 54.4833 42.0241 54.4753C42.068 54.424 42.1035 54.3661 42.1292 54.3037C42.1819 54.2004 42.2016 54.0833 42.1856 53.9684C42.1676 53.8592 42.1118 53.7598 42.028 53.6876C41.9747 53.6411 41.9124 53.606 41.8451 53.5843C41.8037 53.5709 41.7615 53.5605 41.7186 53.5531C41.6741 53.547 41.6293 53.5437 41.5843 53.5434C41.55 53.5414 41.5156 53.5414 41.4812 53.5434C41.4352 53.5474 41.3897 53.5552 41.345 53.5668C41.2928 53.5762 41.2423 53.5933 41.1951 53.6175C41.2055 53.6081 41.2141 53.5968 41.2204 53.5843C41.2624 53.5163 41.2908 53.4409 41.3041 53.3621C41.3137 53.3066 41.3137 53.2499 41.3041 53.1944C41.292 53.1354 41.2689 53.0792 41.236 53.0287C41.179 52.9375 41.0924 52.8687 40.9908 52.8337C40.8917 52.8007 40.7878 52.7842 40.6834 52.785C40.6393 52.7822 40.5951 52.7822 40.551 52.785C40.4294 52.7978 40.3094 52.8232 40.193 52.861C40.0036 52.9191 39.8238 53.0052 39.6598 53.1164L39.6734 53.0989C39.6848 53.0344 39.6848 52.9684 39.6734 52.9039C39.6553 52.7162 39.5662 52.5425 39.4243 52.4185C39.3586 52.3662 39.2842 52.3259 39.2044 52.2996C39.1586 52.2824 39.1109 52.2706 39.0624 52.2645C39.0313 52.2624 39.0001 52.2624 38.969 52.2645" fill="#FDB08C"/><path d="M38.9165 52.2117C38.8287 52.2135 38.7413 52.2246 38.6558 52.2448C38.5549 52.2688 38.4575 52.3055 38.3658 52.354C38.2707 52.4017 38.1795 52.4571 38.0934 52.5197C37.9315 52.6352 37.7862 52.7723 37.6614 52.9272C37.5952 53.011 37.5368 53.1026 37.4804 53.1903C37.424 53.2781 37.3675 53.3853 37.2975 53.5159C37.2469 53.6153 37.1982 53.7109 37.1554 53.8259C37.1126 53.9409 37.0698 54.0501 37.0289 54.1827C36.9914 54.302 36.9622 54.4238 36.9414 54.5472C36.9332 54.6034 36.928 54.6601 36.9258 54.7168C36.9258 54.748 36.9258 54.7773 36.9258 54.8085L36.8129 54.7948C36.5814 54.7753 36.3459 54.7558 36.1124 54.7539C35.9558 54.7535 35.7992 54.7613 35.6434 54.7773C35.5602 54.788 35.4777 54.8037 35.3963 54.8241C35.3147 54.8468 35.2352 54.8768 35.1589 54.9137C35.14 54.9213 35.1228 54.9325 35.1083 54.9469C35.0907 54.9706 35.0812 54.9992 35.0811 55.0288C35.0823 55.0438 35.0866 55.0585 35.0936 55.0719C35.1006 55.0853 35.1103 55.0971 35.1219 55.1067C35.1412 55.1243 35.166 55.1346 35.192 55.136L35.2854 55.1223L35.3496 55.1106L35.4138 55.1009L35.5578 55.0755L35.6279 55.0619H35.6629C35.8168 55.0345 35.972 55.0157 36.128 55.0054C36.2603 55.0054 36.3965 54.9937 36.5444 54.9937C36.6923 54.9937 36.883 54.9937 37.062 55.0112C37.0835 55.0097 37.1038 55.001 37.1197 54.9865C37.1356 54.972 37.1461 54.9525 37.1496 54.9313C37.1507 54.9216 37.1507 54.9117 37.1496 54.902C37.1555 54.8918 37.1595 54.8806 37.1613 54.8689C37.1728 54.8356 37.1825 54.8018 37.1905 54.7675V54.7402C37.2119 54.6642 37.2274 54.5862 37.243 54.5082C37.2777 54.3455 37.3212 54.1847 37.3734 54.0267C37.4212 53.8833 37.4771 53.7427 37.5407 53.6056C37.6075 53.4646 37.6829 53.3279 37.7665 53.1962C37.8676 53.0442 37.9872 52.9053 38.1226 52.7829C38.1786 52.7312 38.2377 52.683 38.2996 52.6386C38.3677 52.5926 38.4385 52.551 38.5117 52.5138C38.613 52.4634 38.7202 52.426 38.8309 52.4027C38.885 52.3944 38.9396 52.3898 38.9943 52.3891H39.0157C39.0886 52.3943 39.1605 52.4087 39.2298 52.432C39.2728 52.4504 39.3144 52.4719 39.3543 52.4963C39.4009 52.5302 39.444 52.5687 39.4828 52.6113C39.5127 52.6489 39.5387 52.6894 39.5606 52.7322C39.5795 52.7738 39.5951 52.8168 39.6073 52.8609C39.6112 52.9017 39.6112 52.9428 39.6073 52.9837C39.6047 53.0164 39.6001 53.049 39.5937 53.0812C39.5888 53.093 39.5888 53.1063 39.5937 53.1182C39.5337 53.1523 39.4776 53.1928 39.4263 53.2391C39.4212 53.2437 39.4171 53.2494 39.4144 53.2558C39.4117 53.2622 39.4105 53.2692 39.4108 53.2761C39.4103 53.2846 39.4118 53.2931 39.4152 53.3008C39.4186 53.3086 39.4237 53.3155 39.4302 53.321C39.44 53.3309 39.4533 53.3365 39.4672 53.3366C39.4838 53.3363 39.4997 53.3301 39.512 53.319C39.5164 53.3124 39.5224 53.307 39.5295 53.3034C39.6277 53.2249 39.7356 53.1594 39.8506 53.1085C40.0373 53.0246 40.2332 52.963 40.4343 52.9252C40.5225 52.9105 40.6116 52.9027 40.7009 52.9018C40.732 52.8999 40.7632 52.8999 40.7943 52.9018C40.8467 52.906 40.8983 52.9164 40.9481 52.933C40.9823 52.9453 41.015 52.9617 41.0454 52.9817C41.0643 52.9964 41.0818 53.0127 41.0979 53.0305C41.1114 53.0481 41.1231 53.0671 41.1329 53.087C41.1434 53.1135 41.1512 53.1409 41.1563 53.1689C41.1602 53.213 41.1602 53.2574 41.1563 53.3015C41.1608 53.3817 41.1556 53.4623 41.1407 53.5413C41.1284 53.574 41.1142 53.6059 41.0979 53.6368C40.9957 53.6874 40.898 53.7468 40.806 53.8142C40.8004 53.8178 40.7955 53.8224 40.7917 53.8279C40.7878 53.8333 40.7851 53.8395 40.7837 53.846C40.7822 53.8526 40.7821 53.8593 40.7832 53.8659C40.7844 53.8725 40.7869 53.8787 40.7905 53.8844C40.7949 53.8917 40.8012 53.8977 40.8087 53.9018C40.8162 53.9059 40.8247 53.908 40.8333 53.9078C40.8421 53.9106 40.8516 53.9106 40.8605 53.9078C40.9494 53.8434 41.043 53.7861 41.1407 53.7362H41.1543C41.1637 53.7373 41.1732 53.7361 41.182 53.7327C41.1908 53.7293 41.1987 53.7238 41.2049 53.7167L41.2166 53.6992L41.3178 53.6602C41.3702 53.6429 41.4234 53.6286 41.4774 53.6173H41.5824H41.6097H41.6797C41.72 53.6223 41.7597 53.6308 41.7984 53.6426C41.8406 53.6595 41.881 53.6804 41.9191 53.705C41.9543 53.7311 41.9868 53.7604 42.0164 53.7927C42.0339 53.8181 42.0514 53.8434 42.067 53.8707C42.0678 53.8785 42.0678 53.8863 42.067 53.8941C42.0759 53.9174 42.0824 53.9416 42.0864 53.9663C42.0893 53.9967 42.0893 54.0274 42.0864 54.0579C42.0807 54.103 42.0703 54.1475 42.0553 54.1905C42.0315 54.2503 42.0008 54.3073 41.9639 54.3601L41.9308 54.401L41.8841 54.4517C41.8744 54.4618 41.8682 54.4748 41.8666 54.4887C41.7674 54.5052 41.6715 54.5374 41.5824 54.5843C41.5766 54.5876 41.5715 54.592 41.5675 54.5974C41.5635 54.6028 41.5606 54.6089 41.5591 54.6155C41.5557 54.6231 41.554 54.6314 41.554 54.6398C41.554 54.6482 41.5557 54.6565 41.5591 54.6642C41.5641 54.6721 41.571 54.6785 41.5792 54.683C41.5873 54.6874 41.5965 54.6897 41.6058 54.6895C41.6161 54.6913 41.6266 54.6913 41.6369 54.6895L41.6817 54.6661C41.7505 54.6374 41.8223 54.6165 41.8957 54.6038C41.9388 54.5966 41.9825 54.5934 42.0261 54.594C42.052 54.5921 42.078 54.5921 42.104 54.594C42.1562 54.6007 42.2077 54.6124 42.2577 54.6291C42.3019 54.6462 42.3443 54.6678 42.3842 54.6934C42.4174 54.719 42.448 54.7477 42.4756 54.7792C42.5 54.8075 42.5203 54.839 42.536 54.8728C42.5533 54.9141 42.5657 54.9573 42.5729 55.0015C42.576 55.0404 42.576 55.0795 42.5729 55.1184C42.565 55.1714 42.5527 55.2235 42.536 55.2744C42.4627 55.4608 42.3659 55.637 42.248 55.7988C42.1322 55.9614 42.0054 56.1158 41.8685 56.2609C41.7272 56.4126 41.5764 56.5552 41.417 56.6878L41.3956 56.7073C41.3392 56.7521 41.2847 56.7989 41.2283 56.8399C41.2127 56.8504 41.2016 56.8664 41.1972 56.8847C41.1934 56.9035 41.1969 56.923 41.2069 56.9393C41.2118 56.9473 41.2183 56.9542 41.226 56.9596C41.2337 56.9649 41.2424 56.9687 41.2516 56.9705C41.2626 56.9712 41.2736 56.9696 41.284 56.9659C41.2943 56.9622 41.3039 56.9565 41.312 56.949L41.3956 56.8711L41.4813 56.7911L41.5494 56.7249L41.6856 56.5923C41.8315 56.448 41.9638 56.3115 42.0864 56.1731C42.2114 56.0357 42.3259 55.8891 42.4289 55.7345C42.5296 55.5899 42.6046 55.4289 42.6508 55.2588C42.6672 55.1905 42.6744 55.1204 42.6722 55.0502C42.6689 54.9835 42.6551 54.9177 42.6313 54.8552C42.6065 54.7978 42.5731 54.7445 42.5321 54.6973C42.4888 54.6501 42.439 54.6094 42.3842 54.5765C42.3319 54.5479 42.2763 54.5256 42.2188 54.5102C42.1555 54.4918 42.0901 54.482 42.0242 54.4809C42.0392 54.4679 42.0523 54.4528 42.0631 54.4361C42.0975 54.3886 42.1269 54.3377 42.1507 54.284C42.1886 54.2009 42.2072 54.1103 42.2051 54.0189C42.202 53.9794 42.1955 53.9403 42.1857 53.9019C42.1704 53.8541 42.1481 53.8087 42.1195 53.7674C42.0943 53.7304 42.0642 53.697 42.03 53.668C41.9905 53.6304 41.9452 53.5994 41.8957 53.5763C41.8583 53.5577 41.8192 53.5427 41.779 53.5315C41.73 53.5189 41.6797 53.5117 41.6292 53.5101H41.5922C41.5065 53.5112 41.4213 53.5243 41.3392 53.5491L41.2653 53.5705C41.2788 53.5438 41.2893 53.5157 41.2964 53.4867C41.3143 53.4192 41.3241 53.3498 41.3256 53.28C41.331 53.1759 41.303 53.0727 41.2458 52.9856C41.1877 52.911 41.1123 52.8516 41.0262 52.8125C40.9401 52.7735 40.8459 52.7559 40.7515 52.7614H40.7204C40.601 52.7651 40.4822 52.7814 40.3662 52.8102C40.2377 52.8398 40.1115 52.8789 39.9887 52.9272C39.8949 52.9634 39.8033 53.0051 39.7143 53.0519C39.7271 52.983 39.7271 52.9123 39.7143 52.8433C39.7011 52.7523 39.67 52.6649 39.6229 52.586C39.5769 52.512 39.519 52.4461 39.4516 52.391C39.3777 52.3308 39.2923 52.2864 39.2006 52.2604C39.1559 52.2468 39.1111 52.2351 39.0644 52.2253C39.0177 52.2156 38.9807 52.2253 38.9399 52.2156H38.9009" fill="#F49F7C"/><path d="M49.6664 54.0618H49.6138C48.5915 54.0739 47.5776 54.2476 46.6093 54.5764C45.658 54.8968 44.7444 55.3204 43.885 55.8397C43.2153 56.2394 42.5719 56.6815 41.9585 57.1635C41.0557 56.876 40.1236 56.6903 39.1797 56.6098C38.8236 56.5806 38.4792 56.565 38.1522 56.565C37.4954 56.565 36.8398 56.6217 36.1927 56.7346C36.0991 56.3033 35.934 55.8907 35.7042 55.5142C35.5788 55.3051 35.4328 55.1092 35.2684 54.9293C35.1086 54.7524 34.9237 54.6 34.7196 54.477C34.5346 54.3574 34.3208 54.29 34.1008 54.2821H34.0774C33.893 54.2854 33.7168 54.3593 33.5851 54.4887C33.4588 54.6247 33.3891 54.8039 33.3905 54.9897C33.3913 55.0619 33.3998 55.1338 33.4158 55.2042C33.2411 55.1117 33.0535 55.046 32.8593 55.0092C32.7409 54.9843 32.6203 54.9712 32.4993 54.9702C32.352 54.967 32.2059 54.9963 32.0712 55.056C31.9787 55.0954 31.9015 55.1638 31.8513 55.251C31.8246 55.3033 31.8081 55.3602 31.8026 55.4186C31.7988 55.474 31.8054 55.5295 31.8221 55.5824C31.8501 55.6787 31.8963 55.7688 31.9583 55.8475C31.9045 55.8245 31.8473 55.81 31.789 55.8046C31.7443 55.8017 31.6995 55.8017 31.6547 55.8046C31.5753 55.8045 31.4962 55.8143 31.4193 55.8339C31.3104 55.8596 31.2108 55.9149 31.1313 55.9937C31.0576 56.072 31.013 56.1731 31.0048 56.2803C31.0032 56.3945 31.0343 56.5068 31.0943 56.604C31.138 56.6751 31.1903 56.7406 31.25 56.7989C31.2406 56.7951 31.2302 56.7951 31.2208 56.7989H31.1858C31.013 56.8173 30.8541 56.9018 30.7421 57.0348C30.6993 57.0852 30.668 57.1444 30.6506 57.2083C30.6283 57.2835 30.6224 57.3626 30.6331 57.4403C30.6471 57.5078 30.6693 57.5732 30.6993 57.6353C30.7319 57.7042 30.7717 57.7696 30.818 57.8302C30.9136 57.965 31.0211 58.0909 31.1391 58.2065C31.2909 58.3566 31.4543 58.497 31.6139 58.6315L31.8085 58.8011C31.8085 58.8011 31.824 58.8128 31.8279 58.8128C32.2483 59.1871 32.6511 59.5926 33.0947 60.0254L33.2563 60.1872C33.6338 60.5615 34.0191 60.9436 34.4083 61.3062C34.8517 61.7221 35.3182 62.1126 35.8054 62.476C36.2051 62.767 36.6259 63.0277 37.0645 63.2558C37.8898 63.6805 38.7616 64.0076 39.6623 64.2305C40.5974 64.4642 41.554 64.6014 42.517 64.6399C42.7116 64.6399 42.9256 64.6536 43.1319 64.6536C43.9 64.65 44.6665 64.5848 45.4242 64.4586C46.3685 64.3076 47.2928 64.0506 48.1797 63.6925C49.4154 63.2088 50.5378 62.474 51.4761 61.5343C51.4945 61.516 51.5091 61.4941 51.5189 61.47C51.7952 61.3608 52.0891 61.2594 52.3926 61.1561C53.6186 60.735 54.8873 60.3003 55.3933 59.0331C55.5699 58.5955 55.6152 58.1158 55.5237 57.6528C55.4251 57.203 55.2255 56.7816 54.9399 56.4207C54.6517 56.0455 54.3116 55.7133 53.9299 55.4342C53.5493 55.1515 53.1397 54.9103 52.7079 54.7148C51.7501 54.2814 50.7115 54.0561 49.6605 54.054" fill="#FFBD95"/><path d="M31.1271 55.9939C31.0529 56.0734 31.0083 56.1759 31.0006 56.2844C30.9985 56.3996 31.0303 56.5129 31.0921 56.61C31.1315 56.6809 31.1799 56.7464 31.2361 56.805H31.2205H31.1855C31.0119 56.8253 30.8522 56.9102 30.7379 57.0428C30.6964 57.0945 30.6659 57.1542 30.6484 57.2183C30.6274 57.2904 30.6221 57.3662 30.6329 57.4405C30.647 57.5082 30.6699 57.5737 30.701 57.6355C30.7329 57.7044 30.772 57.7698 30.8177 57.8304C30.9133 57.9658 31.0207 58.0924 31.1388 58.2086C31.2867 58.3568 31.4463 58.4913 31.598 58.6239L31.6136 58.6356L31.6467 58.6629L31.6739 58.6863C31.7226 58.7272 31.7673 58.7642 31.8102 58.8032C31.8238 58.813 31.8296 58.8188 31.8335 58.8188C32.2597 59.199 32.6742 59.5986 33.0964 60.0295L33.2599 60.1913L33.3299 60.2595C33.6841 60.6105 34.048 60.9711 34.4099 61.3084C34.8533 61.7251 35.3205 62.1157 35.8091 62.4781C36.2085 62.7696 36.6293 63.0302 37.0681 63.2579C37.8929 63.6837 38.7648 64.0109 39.6659 64.2327C40.6016 64.4719 41.5596 64.6131 42.5245 64.6538C42.7191 64.6635 42.9312 64.6674 43.1394 64.6674C43.9065 64.6664 44.6723 64.6051 45.4298 64.4842C46.3752 64.3317 47.3007 64.074 48.1891 63.7161C49.2476 63.2901 50.2246 62.684 51.0769 61.9244L50.929 62.0278C50.7558 62.1447 50.5807 62.2598 50.3997 62.367C50.2188 62.4742 50.0572 62.5619 49.8821 62.6555C49.177 63.0159 48.4335 63.2951 47.6657 63.488C47.0948 63.6349 46.514 63.7404 45.928 63.8038C45.3562 63.8674 44.781 63.8941 44.2058 63.8837C43.0609 63.8644 41.9219 63.7159 40.8101 63.4412C39.7225 63.1714 38.6688 62.779 37.6694 62.2715C37.1612 62.0156 36.6674 61.7318 36.1905 61.4215C35.9472 61.2635 35.7098 61.1017 35.4763 60.9321C35.2428 60.7625 35.0093 60.5832 34.7816 60.3999C34.3126 60.0256 33.8456 59.6513 33.3941 59.2536C33.1626 59.0586 32.9349 58.8403 32.717 58.6239C32.499 58.4075 32.2966 58.1911 32.104 57.9591C32.04 57.8845 31.9803 57.8064 31.925 57.7251C31.8839 57.6626 31.8469 57.5975 31.814 57.5302C31.7796 57.4587 31.7516 57.3844 31.7304 57.3079C31.7114 57.2446 31.7009 57.1791 31.6992 57.113C31.6966 57.0513 31.7086 56.9898 31.7343 56.9336C31.7559 56.885 31.7919 56.8442 31.8374 56.8166C31.8967 56.7824 31.9636 56.7637 32.032 56.7621C31.9795 56.7328 31.9308 56.7036 31.8822 56.6704C31.8047 56.6223 31.7305 56.5689 31.6603 56.5106C31.6004 56.4632 31.5445 56.411 31.493 56.3546C31.4371 56.2949 31.3876 56.2295 31.3451 56.1597C31.3084 56.0986 31.2796 56.0331 31.2595 55.9647C31.2595 55.9394 31.2478 55.914 31.2439 55.8867C31.1976 55.9127 31.155 55.9448 31.1174 55.9822" fill="#FDB08C"/><path d="M49.314 54.0344C48.8647 54.035 48.416 54.0676 47.9713 54.1319C46.8902 54.2997 45.843 54.64 44.8694 55.1398C44.35 55.4042 43.8471 55.6997 43.3633 56.0249C43.1356 56.1789 42.906 56.3407 42.6647 56.522C42.5577 56.602 42.4526 56.6838 42.3494 56.7657C42.2463 56.8476 42.1237 56.9451 42.007 57.0309C41.5768 56.8494 41.1296 56.7116 40.672 56.6195C40.1704 56.5136 39.6619 56.4432 39.1503 56.409C38.9304 56.3934 38.7027 56.3856 38.4751 56.3856C38.191 56.3856 37.903 56.3992 37.6189 56.4226C37.1654 56.4638 36.7162 56.5434 36.2762 56.6605C36.2205 56.4339 36.1449 56.2128 36.0504 55.9996C35.9511 55.7731 35.8299 55.557 35.6885 55.3543C35.5494 55.1535 35.3896 54.9679 35.2117 54.8006C35.1228 54.7167 35.0293 54.638 34.9315 54.5647C34.8441 54.498 34.7517 54.438 34.6552 54.3853C34.575 54.345 34.4917 54.3111 34.4061 54.284C34.3189 54.2566 34.2288 54.2396 34.1376 54.2333C34.1143 54.2313 34.0908 54.2313 34.0675 54.2333C34.0134 54.2329 33.9593 54.2375 33.906 54.2469C33.828 54.2587 33.7524 54.283 33.6822 54.3191C33.6196 54.3506 33.563 54.3928 33.5149 54.4438C33.4613 54.5006 33.4185 54.5667 33.3884 54.6388C33.359 54.715 33.3406 54.7951 33.3339 54.8766C33.3228 54.964 33.3228 55.0524 33.3339 55.1398C33.1854 55.074 33.031 55.0224 32.8727 54.9858C32.7646 54.9591 32.6547 54.9402 32.5438 54.9293C32.4971 54.9293 32.4504 54.9293 32.4037 54.9293C32.3465 54.9292 32.2892 54.9331 32.2325 54.941C32.1455 54.9535 32.0609 54.9792 31.9815 55.017C31.9021 55.0587 31.835 55.1206 31.7869 55.1963C31.7618 55.2364 31.7421 55.2797 31.7285 55.325C31.7144 55.3758 31.7065 55.4282 31.7051 55.481C31.703 55.5411 31.7075 55.6013 31.7188 55.6603H31.6896C31.6467 55.6514 31.603 55.6468 31.5592 55.6467C31.5161 55.6467 31.4731 55.6506 31.4308 55.6584C31.3538 55.6745 31.2809 55.7064 31.2167 55.752C31.1511 55.7971 31.0944 55.8539 31.0494 55.9196C31.0044 55.9833 30.9715 56.0547 30.9521 56.1302C30.9314 56.2083 30.9242 56.2894 30.9307 56.37C30.9366 56.4574 30.9576 56.5432 30.9929 56.6234C31.0106 56.6659 31.0314 56.7069 31.0552 56.7462C31.0372 56.7432 31.0188 56.7432 31.0007 56.7462C30.9295 56.7411 30.858 56.7511 30.7909 56.7756C30.7238 56.8002 30.6627 56.8387 30.6115 56.8885C30.586 56.9185 30.5663 56.9528 30.5531 56.9899C30.5359 57.0428 30.5274 57.0981 30.5279 57.1537C30.5318 57.25 30.5543 57.3447 30.594 57.4325C30.6406 57.5471 30.6973 57.6573 30.7633 57.7619C30.8256 57.8653 30.9015 57.9764 31.0007 58.1109C31.17 58.339 31.3646 58.5749 31.6137 58.8517C31.8628 59.1286 32.0943 59.3703 32.4076 59.6881L32.6956 59.9727L32.7443 60.0195L32.8571 60.1326L32.9253 60.2047C33.0751 60.3646 33.2269 60.5244 33.3806 60.6804C33.5888 60.8909 33.7795 61.0703 33.9644 61.2497C34.3536 61.622 34.7622 61.9671 35.1572 62.2732C35.9564 62.9012 36.8264 63.4331 37.7492 63.8581C38.691 64.281 39.6852 64.5754 40.7051 64.7335C41.2508 64.8177 41.8014 64.8665 42.3533 64.8797C42.4896 64.8797 42.6238 64.8797 42.76 64.8797C43.2154 64.8797 43.6863 64.8563 44.1611 64.8134C44.7612 64.7536 45.3567 64.654 45.9436 64.5151C46.5284 64.3796 47.1032 64.2037 47.6638 63.9888C48.2201 63.7778 48.7611 63.5283 49.2828 63.2421C49.8087 62.9498 50.3121 62.6188 50.789 62.2517C50.8279 62.2225 50.8668 62.1932 50.9038 62.162C50.9128 62.1561 50.9194 62.1472 50.9226 62.1369C50.9258 62.1266 50.9253 62.1155 50.9213 62.1055C50.9184 62.0947 50.9121 62.085 50.9034 62.078C50.8946 62.071 50.8839 62.067 50.8727 62.0665C50.8613 62.0669 50.8504 62.071 50.8415 62.0782C50.4409 62.3873 50.0167 62.6643 49.5728 62.9068C49.1359 63.1459 48.6849 63.3581 48.2223 63.5423C47.7484 63.728 47.2628 63.8823 46.7687 64.0044C45.5709 64.2988 44.3416 64.4448 43.1084 64.4391H42.7814L42.8087 64.4489C42.2227 64.431 41.638 64.3816 41.0573 64.3007C40.526 64.2241 40.0007 64.1108 39.485 63.9615C38.9903 63.8141 38.506 63.6337 38.0353 63.4214C37.5756 63.2126 37.1291 62.9756 36.6984 62.7118C35.8275 62.1626 35.0099 61.5327 34.2563 60.8305C34.0578 60.646 33.8632 60.4588 33.6725 60.269L33.4507 60.0468L33.3942 59.9922C33.3183 59.9142 33.2424 59.8362 33.1646 59.7602C33.0868 59.6842 32.97 59.5653 32.8688 59.4814L32.8007 59.4171L32.756 59.3781C32.5867 59.2221 32.4193 59.0662 32.2539 58.9083C32.0107 58.6685 31.8141 58.4696 31.637 58.2825C31.4872 58.1265 31.3568 57.9764 31.2342 57.8263C31.1151 57.6845 31.0077 57.5332 30.9132 57.374C30.8793 57.312 30.852 57.2466 30.8314 57.179C30.8314 57.1576 30.8314 57.1342 30.8314 57.1108V57.0816L30.8431 57.064L30.8664 57.0426C30.8871 57.0327 30.9086 57.0249 30.9307 57.0192C30.9914 57.0065 31.0534 57.0006 31.1155 57.0016H31.2342C31.2657 57.0047 31.2971 56.9961 31.3226 56.9774C31.3481 56.9587 31.3658 56.9312 31.3724 56.9002C31.3744 56.8799 31.3716 56.8595 31.3641 56.8405C31.3567 56.8215 31.3448 56.8046 31.3296 56.7911C31.3298 56.7774 31.3274 56.7638 31.3224 56.7511C31.3174 56.7384 31.3099 56.7268 31.3004 56.717L31.2809 56.6975L31.2673 56.676C31.2391 56.6319 31.2144 56.5856 31.1934 56.5376C31.1785 56.4952 31.1674 56.4515 31.1603 56.407C31.1564 56.3623 31.1564 56.3172 31.1603 56.2725C31.1671 56.2272 31.1788 56.1827 31.1953 56.1399C31.2135 56.1017 31.235 56.0652 31.2595 56.0308C31.2831 56.003 31.3091 55.9776 31.3374 55.9547C31.3674 55.9336 31.3993 55.9153 31.4327 55.9001C31.4713 55.8871 31.5111 55.878 31.5514 55.8728C31.5708 55.8708 31.5904 55.8708 31.6098 55.8728C31.6312 55.871 31.6526 55.871 31.674 55.8728C31.7135 55.8785 31.7525 55.887 31.7908 55.8982C31.7992 55.9153 31.8122 55.9296 31.8284 55.9396C31.8446 55.9496 31.8632 55.9549 31.8822 55.9547C31.8906 55.9565 31.8992 55.9565 31.9075 55.9547C31.9297 55.9485 31.9494 55.9356 31.964 55.9177C31.9732 55.9113 31.9806 55.9025 31.9854 55.8923C31.9946 55.8756 31.9982 55.8564 31.9958 55.8375C31.9933 55.8185 31.9849 55.8009 31.9717 55.7871C31.952 55.7232 31.9364 55.658 31.925 55.5921C31.9202 55.5435 31.9202 55.4945 31.925 55.4459C31.931 55.4136 31.9388 55.3817 31.9484 55.3504C31.96 55.3248 31.9744 55.3007 31.9912 55.2782C32.0074 55.2588 32.0257 55.2411 32.0457 55.2256C32.0778 55.2029 32.1124 55.1839 32.1488 55.1691C32.215 55.146 32.2835 55.1303 32.3531 55.1223C32.394 55.1223 32.4407 55.1223 32.4894 55.1223C32.5674 55.1231 32.6454 55.1283 32.7229 55.1379C32.9366 55.1665 33.1458 55.2222 33.3456 55.3036L33.3825 55.3192H33.402C33.4133 55.3232 33.4257 55.3232 33.437 55.3192C33.448 55.3186 33.4586 55.3156 33.4683 55.3105C33.478 55.3053 33.4864 55.2982 33.4931 55.2895C33.4997 55.2808 33.5044 55.2707 33.5069 55.26C33.5093 55.2494 33.5093 55.2383 33.5071 55.2275L33.4896 55.1242C33.4809 55.0432 33.4809 54.9615 33.4896 54.8805C33.4972 54.8261 33.5103 54.7725 33.5285 54.7207C33.5463 54.681 33.5678 54.6432 33.5927 54.6076C33.6177 54.5745 33.6464 54.5444 33.6783 54.5179C33.7125 54.4936 33.749 54.4727 33.7873 54.4555C33.8398 54.4342 33.8947 54.4192 33.9508 54.4107H33.941H34.0636C34.1012 54.4087 34.1389 54.4087 34.1765 54.4107C34.2747 54.4246 34.3713 54.4487 34.4645 54.4828C34.5309 54.5093 34.5958 54.5392 34.6591 54.5725C34.732 54.6141 34.8022 54.6603 34.8692 54.7109C35.0881 54.88 35.2843 55.0765 35.453 55.2958C35.547 55.4201 35.6328 55.5503 35.7099 55.6857C35.7869 55.8209 35.8551 55.9609 35.9142 56.1048C35.9609 56.2179 35.9998 56.3232 36.031 56.4265C36.0621 56.5298 36.101 56.6566 36.1341 56.7735C36.1393 56.7927 36.1507 56.8097 36.1666 56.8217C36.1824 56.8337 36.2018 56.8401 36.2217 56.8398H36.2431C36.5401 56.7616 36.8426 56.7062 37.1479 56.6741C37.4665 56.6389 37.7868 56.6213 38.1073 56.6215C38.9927 56.6238 39.8739 56.7425 40.7285 56.9743L40.711 56.9646C41.1289 57.0848 41.5385 57.2326 41.9369 57.4071C41.9576 57.4167 41.9803 57.4213 42.0031 57.4208C42.0327 57.4207 42.0618 57.4134 42.0879 57.3995C42.114 57.3856 42.1364 57.3654 42.1529 57.3408C42.3144 57.2434 42.472 57.1322 42.6238 57.025L42.6725 56.9919C42.8554 56.8632 43.0403 56.7365 43.2251 56.6117C43.5773 56.3778 43.9296 56.1555 44.274 55.9567C44.7312 55.692 45.2029 55.4531 45.6867 55.2412C46.1612 55.0343 46.6495 54.861 47.1481 54.7226H47.1656H47.1851C47.6075 54.615 48.0356 54.5317 48.4675 54.4731C48.8464 54.4252 49.2279 54.4011 49.6098 54.4009C50.3461 54.4064 51.0787 54.5074 51.7892 54.7012C52.3771 54.861 52.9416 55.0969 53.4686 55.403C53.9077 55.6638 54.3124 55.9788 54.6731 56.3407L54.7587 56.4285C54.891 56.5571 55.0039 56.676 55.1012 56.7891C55.1985 56.9022 55.2491 56.9568 55.3133 57.0387L55.3658 57.1049C55.3931 57.14 55.4184 57.1732 55.4417 57.2083L55.469 57.1888C55.3522 56.9938 55.2316 56.7989 55.109 56.6156L55.0623 56.5532L55.0253 56.5064C54.8949 56.3524 54.747 56.1945 54.5738 56.0269C54.2375 55.7082 53.8675 55.4271 53.4705 55.1885C53.0749 54.9496 52.6579 54.7479 52.2251 54.5861C51.7827 54.4241 51.3269 54.3014 50.8629 54.2196C50.3573 54.131 49.8448 54.0866 49.3315 54.0871" fill="#F88D62"/><path d="M30.9848 56.7581C30.9371 56.7672 30.8907 56.7822 30.8467 56.8029C30.8239 56.8147 30.8057 56.8337 30.7948 56.857C30.7839 56.8803 30.7809 56.9065 30.7864 56.9316C30.7937 56.9616 30.8125 56.9876 30.8389 57.0037C30.8651 57.0197 30.8964 57.0253 30.9265 57.0193H30.9907C31.0646 57.0193 31.1386 57.0193 31.2145 57.0193C31.3011 57.0217 31.3875 57.0288 31.4733 57.0407C31.5672 57.0569 31.6592 57.083 31.7476 57.1187C31.7977 57.1422 31.8459 57.1696 31.8916 57.2006C31.8973 57.2042 31.9035 57.2067 31.9101 57.2078C31.9167 57.209 31.9234 57.2088 31.9299 57.2074C31.9364 57.206 31.9426 57.2032 31.948 57.1994C31.9535 57.1955 31.9581 57.1907 31.9617 57.185C31.9656 57.1793 31.9683 57.1729 31.9696 57.1661C31.971 57.1593 31.9709 57.1523 31.9695 57.1456C31.968 57.1388 31.9652 57.1324 31.9612 57.1268C31.9572 57.1212 31.952 57.1164 31.9461 57.1129C31.8663 57.0583 31.7846 57.0076 31.7009 56.9569C31.6146 56.9047 31.5241 56.8597 31.4305 56.8224C31.3352 56.7854 31.2347 56.7637 31.1327 56.7581H31.1152C31.0714 56.7586 31.0278 56.7632 30.9848 56.7717" fill="#F88D62"/><path d="M31.4732 55.7091C31.469 55.7225 31.4674 55.7367 31.4687 55.7507C31.4699 55.7647 31.4739 55.7784 31.4804 55.7909C31.4869 55.8034 31.4958 55.8145 31.5066 55.8235C31.5174 55.8326 31.5298 55.8394 31.5433 55.8436C31.6386 55.867 31.7379 55.8904 31.8254 55.9177L31.95 55.9586C31.9967 55.9742 32.0414 55.9957 32.0862 56.0152C32.1309 56.0347 32.1757 56.0659 32.2204 56.0931C32.2664 56.1222 32.31 56.1547 32.3508 56.1906C32.3643 56.1987 32.3804 56.2011 32.3956 56.1975C32.4109 56.1938 32.4241 56.1844 32.4326 56.1711C32.4415 56.1573 32.445 56.1406 32.4423 56.1243C32.4379 56.1091 32.4282 56.096 32.415 56.0873L32.2886 55.982L32.3022 55.9937C32.1997 55.9035 32.0904 55.8214 31.9753 55.7481C31.8572 55.6776 31.7234 55.638 31.5861 55.6331C31.5631 55.6332 31.5407 55.6406 31.5222 55.6543C31.5037 55.668 31.4899 55.6871 31.4829 55.7091" fill="#F88D62"/><path d="M31.2163 56.6938C31.204 56.6976 31.1935 56.706 31.1871 56.7172C31.1807 56.7284 31.179 56.7416 31.1823 56.754C31.1856 56.7664 31.1936 56.777 31.2046 56.7835C31.2494 56.803 31.2922 56.8264 31.335 56.8479C31.3778 56.8693 31.4382 56.9102 31.4887 56.9434C31.4942 56.9468 31.5003 56.9491 31.5066 56.9501C31.513 56.9511 31.5194 56.9507 31.5257 56.9491C31.5319 56.9474 31.5377 56.9445 31.5427 56.9405C31.5477 56.9365 31.5519 56.9315 31.5549 56.9258C31.5609 56.9143 31.5625 56.901 31.5592 56.8884C31.556 56.8758 31.5482 56.8648 31.5374 56.8576L31.4148 56.7816C31.3624 56.7509 31.3085 56.723 31.2533 56.6977C31.2456 56.696 31.2376 56.696 31.2299 56.6977H31.2163" fill="#F88D62"/><path d="M42.6004 44.8093C42.4984 44.8092 42.3967 44.8196 42.2968 44.8405C42.0142 44.9009 41.7604 45.0555 41.5768 45.2792C41.5651 45.2927 41.5586 45.31 41.5586 45.3279C41.5586 45.3458 41.5651 45.3631 41.5768 45.3766C41.5916 45.389 41.6102 45.3959 41.6294 45.3961C41.6381 45.3962 41.6467 45.3945 41.6547 45.3912C41.6628 45.3878 41.67 45.3829 41.6761 45.3766C41.73 45.3113 41.7907 45.2518 41.8571 45.1992C41.9346 45.1391 42.0197 45.0893 42.11 45.0511C42.1981 45.0177 42.2894 44.9935 42.3825 44.9789C42.4386 44.9718 42.4952 44.9685 42.5518 44.9692C42.616 44.9692 42.6783 44.9692 42.7464 44.9789C42.8875 45 43.0254 45.0387 43.157 45.094C43.3107 45.1602 43.4552 45.246 43.587 45.3493C43.7132 45.4482 43.8275 45.5614 43.9275 45.6866C43.9748 45.749 44.0183 45.8141 44.0579 45.8816C44.093 45.944 44.1241 46.0102 44.1533 46.0765C44.1825 46.1428 44.1786 46.1331 44.2039 46.1467C44.2189 46.1545 44.2356 46.1585 44.2525 46.1584C44.2609 46.1601 44.2695 46.1601 44.2778 46.1584C44.29 46.1552 44.3015 46.1496 44.3115 46.1419C44.3215 46.1342 44.3299 46.1245 44.3362 46.1136C44.348 46.0908 44.3515 46.0646 44.3459 46.0395C44.2617 45.772 44.1071 45.5323 43.8984 45.3455C43.6804 45.145 43.4214 44.9947 43.1394 44.9049C43.0063 44.8608 42.8685 44.832 42.7288 44.8191C42.688 44.8191 42.6471 44.8191 42.6063 44.8191" fill="#F5AA89"/><path d="M39.5629 38.4714C39.2107 38.4778 38.8628 38.5506 38.5374 38.6859C38.3206 38.7726 38.1122 38.879 37.9147 39.0037C37.8174 39.0641 37.7201 39.1304 37.6403 39.1986C37.5605 39.2668 37.4457 39.3409 37.3679 39.415C37.3566 39.4251 37.3494 39.439 37.3476 39.4541C37.3458 39.4692 37.3496 39.4844 37.3582 39.4969C37.364 39.5036 37.3712 39.509 37.3792 39.5127C37.3873 39.5164 37.396 39.5183 37.4049 39.5183C37.412 39.5192 37.4192 39.5184 37.4259 39.5161C37.4327 39.5137 37.4388 39.5098 37.4438 39.5047C37.5846 39.3828 37.7357 39.2732 37.8953 39.1772C38.169 39.0214 38.4604 38.899 38.7631 38.8126H38.7378C38.9783 38.7543 39.2242 38.7216 39.4715 38.7151C39.5921 38.7168 39.7125 38.7279 39.8315 38.7483C39.8644 38.7508 39.8971 38.741 39.9233 38.7209C39.9495 38.7007 39.9674 38.6716 39.9735 38.6391C39.9769 38.6059 39.9675 38.5727 39.9473 38.5462C39.927 38.5198 39.8974 38.5021 39.8645 38.4968C39.7665 38.4831 39.6677 38.4759 39.5688 38.4753" fill="#FDB08C"/><path d="M51.3611 41.1462C51.3376 41.1466 51.3145 41.1526 51.2939 41.1638C51.2732 41.175 51.2555 41.1911 51.2424 41.2106C51.2327 41.2261 51.2263 41.2435 51.2236 41.2616C51.2209 41.2797 51.222 41.2982 51.2268 41.3158C51.23 41.3332 51.2368 41.3497 51.2469 41.3641C51.257 41.3786 51.27 41.3907 51.2852 41.3997C51.4976 41.5323 51.7011 41.6788 51.8943 41.8383C52.0474 41.9654 52.193 42.1015 52.3302 42.2458C52.4702 42.3976 52.6003 42.5585 52.7194 42.7273C52.8167 42.8696 52.914 43.0217 52.9898 43.1679C53.0741 43.3219 53.1463 43.4823 53.2058 43.6475C53.2506 43.7723 53.2895 43.9009 53.3226 44.0257C53.3249 44.0374 53.3312 44.0479 53.3405 44.0554C53.3497 44.0629 53.3613 44.0669 53.3732 44.0666C53.382 44.0657 53.3905 44.063 53.3982 44.0587C53.4059 44.0543 53.4126 44.0484 53.4179 44.0413C53.4226 44.0287 53.4226 44.0149 53.4179 44.0023C53.3471 43.7246 53.2513 43.4538 53.1319 43.1932C53.0091 42.9257 52.8612 42.6704 52.6902 42.431C52.5152 42.1868 52.3199 41.9579 52.1064 41.7467C51.8917 41.534 51.6607 41.3384 51.4156 41.1618C51.3955 41.1464 51.3708 41.1381 51.3455 41.1384" fill="#FDB08C"/><path d="M44.4744 48.6206C44.4607 48.6211 44.4475 48.6262 44.437 48.635C44.4264 48.6438 44.419 48.6559 44.416 48.6693C44.4015 48.7669 44.4015 48.8661 44.416 48.9637L44.3713 48.9813L44.346 48.993C44.1664 49.064 43.9789 49.1131 43.7875 49.1392C43.6584 49.1547 43.5284 49.1625 43.3983 49.1626C43.2644 49.1625 43.1305 49.1547 42.9975 49.1392C42.7655 49.1114 42.538 49.0544 42.3203 48.9696C42.1938 48.9122 42.0727 48.8437 41.9583 48.7649C41.9351 48.7483 41.907 48.74 41.8785 48.7415C41.8638 48.7382 41.8485 48.7382 41.8338 48.7415C41.8133 48.7464 41.7941 48.7555 41.7774 48.7683C41.7606 48.781 41.7467 48.7971 41.7365 48.8155C41.7151 48.8528 41.7093 48.8971 41.7202 48.9387C41.7311 48.9802 41.758 49.0158 41.7949 49.0378C41.9884 49.1584 42.1999 49.2472 42.4215 49.301C42.637 49.3562 42.8587 49.3837 43.0811 49.3829H43.1201C43.3544 49.3782 43.5875 49.3468 43.8147 49.2893C44.0329 49.236 44.2454 49.1615 44.4491 49.067V49.0924C44.4715 49.1481 44.5024 49.2001 44.5406 49.2464C44.5484 49.2565 44.5585 49.2648 44.5699 49.2705C44.5814 49.2762 44.5939 49.2793 44.6067 49.2795C44.6245 49.2794 44.6417 49.2732 44.6554 49.262C44.6723 49.2485 44.6834 49.2291 44.6863 49.2076C44.6892 49.1862 44.6837 49.1644 44.671 49.147C44.642 49.111 44.6153 49.0732 44.5912 49.0339C44.5815 49.0163 44.5717 48.9969 44.5639 48.9793C44.5586 48.9686 44.554 48.9575 44.5503 48.9462C44.54 48.919 44.5322 48.8909 44.527 48.8623C44.5205 48.8322 44.5172 48.8015 44.5172 48.7707C44.5152 48.7395 44.5152 48.7083 44.5172 48.6771C44.5189 48.6622 44.5148 48.6472 44.5058 48.6352C44.4967 48.6232 44.4834 48.6152 44.4686 48.6128" fill="#C0755A"/><path d="M46.9785 45.9653C46.9635 45.9656 46.9488 45.9696 46.9357 45.977C46.9166 45.9899 46.9028 46.0093 46.8968 46.0316C46.8924 46.0414 46.8901 46.0521 46.8901 46.0628C46.8901 46.0736 46.8924 46.0842 46.8968 46.094C47.1216 46.4608 47.4026 46.7897 47.7297 47.0688C48.0545 47.3457 48.4185 47.573 48.8097 47.7433C49.0074 47.8319 49.2125 47.903 49.4227 47.9558C49.6364 48.0063 49.8537 48.0409 50.0726 48.0591C50.1641 48.0591 50.2672 48.0708 50.3664 48.0708C50.4657 48.0708 50.5902 48.0708 50.7011 48.0591C50.8121 48.0474 50.923 48.0357 51.0339 48.0182C51.1448 48.0006 51.246 47.9773 51.3569 47.948C51.5595 47.8934 51.7553 47.8163 51.9407 47.718C52.025 47.6748 52.1062 47.6259 52.1839 47.5718C52.2816 47.5064 52.3734 47.4327 52.4583 47.3515C52.4926 47.3162 52.5147 47.2708 52.5214 47.2221C52.528 47.1733 52.5189 47.1237 52.4953 47.0805C52.4757 47.0461 52.4474 47.0175 52.4132 46.9977C52.379 46.9778 52.3402 46.9674 52.3007 46.9674C52.2618 46.9674 52.2236 46.9775 52.1898 46.9966L52.073 47.0629L52.0166 47.0961L51.8045 47.215C51.6761 47.2813 51.5457 47.3417 51.4056 47.4099C51.1317 47.5177 50.8464 47.5936 50.5552 47.6361C50.4195 47.6519 50.2831 47.6597 50.1465 47.6595C49.9983 47.6598 49.8501 47.6514 49.7029 47.6341H49.6795C49.4985 47.6068 49.3331 47.5737 49.1736 47.5347C48.9938 47.4889 48.8176 47.4303 48.6462 47.3593L48.6618 47.3807C48.4847 47.291 48.366 47.2306 48.2726 47.176C48.1324 47.097 47.9978 47.0084 47.8698 46.9109C47.6268 46.7233 47.4085 46.5059 47.2198 46.2636C47.1654 46.1895 47.1089 46.1096 47.0583 46.0277C47.0505 46.0144 47.0394 46.0034 47.0261 45.9955C47.0129 45.9877 46.9978 45.9833 46.9824 45.9829" fill="#713033"/><path d="M36.6655 42.2088C36.6494 42.2055 36.6329 42.2055 36.6168 42.2088C36.5921 42.215 36.5689 42.2264 36.5488 42.2422C36.5287 42.258 36.5121 42.2778 36.5001 42.3004C36.4868 42.3214 36.4784 42.345 36.4754 42.3696C36.4723 42.3942 36.4748 42.4192 36.4826 42.4427C36.5113 42.5428 36.5491 42.64 36.5954 42.7332C36.6379 42.8268 36.6866 42.9173 36.7414 43.0042C36.8496 43.176 36.9769 43.3349 37.1208 43.4779C37.398 43.7471 37.7299 43.9532 38.0938 44.0823C38.2584 44.1408 38.4286 44.182 38.6017 44.2051C38.756 44.2248 38.9113 44.2353 39.0668 44.2363H39.166C39.5625 44.2155 39.9548 44.1448 40.3336 44.0258C40.3531 44.0206 40.3699 44.008 40.3803 43.9907C40.3846 43.9815 40.3869 43.9715 40.3869 43.9614C40.3869 43.9513 40.3846 43.9413 40.3803 43.9322C40.3764 43.916 40.3671 43.9017 40.3541 43.8914C40.341 43.8812 40.3249 43.8756 40.3083 43.8756C40.1594 43.9178 40.0079 43.9503 39.8549 43.9731L39.8724 43.9868H39.7595C39.6408 43.9868 39.5144 44.0024 39.3937 44.0043H39.3626C39.2167 44.0021 39.0712 43.9911 38.9267 43.9712C38.6923 43.9325 38.4632 43.8671 38.2436 43.7762C38.0514 43.6934 37.8692 43.5887 37.7007 43.4643C37.5329 43.3327 37.3814 43.1815 37.2493 43.0139C37.1719 42.9109 37.1004 42.8035 37.0352 42.6923C36.9905 42.6143 36.9496 42.5344 36.9087 42.4544L36.8893 42.4135L36.8367 42.3102C36.8198 42.2807 36.7954 42.2562 36.766 42.2391C36.7367 42.222 36.7033 42.2129 36.6694 42.2127" fill="#713033"/><path d="M51.1237 51.9603C52.2388 52.0207 53.1845 51.3364 53.2331 50.4338C53.2818 49.5312 52.4178 48.7474 51.3028 48.6792C50.1877 48.611 49.242 49.3031 49.1934 50.2057C49.1447 51.1083 50.0087 51.892 51.1237 51.9603Z" fill="#FDB08C"/><path d="M34.4351 45.7645C34.9333 46.4975 35.8167 46.7646 36.4083 46.3611C36.9999 45.9575 37.0738 45.0334 36.5756 44.3024C36.0775 43.5713 35.1921 43.3022 34.6025 43.7058C34.0128 44.1093 33.935 45.0315 34.4351 45.7645Z" fill="#FDB08C"/></svg>