<svg width="24" height="24" viewBox="0 0 24 24" fill="none" xmlns="http://www.w3.org/2000/svg"><circle cx="12" cy="11" r="10" fill="#CDD1D9"/><path d="M13.6365 13.0496C13.6365 12.1202 12.0034 7.09082 12.0034 7.09082C12.0034 7.09082 10.3638 12.1202 10.3638 13.0496C10.3638 13.979 11.0987 14.7272 12.0034 14.7272C12.9049 14.7272 13.6365 13.9756 13.6365 13.0496ZM11.422 12.9456C11.422 12.6201 11.68 12.3517 11.9969 12.3517C12.317 12.3517 12.575 12.6201 12.575 12.9456C12.575 13.1026 12.5142 13.2533 12.4061 13.3643C12.298 13.4754 12.1514 13.5378 11.9985 13.5378C11.8456 13.5378 11.699 13.4754 11.5909 13.3643C11.4828 13.2533 11.422 13.1026 11.422 12.9456Z" fill="white"/><rect x="2.72705" y="11.4546" width="2.18182" height="1.09091" rx="0.5" fill="white"/><rect x="2.72705" y="11.4546" width="2.18182" height="1.09091" rx="0.5" fill="white"/><rect x="19.0908" y="11.4546" width="2.18182" height="1.09091" rx="0.5" fill="white"/><rect x="11.4546" y="4.90918" width="2.18182" height="1.09091" rx="0.5" transform="rotate(-90 11.4546 4.90918)" fill="white"/><rect x="17.0952" y="7.08984" width="2.18182" height="1.09091" rx="0.5" transform="rotate(-45 17.0952 7.08984)" fill="white"/><rect x="5.36182" y="5.54663" width="2.18182" height="1.09091" rx="0.5" transform="rotate(45 5.36182 5.54663)" fill="white"/></svg>