<svg width="24" height="24" viewBox="0 0 24 24" fill="none" xmlns="http://www.w3.org/2000/svg"><path d="M20.4363 1.09082H3.56355C2.90809 1.09197 2.27982 1.35286 1.81634 1.81634C1.35286 2.27982 1.09197 2.90809 1.09082 3.56355V16.0726C1.09197 16.7281 1.35286 17.3564 1.81634 17.8198C2.27982 18.2833 2.90809 18.5442 3.56355 18.5454H5.45446V22.1817C5.45467 22.3231 5.49606 22.4613 5.57355 22.5794C5.65105 22.6976 5.7613 22.7907 5.89082 22.8472C5.98233 22.8881 6.08148 22.9092 6.18173 22.909C6.36377 22.909 6.5392 22.8408 6.67337 22.7177L11.2254 18.5454H20.4363C21.0917 18.5442 21.72 18.2833 22.1835 17.8198C22.647 17.3564 22.9078 16.7281 22.909 16.0726V3.56355C22.9078 2.90809 22.647 2.27982 22.1835 1.81634C21.72 1.35286 21.0917 1.09197 20.4363 1.09082ZM17.0908 14.1817H6.909C6.71612 14.1817 6.53113 14.1051 6.39474 13.9687C6.25835 13.8323 6.18173 13.6473 6.18173 13.4545C6.18173 13.2616 6.25835 13.0766 6.39474 12.9402C6.53113 12.8038 6.71612 12.7272 6.909 12.7272H17.0908C17.2837 12.7272 17.4687 12.8038 17.6051 12.9402C17.7415 13.0766 17.8181 13.2616 17.8181 13.4545C17.8181 13.6473 17.7415 13.8323 17.6051 13.9687C17.4687 14.1051 17.2837 14.1817 17.0908 14.1817ZM17.0908 10.5454H6.909C6.71612 10.5454 6.53113 10.4687 6.39474 10.3324C6.25835 10.196 6.18173 10.011 6.18173 9.81809C6.18173 9.62521 6.25835 9.44022 6.39474 9.30383C6.53113 9.16744 6.71612 9.09082 6.909 9.09082H17.0908C17.2837 9.09082 17.4687 9.16744 17.6051 9.30383C17.7415 9.44022 17.8181 9.62521 17.8181 9.81809C17.8181 10.011 17.7415 10.196 17.6051 10.3324C17.4687 10.4687 17.2837 10.5454 17.0908 10.5454ZM17.0908 6.909H6.909C6.71612 6.909 6.53113 6.83238 6.39474 6.69599C6.25835 6.5596 6.18173 6.37461 6.18173 6.18173C6.18173 5.98884 6.25835 5.80386 6.39474 5.66747C6.53113 5.53108 6.71612 5.45446 6.909 5.45446H17.0908C17.2837 5.45446 17.4687 5.53108 17.6051 5.66747C17.7415 5.80386 17.8181 5.98884 17.8181 6.18173C17.8181 6.37461 17.7415 6.5596 17.6051 6.69599C17.4687 6.83238 17.2837 6.909 17.0908 6.909Z" fill="#CDD1D9"/></svg>