<svg width="90" height="105" viewBox="0 0 90 105" fill="none" xmlns="http://www.w3.org/2000/svg"><g clip-path="url(#clip0_138_1996)"><path d="M75.2754 69.5755C73.8684 68.1452 72.0643 66.6052 72.2609 64.5949C72.3495 63.6897 72.8507 62.8903 73.3171 62.1144C75.5514 58.3851 77.2628 54.3571 78.4017 50.1469C78.9838 47.9799 79.4194 45.7071 79.0532 43.4852C78.687 41.2633 77.3918 39.1002 75.3525 38.2381C74.8321 38.0226 74.2346 37.8463 73.9339 37.3721C73.5754 36.8 73.799 36.0554 73.9879 35.4128C76.0271 28.3592 72.2493 20.4083 66.1817 16.3878C60.1141 12.3673 52.304 11.8069 45.2303 13.3939L43.326 14.2678C38.9853 15.5453 34.6216 17.1167 31.0712 19.9577C27.5208 22.7987 24.8648 27.1405 25.0151 31.7332C25.1231 35.0248 26.5571 38.6692 24.7106 41.3848C23.5079 43.1599 21.2952 43.8496 19.5412 45.0605C16.5883 47.106 14.9384 50.7974 14.9153 54.43C14.8922 58.0625 16.4303 61.5972 18.7201 64.3872C19.599 65.4609 20.6475 66.8599 19.9999 68.0864C19.5682 68.8937 18.5852 69.1641 17.7255 69.4384C15.3273 70.1769 13.1593 71.5367 11.4343 73.3844C7.13223 78.0868 6.80841 85.6772 9.69959 91.3788C12.5908 97.0805 18.2459 100.979 24.2711 102.911C30.2964 104.843 36.7302 105.004 43.0407 104.745C50.044 104.454 57.0189 103.669 63.915 102.394C66.1509 101.983 68.4098 101.509 70.4414 100.474C72.9239 99.2044 74.9478 97.1432 76.5244 94.8194C81.6476 87.3074 81.6206 76.0609 75.2754 69.5755Z" fill="#FFE5F8"/><g style="mix-blend-mode:multiply" opacity="0.1"><path d="M70.8613 99.694C70.8613 102.621 59.2966 105 45.0334 105C30.7703 105 19.2056 102.621 19.2056 99.694C19.2056 96.7668 30.7703 94.3882 45.0334 94.3882C59.2966 94.3882 70.8613 96.7668 70.8613 99.694Z" fill="#1D262D"/></g><path d="M57.7313 83.4826C57.7313 83.1416 57.6735 82.738 57.3767 82.5891C57.1793 82.5204 56.965 82.5204 56.7676 82.5891C53.6259 83.2318 37.7244 83.2318 34.5788 82.5891C34.3827 82.5204 34.1696 82.5204 33.9735 82.5891C33.6729 82.738 33.6227 83.1416 33.615 83.4826C33.5842 84.7835 33.615 86.0884 33.6574 87.4012C33.7191 88.8433 33.8695 90.3676 34.7021 91.5393C36.1053 93.4986 39.0851 94.1608 41.2863 94.5723C41.4019 94.5919 41.5369 94.5292 41.6255 94.6076C41.7142 94.6859 41.479 94.7918 41.5369 94.6899C44.2787 95.1131 47.0677 95.1131 49.8095 94.6899C52.1224 94.0002 55.1331 93.6475 56.6443 91.5275C57.4769 90.3519 57.6273 88.8315 57.6889 87.3894C57.7506 86.0884 57.7622 84.8031 57.7313 83.4826Z" fill="#2A9C9E"/><path d="M66.1237 97.2998C65.8115 95.5639 63.1169 95.8891 61.9103 95.5991C59.8479 95.1054 57.9398 95.4737 55.9313 96.085C54.6322 96.4769 53.3948 96.9315 52.0186 96.955C50.6164 96.9457 49.2304 96.6484 47.944 96.0811C47.9162 96.0681 47.8853 96.0637 47.8551 96.0686C47.8249 96.0735 47.7968 96.0874 47.7744 96.1085C47.7597 96.12 47.7478 96.1347 47.7397 96.1516L47.7204 96.1712L45.18 101.015C45.1635 101.045 45.155 101.08 45.1553 101.114C45.1556 101.149 45.1647 101.184 45.1817 101.214C45.1987 101.244 45.2231 101.269 45.2525 101.287C45.2819 101.305 45.3153 101.315 45.3496 101.316C47.4081 101.548 49.2662 102.406 51.2361 102.99C52.9563 103.504 54.733 103.799 56.525 103.867C58.4794 103.926 60.5534 103.538 62.4808 103.221C63.2056 103.099 64.1115 102.715 63.8185 101.955C63.9867 101.92 64.1396 101.831 64.2558 101.703C64.372 101.574 64.4455 101.411 64.4661 101.238C64.4914 101.107 64.4876 100.973 64.4549 100.844C64.4222 100.715 64.3615 100.595 64.2772 100.494C64.4398 100.506 64.6019 100.465 64.7405 100.378C64.879 100.291 64.9867 100.161 65.0482 100.008C65.1099 99.8197 65.1177 99.6178 65.0706 99.4255C65.0235 99.2333 64.9234 99.0587 64.7822 98.9221C64.9837 98.9319 65.1848 98.8943 65.3697 98.8121C65.5546 98.73 65.7183 98.6056 65.8481 98.4486C65.9779 98.2916 66.0703 98.1063 66.1182 97.907C66.166 97.7077 66.1679 97.4999 66.1237 97.2998Z" fill="#FFB07F"/><path d="M65.2292 97.0608C65.2179 97.0768 65.2118 97.096 65.2118 97.1157C65.2118 97.1354 65.2179 97.1545 65.2292 97.1705C65.2958 97.2784 65.3355 97.4012 65.3449 97.5282C65.3543 97.6552 65.3331 97.7826 65.2832 97.8994C65.1444 98.1384 64.9247 98.1228 64.6895 98.1659C64.6728 98.1712 64.6578 98.1812 64.6465 98.1948C64.6351 98.2084 64.6278 98.225 64.6254 98.2427C64.623 98.2603 64.6255 98.2783 64.6328 98.2946C64.6401 98.3108 64.6517 98.3246 64.6664 98.3344C64.8117 98.3891 64.9714 98.39 65.1173 98.337C65.2632 98.284 65.3861 98.1804 65.4644 98.0444C65.5446 97.8924 65.5797 97.7201 65.5653 97.5482C65.551 97.3764 65.4878 97.2125 65.3834 97.0765C65.3737 97.0592 65.3584 97.0458 65.3402 97.0387C65.3219 97.0316 65.3018 97.0311 65.2832 97.0373C65.2731 97.034 65.2624 97.034 65.2523 97.0373L65.2292 97.0608Z" fill="#F1703D"/><path d="M64.3427 99.3961C64.4275 99.4902 64.5084 99.6077 64.4313 99.7371C64.3542 99.8664 64.2309 99.8233 64.1268 99.8899C64.1156 99.8983 64.1066 99.9092 64.1003 99.9218C64.0941 99.9344 64.0908 99.9483 64.0908 99.9624C64.0908 99.9765 64.0941 99.9904 64.1003 100.003C64.1066 100.016 64.1156 100.026 64.1268 100.035C64.2964 100.203 64.5932 99.98 64.6665 99.8076C64.7101 99.7034 64.7124 99.586 64.6729 99.4802C64.6334 99.3743 64.5551 99.288 64.4545 99.2394C64.362 99.2041 64.308 99.3334 64.362 99.3961H64.3427Z" fill="#F1703D"/><path d="M63.8607 100.991C63.9301 101.14 63.8376 101.265 63.6795 101.23C63.5215 101.195 63.4752 101.379 63.5947 101.434C63.6679 101.467 63.7499 101.474 63.8275 101.453C63.905 101.433 63.9734 101.387 64.0217 101.322C64.0699 101.257 64.0952 101.177 64.0932 101.096C64.0913 101.014 64.0623 100.936 64.0111 100.874C63.934 100.787 63.8183 100.897 63.8607 100.991Z" fill="#F1703D"/><path d="M63.2324 102.175C63.242 102.212 63.242 102.251 63.2324 102.288C63.2049 102.332 63.1662 102.367 63.1206 102.39C63.0435 102.445 62.9548 102.472 62.8739 102.523C62.7929 102.574 62.816 102.739 62.9278 102.723C63.0949 102.692 63.2477 102.607 63.3634 102.48C63.4637 102.374 63.5138 102.19 63.3634 102.088C63.35 102.081 63.3349 102.077 63.3196 102.077C63.3043 102.078 63.2893 102.082 63.2761 102.09C63.2629 102.098 63.2519 102.109 63.2443 102.122C63.2366 102.136 63.2325 102.151 63.2324 102.167V102.175Z" fill="#F1703D"/><path d="M64.6012 98.6752C64.3883 98.5996 64.188 98.4912 64.0075 98.3538C63.8173 98.2515 63.6 98.2131 63.3869 98.2441C63.2982 98.2441 63.3059 98.4009 63.3869 98.4205C63.4678 98.4401 63.6452 98.444 63.7724 98.4832C63.8802 98.5223 63.9816 98.5778 64.0731 98.6477C64.2143 98.761 64.3791 98.8401 64.5549 98.879C64.686 98.8985 64.7438 98.7026 64.6089 98.6752H64.6012Z" fill="#F1703D"/><path d="M64.1579 100.329C64.0117 100.146 63.8279 99.998 63.6195 99.8951C63.4111 99.7922 63.183 99.737 62.9513 99.7332C62.8164 99.7332 62.8202 99.933 62.9513 99.9448C63.1705 99.966 63.3844 100.026 63.5835 100.121C63.7531 100.203 63.8919 100.337 64.0538 100.431C64.0677 100.441 64.0849 100.446 64.1022 100.445C64.1195 100.444 64.1358 100.437 64.1483 100.425C64.1608 100.412 64.1686 100.396 64.1704 100.378C64.1721 100.361 64.1677 100.343 64.1579 100.329Z" fill="#F1703D"/><path d="M63.7491 101.881C63.7491 101.665 63.4253 101.52 63.2634 101.426C63.1561 101.34 63.0304 101.281 62.8964 101.254C62.7624 101.227 62.624 101.232 62.4924 101.269C62.3691 101.316 62.4231 101.524 62.5503 101.473C62.8085 101.371 63.0707 101.548 63.2866 101.681C63.4176 101.759 63.5564 101.912 63.7183 101.893L63.7491 101.881Z" fill="#F1703D"/><path d="M62.3537 101.402C62.2707 101.397 62.1889 101.425 62.1262 101.481C61.999 101.571 62.1532 101.759 62.2534 101.645C62.2997 101.598 62.3537 101.563 62.3999 101.512C62.4098 101.504 62.4166 101.492 62.4196 101.479C62.4225 101.466 62.4213 101.452 62.4161 101.44C62.411 101.428 62.4022 101.418 62.3909 101.411C62.3797 101.404 62.3667 101.401 62.3537 101.402Z" fill="#F1703D"/><path d="M62.7352 99.7529C62.6642 99.7603 62.5944 99.776 62.527 99.8C62.396 99.8509 62.4577 100.066 62.5849 100.012C62.6415 99.9885 62.6994 99.9689 62.7583 99.9528C62.8624 99.9214 62.847 99.7451 62.7352 99.7529Z" fill="#F1703D"/><path d="M63.2555 98.2755C63.1823 98.0914 62.8893 98.158 62.7505 98.2168C62.7358 98.2211 62.7221 98.2285 62.7104 98.2386C62.6987 98.2487 62.6893 98.2612 62.6827 98.2753C62.6762 98.2894 62.6726 98.3047 62.6724 98.3203C62.6721 98.3359 62.6751 98.3514 62.6812 98.3657C62.6873 98.38 62.6963 98.3928 62.7076 98.4033C62.7189 98.4138 62.7324 98.4218 62.7469 98.4266C62.7615 98.4314 62.777 98.433 62.7922 98.4313C62.8074 98.4296 62.8222 98.4246 62.8353 98.4166C62.9137 98.384 62.9974 98.3667 63.0821 98.3657C63.1392 98.3697 63.1961 98.3545 63.244 98.3226C63.2484 98.3156 63.2508 98.3074 63.2508 98.2991C63.2508 98.2907 63.2484 98.2825 63.244 98.2755H63.2555Z" fill="#F1703D"/><path d="M64.5203 96.8726C64.5448 97.1189 64.5304 97.3676 64.4779 97.6093C64.3923 97.8399 64.2852 98.0617 64.1579 98.2715C64.1271 98.3381 64.1965 98.4322 64.2697 98.3812C64.4774 98.1941 64.6275 97.9499 64.7021 97.6781C64.7766 97.4064 64.7724 97.1185 64.6899 96.8491C64.659 96.7589 64.5126 96.7668 64.5203 96.8726Z" fill="#F1703D"/><path d="M52.2576 95.8184C46.2362 92.4405 40.0876 89.2429 34.525 85.1244C32.0154 83.2709 29.6562 81.2528 27.0079 79.5992C24.641 78.1179 22.1469 76.4368 19.2981 76.1743C17.8525 76.0201 16.3957 76.3312 15.1334 77.0639C13.8711 77.7965 12.8671 78.9136 12.2629 80.2575C12.2608 80.2665 12.2608 80.2759 12.2629 80.2849C11.1064 83.1965 11.9738 86.4254 13.8049 88.8589C15.8248 91.5667 18.9473 93.1067 22.0158 94.251C25.9864 95.7322 30.061 96.9587 34.0817 98.2872C38.3028 99.6861 42.5085 101.163 46.7528 102.484C48.341 102.978 49.3741 102.21 50.2877 100.881C51.2823 99.4353 51.8836 97.6994 52.3886 96.0261C52.3921 95.9817 52.3812 95.9373 52.3575 95.8998C52.3339 95.8623 52.2987 95.8337 52.2576 95.8184Z" fill="#2A9C9E"/><path d="M45.4805 101.015L42.9324 96.1673L42.8977 96.1242C42.8753 96.103 42.8472 96.0891 42.817 96.0842C42.7868 96.0794 42.7559 96.0837 42.7281 96.0968C41.4975 96.6281 40.179 96.9179 38.8424 96.951C37.4623 96.951 36.2287 96.5396 34.9296 96.1359C32.8634 95.4972 30.8897 95.0858 28.7618 95.5952C27.5629 95.8812 25.0379 95.5599 24.5831 97.1626C24.5164 97.3678 24.4996 97.5864 24.534 97.7996C24.5684 98.0128 24.653 98.2144 24.7806 98.3873C24.9082 98.5601 25.075 98.699 25.2668 98.7921C25.4586 98.8852 25.6697 98.9298 25.8822 98.9221C25.7383 99.0568 25.6368 99.2316 25.5901 99.4247C25.5435 99.6177 25.5539 99.8205 25.62 100.008C25.6865 100.157 25.7954 100.283 25.9327 100.37C26.07 100.456 26.2296 100.499 26.391 100.493C26.3063 100.595 26.2451 100.715 26.2117 100.844C26.1784 100.972 26.1738 101.107 26.1983 101.238C26.2191 101.412 26.2932 101.575 26.4101 101.703C26.5271 101.832 26.6809 101.92 26.8498 101.955C26.5568 102.715 27.4627 103.099 28.1874 103.221C30.1149 103.538 32.1888 103.926 34.1432 103.867C35.9352 103.799 37.7119 103.504 39.4322 102.99C41.3982 102.406 43.2562 101.548 45.3148 101.316C45.3492 101.316 45.3828 101.306 45.4124 101.288C45.4419 101.27 45.4663 101.245 45.483 101.214C45.4998 101.183 45.5084 101.149 45.508 101.114C45.5075 101.079 45.4981 101.045 45.4805 101.015Z" fill="#FFB07F"/><path d="M25.4353 97.053C25.4161 97.0472 25.3956 97.0479 25.3769 97.0549C25.3581 97.062 25.3421 97.075 25.3312 97.0921C25.2266 97.2281 25.1635 97.3923 25.1498 97.5643C25.1361 97.7364 25.1724 97.9088 25.2541 98.06C25.3317 98.1957 25.4539 98.2992 25.5992 98.3522C25.7445 98.4053 25.9035 98.4045 26.0483 98.35C26.063 98.3406 26.0748 98.3271 26.0824 98.3111C26.0899 98.2951 26.0928 98.2772 26.0908 98.2596C26.0888 98.242 26.0819 98.2253 26.071 98.2115C26.06 98.1977 26.0455 98.1873 26.029 98.1815C25.7938 98.1384 25.5741 98.1541 25.4315 97.9151C25.3821 97.7979 25.3616 97.6704 25.3716 97.5434C25.3817 97.4164 25.4221 97.2938 25.4893 97.1862C25.5006 97.1702 25.5067 97.151 25.5067 97.1313C25.5067 97.1116 25.5006 97.0925 25.4893 97.0765V97.0569L25.4353 97.053Z" fill="#F1703D"/><path d="M26.2408 99.2395C26.1395 99.2874 26.0606 99.3736 26.021 99.4798C25.9814 99.5859 25.9842 99.7036 26.0288 99.8077C26.0982 99.9802 26.4143 100.2 26.5685 100.035C26.579 100.026 26.5874 100.015 26.5932 100.003C26.599 99.9901 26.602 99.9764 26.602 99.9625C26.602 99.9487 26.599 99.935 26.5932 99.9225C26.5874 99.9099 26.579 99.8989 26.5685 99.89C26.4605 99.8234 26.3372 99.8704 26.2601 99.7372C26.183 99.604 26.2601 99.4903 26.3487 99.3963C26.4374 99.3022 26.3487 99.2043 26.2601 99.2395H26.2408Z" fill="#F1703D"/><path d="M26.6648 100.87C26.6135 100.932 26.5846 101.011 26.5826 101.092C26.5807 101.173 26.6059 101.253 26.6542 101.318C26.7024 101.383 26.7709 101.429 26.8484 101.45C26.9259 101.47 27.0079 101.463 27.0811 101.43C27.2006 101.375 27.112 101.203 26.9963 101.226C26.8807 101.25 26.7457 101.14 26.8113 100.987C26.8768 100.834 26.7419 100.78 26.6648 100.87Z" fill="#F1703D"/><path d="M27.3085 102.096C27.1697 102.19 27.2198 102.374 27.3085 102.488C27.4257 102.615 27.5797 102.7 27.7479 102.731C27.8559 102.731 27.8828 102.582 27.8019 102.531C27.7209 102.48 27.6323 102.453 27.5552 102.398C27.5095 102.375 27.4709 102.34 27.4434 102.296C27.4319 102.259 27.4319 102.219 27.4434 102.182C27.4425 102.167 27.4379 102.152 27.4297 102.138C27.4216 102.125 27.4103 102.114 27.3969 102.106C27.3835 102.098 27.3684 102.094 27.3529 102.094C27.3375 102.093 27.3222 102.097 27.3085 102.104V102.096Z" fill="#F1703D"/><path d="M26.1253 98.879C26.3021 98.8395 26.468 98.7605 26.611 98.6478C26.6912 98.5872 26.7778 98.5359 26.8693 98.495C27.0062 98.4604 27.1453 98.4355 27.2856 98.4206C27.3055 98.4163 27.3233 98.4052 27.3361 98.3891C27.3489 98.3731 27.3559 98.353 27.3559 98.3324C27.3559 98.3117 27.3489 98.2917 27.3361 98.2757C27.3233 98.2596 27.3055 98.2485 27.2856 98.2442C27.0738 98.2134 26.8578 98.2519 26.6688 98.3539C26.487 98.4914 26.2855 98.5998 26.0713 98.6753C25.9403 98.7027 25.9981 98.8986 26.1253 98.879Z" fill="#F1703D"/><path d="M26.6186 100.431C26.7843 100.337 26.9193 100.204 27.0927 100.121C27.2905 100.026 27.5032 99.9662 27.7211 99.945C27.8522 99.945 27.8599 99.7255 27.7211 99.7334C27.49 99.7372 27.2625 99.7925 27.0547 99.8954C26.8469 99.9983 26.6638 100.146 26.5184 100.329C26.5102 100.343 26.5068 100.36 26.5089 100.376C26.511 100.392 26.5183 100.408 26.5298 100.419C26.5412 100.431 26.5562 100.438 26.5722 100.44C26.5883 100.443 26.6046 100.439 26.6186 100.431Z" fill="#F1703D"/><path d="M26.9386 101.892C27.1005 101.912 27.2393 101.759 27.3742 101.681C27.5901 101.548 27.8484 101.371 28.1105 101.473C28.2339 101.524 28.2878 101.316 28.1645 101.269C28.0328 101.233 27.8946 101.229 27.7609 101.256C27.6271 101.283 27.5013 101.341 27.3935 101.426C27.2354 101.516 26.9232 101.665 26.9116 101.881L26.9386 101.892Z" fill="#F1703D"/><path d="M28.2837 101.512C28.3338 101.563 28.3878 101.595 28.4341 101.646C28.4803 101.697 28.6885 101.575 28.5613 101.481C28.4974 101.425 28.4142 101.397 28.33 101.403C28.3178 101.403 28.306 101.407 28.296 101.415C28.286 101.422 28.2782 101.432 28.2734 101.443C28.2686 101.454 28.267 101.467 28.2688 101.479C28.2706 101.491 28.2758 101.503 28.2837 101.512Z" fill="#F1703D"/><path d="M27.8985 99.9528C27.9588 99.9682 28.0181 99.9879 28.0758 100.012C28.203 100.066 28.2608 99.8509 28.1336 99.8C28.0662 99.7764 27.9963 99.7607 27.9254 99.7529C27.8137 99.7529 27.7944 99.9214 27.8985 99.9528Z" fill="#F1703D"/><path d="M27.432 98.3226C27.4783 98.3548 27.5341 98.37 27.5901 98.3657C27.676 98.3666 27.7609 98.3839 27.8406 98.4166C27.8539 98.4252 27.8689 98.4307 27.8846 98.4327C27.9002 98.4348 27.9161 98.4333 27.9311 98.4285C27.9461 98.4236 27.9599 98.4155 27.9715 98.4047C27.9831 98.3938 27.9922 98.3805 27.9982 98.3657C28.0042 98.3509 28.0069 98.3349 28.0062 98.3189C28.0055 98.3029 28.0013 98.2873 27.994 98.2731C27.9867 98.2589 27.9765 98.2465 27.9639 98.2368C27.9514 98.227 27.937 98.2202 27.9216 98.2168C27.7867 98.158 27.4937 98.0914 27.4204 98.2755C27.416 98.2825 27.4136 98.2907 27.4136 98.2991C27.4136 98.3074 27.416 98.3156 27.4204 98.3226H27.432Z" fill="#F1703D"/><path d="M25.9708 96.8491C25.8863 97.1183 25.8811 97.4067 25.9557 97.679C26.0304 97.9512 26.1816 98.1953 26.3909 98.3812C26.4642 98.4322 26.5297 98.3381 26.4989 98.2715C26.3731 98.0609 26.266 97.8392 26.1789 97.6093C26.1276 97.3673 26.1146 97.1187 26.1404 96.8726C26.1404 96.7668 26.0016 96.7589 25.9708 96.8491Z" fill="#F1703D"/><path d="M78.4285 80.3046C78.429 80.2954 78.429 80.2863 78.4285 80.2771C77.9283 79.1481 77.1423 78.1741 76.1508 77.4547C75.1594 76.7353 73.9979 76.2962 72.7849 76.1822C69.7974 75.9079 67.1914 77.4871 64.7204 78.9722C62.0451 80.5828 59.6628 82.499 57.1764 84.376C54.6501 86.3006 52.0181 88.0773 49.2931 89.6976C45.7119 91.8215 42.042 93.7965 38.4146 95.8302C38.3776 95.8533 38.3489 95.8879 38.333 95.9288C38.317 95.9698 38.3145 96.015 38.3259 96.0575C38.7429 97.5702 39.337 99.0266 40.0953 100.395C40.6697 101.367 41.5949 102.668 42.8169 102.747C43.611 102.786 44.4282 102.355 45.1684 102.131L48.5877 100.999L54.821 98.9103C58.9458 97.5466 63.0821 96.2182 67.1914 94.8114C70.4103 93.7063 73.7987 92.3622 76.1657 89.7799C78.4593 87.2758 79.743 83.6001 78.4285 80.3046Z" fill="#2A9C9E"/><path d="M41.6372 93.969C42.157 95.4126 42.7502 96.8279 43.4144 98.209C43.8461 99.028 44.3472 99.8234 44.8407 100.607C45.1059 101.115 45.4881 101.551 45.9547 101.877C46.0511 101.936 46.1706 101.791 46.0781 101.712C44.9409 100.764 44.1506 99.1338 43.4837 97.8132C42.8168 96.4926 42.4236 95.176 41.8261 93.8946C41.776 93.7888 41.591 93.8671 41.6372 93.9768V93.969Z" fill="#2A9C9E"/><path d="M39.7332 98.5499C40.2984 98.4562 40.8459 98.2737 41.3561 98.0092C41.8919 97.7976 42.4432 97.6173 42.9675 97.3626C43.0754 97.3116 42.9983 97.1314 42.8904 97.1706C42.2736 97.3743 41.6722 97.6408 41.067 97.8798C40.5879 98.0181 40.1328 98.2309 39.7178 98.5107C39.7178 98.5107 39.7178 98.5538 39.7178 98.5499H39.7332Z" fill="#2A9C9E"/><path d="M40.3612 100.023C40.9529 99.8691 41.5257 99.6483 42.069 99.3648C42.6337 99.1327 43.2102 98.9313 43.796 98.7613C43.8256 98.753 43.8508 98.733 43.866 98.7059C43.8812 98.6787 43.8851 98.6465 43.8769 98.6163C43.8687 98.5862 43.8491 98.5606 43.8224 98.5451C43.7956 98.5297 43.7639 98.5257 43.7343 98.534C43.1374 98.7032 42.5526 98.914 41.9842 99.1649C41.4011 99.3585 40.8481 99.6356 40.342 99.9878C40.3227 99.9878 40.342 100.027 40.3612 100.023Z" fill="#2A9C9E"/><path d="M41.2211 101.489C41.7903 101.399 42.3411 101.215 42.8517 100.944C43.4609 100.722 44.0419 100.428 44.5826 100.066C44.6443 100.015 44.5826 99.9213 44.5093 99.9409C43.9765 100.134 43.4607 100.373 42.9674 100.654C42.3969 100.921 41.7608 101.097 41.2173 101.414C41.2092 101.418 41.2027 101.425 41.1989 101.433C41.1951 101.441 41.1943 101.451 41.1966 101.46C41.1989 101.468 41.2041 101.476 41.2114 101.481C41.2187 101.487 41.2276 101.489 41.2365 101.489H41.2211Z" fill="#2A9C9E"/><path d="M57.9245 65.3354C57.6741 64.6358 57.2799 63.9986 56.768 63.4662C56.4481 63.0743 56.1088 62.7138 55.8274 62.2906C55.2955 61.5069 55.3186 61.0562 55.6925 60.2098C56.6235 58.1562 57.287 55.9878 57.6662 53.7597C58.0055 51.7259 58.468 49.7235 58.8574 47.6976C59.0617 46.62 59.586 44.884 58.9538 43.8691C58.0324 42.3839 55.7118 42.3016 54.2392 41.945C51.465 41.2348 48.619 40.8548 45.7584 40.8125C42.7726 40.7852 39.7948 41.1314 36.8921 41.8431C35.6189 42.1422 34.3629 42.5124 33.1297 42.9521C32.486 43.1911 31.5878 43.4537 31.1753 44.065C30.4043 45.1936 30.9556 47.2313 31.1753 48.45C31.5608 50.4485 32.193 52.3921 32.5939 54.3906C32.8329 55.5662 33.0372 56.7692 33.3649 57.9409C33.5084 58.4864 33.6796 59.0239 33.8776 59.5515C34.0973 60.1158 34.5638 60.7506 34.5792 61.3697C34.61 62.4826 33.5306 63.572 33.0758 64.5282C32.5399 65.6606 32.3588 66.9969 31.9964 68.196C30.5624 72.8984 28.6542 78.6157 32.0272 82.9849C34.9762 86.8056 40.0686 87.7461 44.575 87.6638C47.6011 87.6089 50.5771 87.7069 53.4721 86.641C55.6694 85.8299 57.7433 84.474 59.0733 82.4795C62.562 77.2128 59.2005 70.747 57.9245 65.3354Z" fill="#FFB07F"/><path d="M31.9654 68.2116C31.1944 70.7313 30.2962 73.5371 30.1382 76.2684C32.2083 76.7621 34.5019 76.7543 36.5065 76.8013C39.4863 76.8718 42.4739 76.9228 45.4537 76.8287C50.494 76.6499 55.5168 76.1263 60.4879 75.2613C60.0754 71.8873 58.6606 68.435 57.9282 65.3314C57.6778 64.6319 57.2836 63.9947 56.7717 63.4623C56.4518 63.0704 56.1126 62.7099 55.8311 62.2867C55.2992 61.5029 55.3223 61.0523 55.6962 60.2059C56.5409 58.3382 57.1659 56.3758 57.5581 54.3592C55.5073 53.4149 54.0309 51.1107 53.2059 49.1083C52.381 47.1058 53.2522 44.014 54.2429 41.9411C54.3316 41.753 53.125 41.6785 53.125 41.6785C52.8552 41.6158 52.5815 41.561 52.3078 41.5061C52.0784 42.1939 51.9081 42.9006 51.7989 43.6183C51.6254 44.3354 51.2361 46.0752 50.839 46.6983C49.2238 49.2258 47.7011 49.7039 45.8277 50.805C45.7736 50.8475 45.7094 50.8746 45.6417 50.8835C45.574 50.8925 45.5051 50.883 45.4422 50.856C43.6188 49.7901 41.5873 48.8065 40.2303 47.1098C39.0006 45.5737 38.5843 43.4968 38.1024 41.5845C37.6938 41.6707 37.2852 41.7608 36.8766 41.8588C36.2713 42.0077 35.6623 42.1684 35.057 42.3408C37.5319 46.5337 36.7031 53.262 33.0294 56.5576C33.1257 57.0278 33.2337 57.4942 33.357 57.9566C33.5006 58.502 33.6717 59.0396 33.8697 59.5671C34.0895 60.1314 34.5559 60.7662 34.5713 61.3854C34.6022 62.4983 33.5228 63.5876 33.0679 64.5438C32.5244 65.6763 32.3278 67.0125 31.9654 68.2116Z" fill="#AFE3FB"/><path d="M45.6811 62.2554C47.1961 62.224 48.634 62.1378 50.1374 62.467C51.5854 62.8411 52.9723 63.4272 54.2545 64.2069C54.2996 64.2289 54.3512 64.233 54.3991 64.2183C54.4471 64.2036 54.4879 64.1712 54.5135 64.1274C54.5391 64.0837 54.5477 64.0318 54.5376 63.982C54.5274 63.9321 54.4993 63.8879 54.4588 63.8581C52.1844 62.0751 48.4181 61.213 45.658 62.0751C45.6355 62.0782 45.6152 62.0903 45.6014 62.1087C45.5877 62.1271 45.5817 62.1502 45.5848 62.1731C45.5878 62.196 45.5997 62.2166 45.6178 62.2306C45.6359 62.2446 45.6587 62.2507 45.6811 62.2475V62.2554Z" fill="white"/><path d="M53.0942 62.1222C53.5491 62.3965 54.0271 62.6277 54.4666 62.9295C54.8703 63.2769 55.2966 63.5963 55.7425 63.8856C55.7727 63.9033 55.8077 63.9104 55.8422 63.9057C55.8766 63.9011 55.9087 63.8851 55.9333 63.8601C55.9579 63.8351 55.9736 63.8025 55.9782 63.7675C55.9827 63.7324 55.9758 63.6968 55.9584 63.6662C55.6366 63.2301 55.2231 62.8727 54.748 62.6199C54.2754 62.2818 53.7556 62.0176 53.206 61.8362C53.1709 61.8246 53.1329 61.8268 53.0994 61.8425C53.0659 61.8582 53.0394 61.8861 53.0253 61.9208C53.0112 61.9554 53.0105 61.9942 53.0232 62.0293C53.036 62.0645 53.0614 62.0935 53.0942 62.1105V62.1222Z" fill="white"/><path d="M43.2718 59.1362C43.8307 59.3086 44.382 57.988 44.5632 57.651C45.045 56.7575 45.5847 55.6368 45.5732 54.6023C45.5732 54.4573 45.3534 54.3789 45.2879 54.5239C44.9487 55.2881 44.806 56.1267 44.4591 56.8986C44.1661 57.553 43.7806 58.4661 43.2217 58.9402C43.2075 58.9547 43.1973 58.9727 43.192 58.9924C43.1868 59.0122 43.1867 59.033 43.1917 59.0527C43.1968 59.0725 43.2068 59.0906 43.2209 59.1053C43.2349 59.1199 43.2524 59.1305 43.2718 59.1362Z" fill="white"/><path d="M62.1842 8.3192C59.9329 4.50636 56.5676 2.24922 52.4081 1.02268C44.228 -1.39512 34.7411 0.372191 29.3327 7.46101C26.9041 10.639 25.9095 14.2363 25.7553 18.202C25.5895 22.4185 26.1022 26.5252 28.6658 29.9775C29.7794 31.435 31.0887 32.7263 32.5554 33.8139C34.1204 34.9895 35.9014 36.2787 37.7132 37.035C41.6684 38.6808 46.6874 38.3595 50.7004 37.1369C54.7331 35.8743 58.3873 33.5979 61.3245 30.5183C63.8996 27.7557 64.713 24.1427 65.0638 20.4552C65.3632 16.2044 64.357 11.9639 62.1842 8.3192Z" fill="#322A2D"/><path d="M41.9575 36.9683H48.7151V41.8979C47.6744 42.4612 46.5134 42.7558 45.3344 42.7558C44.1553 42.7558 42.9943 42.4612 41.9536 41.8979L41.9575 36.9683Z" fill="#FFB07F"/><path d="M32.6129 22.7085C32.3951 22.0918 32.0583 21.5256 31.6222 21.0431C31.3372 20.7533 30.98 20.5478 30.5889 20.4484C30.1978 20.349 29.7875 20.3595 29.4018 20.4788C28.5923 20.8002 28.1721 21.7054 27.9485 22.5635C27.5129 24.2407 27.563 26.1217 28.4805 27.5912C29.3979 29.0606 31.2637 29.9619 32.8751 29.3976C33.1123 29.3325 33.3247 29.1959 33.4841 29.0058C33.6608 28.678 33.7089 28.2945 33.6191 27.9321C33.3762 26.055 33.2953 24.4562 32.6129 22.7085Z" fill="#FF9D60"/><path d="M58.0633 22.7085C58.2807 22.0925 58.6161 21.5265 59.0501 21.0431C59.3352 20.7533 59.6923 20.5478 60.0834 20.4484C60.4745 20.349 60.8849 20.3595 61.2705 20.4788C62.0839 20.8002 62.5041 21.7054 62.7277 22.5635C63.1594 24.2407 63.1132 26.1217 62.1919 27.5912C61.2705 29.0606 59.4125 29.9619 57.8011 29.3976C57.5635 29.3334 57.3509 29.1966 57.192 29.0058C57.0141 28.6785 56.9646 28.295 57.0533 27.9321C57.2961 26.055 57.3694 24.4562 58.0633 22.7085Z" fill="#FF9D60"/><path d="M59.4278 21.4585C59.4588 19.5372 58.9822 17.6427 58.0477 15.9724C56.4749 13.0922 52.6046 9.95728 45.2456 9.95728C37.8866 9.95728 34.2013 13.0922 32.6285 15.9685C31.6961 17.6396 31.2197 19.5336 31.2484 21.4546C31.0942 23.8058 31.9269 31.4471 33.0332 33.6024C34.9607 37.3094 41.4099 39.0571 45.2456 39.0571C49.0812 39.0571 55.7618 37.3251 57.6507 33.6024C58.8148 31.2825 59.5935 23.5158 59.4278 21.4585Z" fill="#FFB07F"/><path d="M44.9449 27.8145C45.0341 28.6404 44.9174 29.4759 44.6057 30.244C44.4488 30.5099 44.3875 30.8229 44.4322 31.1296C44.55 31.5096 44.7535 31.8564 45.0266 32.1421C45.2997 32.4279 45.6348 32.6448 46.005 32.7755C46.2324 32.8617 46.3365 32.5286 46.1592 32.4032C45.7737 32.1171 45.2456 31.8232 45.0374 31.3412C44.7714 30.726 45.1261 30.342 45.2841 29.8208C45.4923 29.1514 45.4923 28.433 45.2841 27.7635C45.2225 27.5793 44.8986 27.5989 44.9295 27.8145H44.9449Z" fill="#F1703D"/><path d="M41.6259 33.7042C42.4431 34.8249 44.1547 35.5538 45.5116 35.495C47.0883 35.4245 48.4375 34.3939 49.5708 33.375C49.8021 33.1673 49.4668 32.8382 49.2393 33.0341C48.1522 33.9785 46.8531 35.0326 45.342 35.013C43.8926 34.9934 42.9982 33.9981 41.7184 33.5866C41.6567 33.567 41.5835 33.6493 41.6259 33.7042Z" fill="#F1703D"/><path d="M37.4123 22.7555C37.9609 22.3423 38.5826 22.0403 39.2434 21.8659C39.8833 21.7327 40.504 21.9326 41.1246 21.815C41.3829 21.7641 41.3598 21.4231 41.1902 21.3017C40.635 20.8863 39.6906 21.0195 39.0545 21.1645C38.2873 21.3128 37.5835 21.6972 37.0384 22.2657C36.8187 22.5164 37.104 22.9553 37.4239 22.7555H37.4123Z" fill="#322A2D"/><path d="M53.6339 22.2656C52.8243 21.3487 50.5846 20.4787 49.486 21.3016C49.3164 21.431 49.2933 21.764 49.5515 21.815C50.1722 21.9325 50.789 21.7288 51.4289 21.8659C52.0906 22.0411 52.7134 22.343 53.2638 22.7555C53.5683 22.9514 53.8575 22.5203 53.6493 22.2656H53.6339Z" fill="#322A2D"/><path d="M42.3273 38.9981C44.2943 39.5706 46.3778 39.5855 48.3525 39.0412C48.3812 39.0329 48.4054 39.0134 48.4198 38.9869C48.4343 38.9605 48.4378 38.9292 48.4296 38.9001C48.4215 38.871 48.4022 38.8464 48.3762 38.8317C48.3502 38.817 48.3195 38.8135 48.2909 38.8218C46.3403 39.4057 44.3434 39.2136 42.3774 38.8218C42.3531 38.8183 42.3283 38.824 42.3078 38.8379C42.2873 38.8518 42.2726 38.8728 42.2664 38.897C42.2602 38.9212 42.263 38.9469 42.2742 38.9692C42.2855 38.9914 42.3044 39.0087 42.3273 39.0177V38.9981Z" fill="#F1703D"/><path d="M37.3543 25.0909C37.2001 26.4506 37.7398 28.5981 39.3511 28.7391C41.2516 28.9037 41.6217 25.9961 41.2362 24.6598C41.136 24.3032 40.5385 24.3502 40.5732 24.7499C40.6464 25.5846 40.7081 28.7234 39.0505 27.8849C38.0983 27.4107 38.0752 26.0039 37.9942 25.0752C37.9942 24.9889 37.9605 24.9062 37.9005 24.8452C37.8405 24.7842 37.7591 24.7499 37.6743 24.7499C37.5894 24.7499 37.508 24.7842 37.448 24.8452C37.388 24.9062 37.3543 24.9889 37.3543 25.0752V25.0909Z" fill="#322A2D"/><path d="M39.3781 29.5504L39.4514 29.4877L39.3473 29.5464C39.7328 29.4328 39.7328 28.9155 39.6518 28.5825C39.5478 28.1553 38.904 28.3356 39.0042 28.7666C39.0543 28.9939 38.9502 29.2408 39.0852 29.4406L39.0543 29.3192C39.0563 29.3505 39.0563 29.3819 39.0543 29.4132C39.0555 29.4508 39.0674 29.4872 39.0884 29.5181C39.1094 29.5491 39.1387 29.5732 39.1728 29.5877C39.207 29.6021 39.2445 29.6063 39.2809 29.5997C39.3173 29.5931 39.351 29.5759 39.3781 29.5504Z" fill="#322A2D"/><path d="M40.5619 29.3506L40.5812 29.2996L40.4848 29.4015H40.5157C40.5637 29.3733 40.6036 29.3328 40.6314 29.2839C40.6591 29.2351 40.6737 29.1797 40.6737 29.1233C40.6966 28.902 40.6702 28.6784 40.5966 28.4689C40.5706 28.3803 40.512 28.3053 40.4331 28.2593C40.3542 28.2134 40.2609 28.2 40.1726 28.222C40.0844 28.2468 40.0093 28.3059 39.9638 28.3867C39.9184 28.4674 39.9061 28.5632 39.9297 28.653C39.9766 28.7659 40.0089 28.8845 40.0261 29.0057C40.0492 29.1781 40.0492 29.3114 40.2111 29.4172L40.0878 29.2526V29.3035C40.1027 29.3508 40.1305 29.3929 40.168 29.4247C40.2055 29.4566 40.2511 29.477 40.2996 29.4836C40.348 29.4901 40.3973 29.4826 40.4417 29.4618C40.4861 29.4411 40.5238 29.4079 40.5504 29.3662L40.5619 29.3506Z" fill="#322A2D"/><path d="M52.6778 25.091C52.6007 26.0197 52.5775 27.4422 51.6254 27.9007C49.9639 28.7236 50.0294 25.5847 50.0834 24.7657C50.1181 24.3739 49.5206 24.3151 49.4165 24.6756C49.031 26.008 49.4165 28.9195 51.3054 28.7549C52.9168 28.6139 53.4565 26.4664 53.2984 25.1067C53.2984 25.0204 53.2647 24.9377 53.2047 24.8767C53.1447 24.8157 53.0633 24.7814 52.9784 24.7814C52.8936 24.7814 52.8122 24.8157 52.7522 24.8767C52.6922 24.9377 52.6585 25.0204 52.6585 25.1067L52.6778 25.091Z" fill="#322A2D"/><path d="M51.6213 29.3975C51.6194 29.3662 51.6194 29.3347 51.6213 29.3034L51.5905 29.4249C51.7293 29.2251 51.6252 28.9782 51.6753 28.7509C51.6914 28.6659 51.6754 28.5778 51.6305 28.5042C51.5856 28.4306 51.5151 28.3769 51.4331 28.3537C51.351 28.3305 51.2633 28.3395 51.1875 28.379C51.1117 28.4184 51.0533 28.4855 51.0238 28.5667C50.9429 28.8998 50.9429 29.4171 51.3284 29.5307L51.2282 29.4719L51.2975 29.5346C51.3251 29.5598 51.3591 29.5765 51.3955 29.5829C51.432 29.5893 51.4696 29.5851 51.5038 29.5708C51.538 29.5564 51.5676 29.5326 51.5891 29.5019C51.6105 29.4712 51.6231 29.4351 51.6252 29.3975H51.6213Z" fill="#322A2D"/><path d="M50.577 29.2877V29.2368L50.4536 29.4014C50.6232 29.2956 50.6194 29.1663 50.6425 28.9899C50.6601 28.8692 50.6912 28.7509 50.735 28.6372C50.7588 28.5479 50.7471 28.4526 50.7023 28.372C50.6576 28.2913 50.5835 28.2318 50.496 28.2062C50.4076 28.1832 50.3139 28.1961 50.2347 28.2422C50.1556 28.2883 50.0972 28.3639 50.072 28.4531C49.9965 28.6621 49.9701 28.8862 49.9949 29.1075C49.9941 29.164 50.0083 29.2197 50.0362 29.2687C50.064 29.3177 50.1043 29.3581 50.1529 29.3857H50.1799L50.0835 29.2838L50.1067 29.3348C50.1333 29.3764 50.1709 29.4096 50.2153 29.4303C50.2597 29.4511 50.309 29.4587 50.3574 29.4521C50.4059 29.4455 50.4515 29.4251 50.489 29.3933C50.5265 29.3614 50.5543 29.3194 50.5692 29.2721L50.577 29.2877Z" fill="#322A2D"/><path d="M59.821 16.7011C59.0311 13.5934 57.1142 10.9043 54.455 9.17341C52.0495 7.6373 49.1314 7.01032 46.3211 6.88884C43.363 6.71594 40.4063 7.25289 37.69 8.4563C34.7487 9.83958 32.5784 12.4572 31.3101 15.4511C29.8992 18.7819 29.5484 22.7045 31.5414 25.8551C31.56 25.8842 31.5854 25.9081 31.6153 25.9247C31.6453 25.9413 31.6789 25.9499 31.713 25.9499C31.7471 25.9499 31.7806 25.9413 31.8106 25.9247C31.8406 25.9081 31.866 25.8842 31.8845 25.8551C34.7179 22.0148 36.6877 17.669 38.8233 13.4212C39.4864 15.2669 41.5218 16.4033 42.7476 17.814C42.7756 17.8413 42.8108 17.8598 42.8489 17.8672C42.8871 17.8746 42.9265 17.8706 42.9624 17.8557C42.9983 17.8407 43.0292 17.8155 43.0513 17.7831C43.0734 17.7506 43.0857 17.7124 43.0869 17.6729C42.9828 16.2779 41.9574 15.0239 41.8186 13.6603C43.0483 16.5091 44.5672 19.4285 47.4545 20.7883C47.4885 20.8067 47.5271 20.8147 47.5656 20.8114C47.604 20.8081 47.6407 20.7936 47.6713 20.7696C47.7018 20.7456 47.7249 20.7131 47.7377 20.6761C47.7505 20.6391 47.7526 20.5991 47.7436 20.561C47.1394 18.2361 46.8336 15.8415 46.8338 13.4369C48.1715 15.3688 50.5808 16.4386 52.435 17.7474C52.5892 17.8532 52.755 17.6769 52.7241 17.5201C52.6438 17.1555 52.468 16.8197 52.2153 16.5483C54.767 19.1482 56.6817 22.3214 57.8049 25.812C57.8157 25.8497 57.8371 25.8834 57.8664 25.9091C57.8956 25.9348 57.9316 25.9513 57.9699 25.9567C58.0082 25.9621 58.0472 25.9561 58.0822 25.9394C58.1172 25.9228 58.1468 25.8962 58.1673 25.8629C59.0495 24.5343 59.6519 23.0345 59.9365 21.4578C60.2211 19.8811 60.1818 18.2616 59.821 16.7011Z" fill="#322A2D"/><path d="M42.8324 62.5257C42.5279 62.0476 42.1077 61.115 41.4909 60.9582C41.3172 60.9235 41.1372 60.9426 40.9743 61.0131C40.2997 61.2208 39.6444 61.6479 38.9813 61.9066C36.6684 62.8118 34.2128 63.3721 31.8112 64.0305C32.5205 61.0209 33.145 57.9918 33.7888 54.9666C34.1203 53.3992 34.4557 51.8317 34.8142 50.2643C35.1341 48.8457 35.6738 47.341 35.5852 45.8676C35.5986 45.4468 35.4784 45.0329 35.2423 44.6871C35.0062 44.3413 34.6669 44.0819 34.2745 43.9474C33.5806 43.6574 32.4319 43.4106 31.6994 43.6927C29.772 44.4255 29.1475 47.0941 28.5847 48.8301C26.8847 54.0518 25.5742 59.3962 24.6642 64.8181C24.3057 66.9734 23.6427 69.4774 24.7259 71.5033C25.1769 72.3458 25.759 72.9179 26.7497 72.8983C28.0488 72.8748 29.4173 72.3419 30.6547 71.9853C33.9074 71.1024 37.0387 69.8097 39.9759 68.1372C40.6929 67.714 41.3945 67.2594 42.0691 66.7696C42.5356 66.4365 43.6843 65.8056 43.9349 65.2884C44.2896 64.5516 43.1524 63.1135 42.8324 62.5257Z" fill="#FFB07F"/><path d="M46.14 64.7437C45.7037 64.758 45.2851 64.9224 44.9527 65.2101C44.5248 65.4961 44.1817 65.8802 43.75 66.1897C42.316 67.2634 40.9629 67.6318 39.6137 66.7893C37.9445 65.7469 37.4973 63.2625 38.4572 62.4788C39.2847 61.7601 40.19 61.1395 41.1556 60.6292C42.059 60.0858 43.0605 59.7327 44.1008 59.5907C45.6428 59.4614 49.2085 61.2993 49.4977 61.5892C50.099 62.1535 49.5825 62.6198 49.1816 62.7413C49.7213 63.0078 49.9294 63.3996 49.7945 63.8464C49.6596 64.2931 49.1739 64.3284 48.638 64.1795C49.197 64.5204 49.4553 65.0533 49.0736 65.2532C48.7537 65.4177 48.3026 65.2806 47.8323 65.1474C47.283 64.9555 46.716 64.8202 46.14 64.7437Z" fill="#FFB07F"/><path d="M46.1399 64.6065C45.4708 64.7013 44.8493 65.0117 44.3666 65.4921C43.2834 66.3895 41.9342 67.4514 40.4308 67.0047C39.8551 66.8147 39.3401 66.4713 38.9394 66.0102C38.5387 65.5491 38.267 64.9873 38.1525 64.3832C37.8827 63.0077 38.6845 62.3807 39.6945 61.6636C41.4523 60.4214 43.4993 59.3359 45.658 59.9904C46.5128 60.2593 47.3454 60.596 48.1483 60.9974C48.4066 61.1228 48.6648 61.2522 48.9193 61.3893C49.1737 61.5265 50.28 62.1025 49.1236 62.5923C49.0982 62.6005 49.0757 62.6159 49.0587 62.6367C49.0417 62.6575 49.0309 62.6828 49.0276 62.7096C49.0244 62.7365 49.0288 62.7637 49.0403 62.788C49.0519 62.8124 49.0701 62.8329 49.0927 62.847C48.9424 63.2389 48.7921 63.6308 48.6456 64.0226C48.614 64.0154 48.5809 64.0196 48.552 64.0345C48.5232 64.0495 48.5004 64.0742 48.4876 64.1044C48.4747 64.1347 48.4727 64.1685 48.4819 64.2001C48.491 64.2317 48.5107 64.259 48.5376 64.2773L48.183 65.0846C48.0365 65.0493 47.8939 65.0062 47.7512 64.9631C47.6086 64.92 47.3657 64.8456 47.1768 64.7946C46.8349 64.6905 46.4837 64.6209 46.1283 64.5869C45.9548 64.5869 45.9548 64.8495 46.1283 64.8651C46.8376 64.92 48.4721 65.8409 49.1236 65.3393C49.6902 64.9004 49.0657 64.3205 48.6764 64.0344L48.5723 64.2891C49.9254 64.5673 50.4304 63.3369 49.2315 62.5962L49.1968 62.851C51.2785 61.9654 48.075 60.6213 47.3889 60.3234C46.4174 59.9041 45.3072 59.4143 44.2317 59.4182C42.7283 59.4182 41.1786 60.3391 39.9527 61.1346C39.1278 61.6675 38.0253 62.2749 37.8403 63.3369C37.7815 63.8346 37.8252 64.3393 37.9686 64.8189C38.1119 65.2985 38.3518 65.7426 38.6729 66.123C39.0245 66.5747 39.4878 66.9234 40.0154 67.1333C40.5431 67.3433 41.1161 67.4071 41.6759 67.3182C42.4543 67.1461 43.1836 66.7949 43.8077 66.2915C44.5324 65.7429 45.1646 64.9396 46.1206 64.8651C46.3172 64.8691 46.3172 64.5908 46.1399 64.6065Z" fill="#FFB07F"/><path d="M45.2456 63.4388C46.4252 63.7523 47.5586 63.8698 48.6649 64.4459C48.8269 64.5281 48.9733 64.2813 48.8076 64.199C47.718 63.6063 46.5045 63.2878 45.2688 63.2703C45.2487 63.2708 45.2294 63.2785 45.2144 63.2921C45.1994 63.3057 45.1896 63.3243 45.1868 63.3445C45.1841 63.3648 45.1885 63.3854 45.1992 63.4026C45.21 63.4199 45.2264 63.4327 45.2456 63.4388Z" fill="#F1703D"/><path d="M44.7557 61.4794C46.2955 61.6812 47.7973 62.1144 49.2119 62.7647C49.3816 62.843 49.528 62.5922 49.3584 62.51C47.9194 61.8224 46.3684 61.4093 44.7827 61.2913C44.6786 61.2913 44.6554 61.4598 44.7557 61.4754V61.4794Z" fill="#F1703D"/><path d="M65.0172 66.2054C63.9803 60.2451 62.7043 54.281 60.7306 48.5715C60.3451 47.4312 59.9056 46.2987 59.4392 45.1858C59.0537 44.308 58.8802 43.6419 57.9782 43.297C56.5095 42.7406 54.5782 43.105 54.0269 44.8018C53.6877 45.8441 54.0924 47.153 54.2582 48.2188C54.5165 49.8529 54.8056 51.4752 55.1217 53.0975C55.7308 56.2325 56.4324 59.3674 57.1802 62.5023C57.5349 63.9835 57.8972 65.4569 58.2712 66.9343C58.5757 68.1099 59.285 69.7087 59.1115 70.947C59.0845 71.1586 59.2734 70.6648 59.1347 71.0841C59.0744 71.1882 59.0033 71.2854 58.9226 71.3741C58.753 71.6131 58.5911 71.86 58.4331 72.1069C57.9551 72.8632 57.5117 73.6469 57.0684 74.4228C54.6128 78.7333 52.1688 83.518 48.2253 86.6372C48.1997 86.661 48.1814 86.6917 48.1726 86.7257C48.1637 86.7598 48.1646 86.7957 48.1752 86.8292C48.4411 87.5698 48.2445 88.4319 48.8151 89.0041C49.2006 89.3959 49.8058 89.9249 50.357 89.8818C50.9584 89.8387 52.0031 89.0158 52.5196 88.7062C53.2264 88.283 53.9138 87.835 54.582 87.3621C55.8908 86.4365 57.1304 85.4136 58.2904 84.3017C60.6304 82.0563 62.8007 79.3955 64.2231 76.4448C65.8229 73.0826 65.634 69.7792 65.0172 66.2054Z" fill="#FFB07F"/><path d="M41.506 90.5637C42.3117 91.1593 43.7457 91.8764 44.775 91.7393C45.8015 91.6643 46.8166 91.4724 47.8011 91.1671C48.916 90.7973 49.9594 90.2338 50.885 89.5017C51.5519 88.9609 52.1263 88.62 52.0415 87.7501C51.9567 86.9664 51.4941 85.7124 50.9081 85.3284C50.4825 85.0785 49.996 84.9562 49.5049 84.9757C48.3485 84.8699 47.4695 85.877 46.7795 86.7979C46.634 87.0279 46.4438 87.2252 46.2206 87.3778C45.9637 87.507 45.6703 87.5403 45.3917 87.4719C44.8359 87.3063 44.3136 87.0408 43.8498 86.6881C43.3829 86.3348 42.8203 86.1364 42.2384 86.1199C42.0862 86.1311 41.939 86.1808 41.8104 86.2644C41.6818 86.3481 41.5757 86.463 41.5019 86.5988C41.428 86.7346 41.3886 86.887 41.3873 87.0422C41.386 87.1974 41.4228 87.3505 41.4944 87.4875C40.8777 86.9311 40.338 87.5346 40.257 88.0518C40.1761 88.5691 40.7774 89.0668 40.7774 89.0668C40.3919 88.9296 40.3148 89.3136 40.4652 89.5213C40.7739 89.9061 41.1229 90.2557 41.506 90.5637Z" fill="#FFB07F"/><path d="M41.4486 90.6811C42.4856 91.41 43.6845 91.986 44.9681 91.8567C46.4985 91.7417 47.9929 91.3293 49.3704 90.6419C50.1954 90.2069 51.7759 89.3762 52.0689 88.373C52.331 87.5109 51.8067 86.1276 51.2054 85.5085C50.8433 85.1936 50.4041 84.9843 49.9344 84.9029C49.4647 84.8215 48.982 84.871 48.5378 85.0461C47.9615 85.3215 47.458 85.7326 47.0691 86.2452C46.8153 86.5832 46.5031 86.8713 46.1477 87.0955C45.5849 87.46 45.3768 87.4286 44.7677 87.17C44.4987 87.042 44.2408 86.8912 43.9967 86.7194C43.3298 86.3001 42.1348 85.5869 41.4679 86.4098C41.2983 86.6175 41.306 87.1582 41.1942 87.2366C41.0824 87.315 40.7277 87.1974 40.535 87.3189C40.3515 87.4436 40.2141 87.6268 40.1443 87.8396C40.0745 88.0525 40.0763 88.2828 40.1495 88.4945C40.2144 88.6624 40.3055 88.8185 40.4193 88.9569C40.6853 89.3135 40.4656 88.9569 40.4463 88.9922C40.3307 89.2194 40.1958 89.1959 40.2613 89.5055C40.3615 89.9562 41.0593 90.4068 41.3908 90.6811C41.4987 90.7673 41.6529 90.6145 41.5411 90.5244C41.3599 90.3794 41.1826 90.2305 41.013 90.0698C40.959 90.0188 40.1958 89.1999 40.7123 89.2351C40.7339 89.2354 40.7551 89.2292 40.7731 89.2171C40.7911 89.2051 40.8052 89.1879 40.8135 89.1676C40.8218 89.1474 40.824 89.1251 40.8197 89.1036C40.8154 89.0821 40.8048 89.0624 40.7894 89.047C40.7554 89.0177 40.7232 88.9863 40.693 88.953C40.3127 88.5925 40.5388 88.1549 41.3715 87.6402C41.3904 87.6506 41.4118 87.6551 41.4332 87.6534C41.4546 87.6517 41.4751 87.6437 41.4922 87.6305C41.5093 87.6173 41.5222 87.5994 41.5295 87.5788C41.5368 87.5583 41.5382 87.5361 41.5334 87.5148L42.8132 86.3784L43.4262 86.6567C43.6305 86.7703 43.8117 86.9075 44.0237 87.0485C44.3222 87.2515 44.6414 87.421 44.9758 87.554C45.2134 87.6609 45.4748 87.7006 45.7327 87.6688C45.9905 87.6371 46.2352 87.5352 46.4407 87.3738C47.1153 86.8173 47.443 85.9709 48.2217 85.4928C48.7645 85.1685 49.4101 85.0716 50.0219 85.2224C50.8854 85.4184 51.3133 85.9552 51.614 86.7703C51.8686 87.3304 51.9138 87.9656 51.7412 88.5572C51.5562 89.0078 50.8276 89.4585 50.4691 89.7328C49.6318 90.3389 48.7107 90.8157 47.736 91.1474C45.5155 91.9116 43.4686 91.9116 41.5219 90.54C41.4448 90.3872 41.3368 90.5792 41.4486 90.6811Z" fill="#FFB07F"/><path d="M49.4859 85.6771C49.3356 86.5667 47.8862 87.3308 47.173 87.4405C45.8238 87.6482 45.4845 86.7979 45.4691 86.5549C45.4498 86.214 45.3458 85.7006 46.8916 85.5478C47.971 85.442 49.6671 84.6936 49.4859 85.6771Z" fill="#FFB07F"/><path d="M49.4514 85.6615C49.1391 86.504 48.133 87.1153 47.3003 87.3034C46.6604 87.4484 45.6196 87.3034 45.5888 86.453C45.5579 85.7046 46.6064 85.7163 47.1307 85.634C47.4699 85.5792 49.4706 84.9326 49.409 85.6772C49.409 85.8182 49.6133 85.8182 49.6248 85.6772C49.7096 84.6348 48.1446 85.1991 47.6319 85.3127C46.9534 85.4577 45.4307 85.3676 45.3883 86.3825C45.2958 88.6083 49.3049 87.3152 49.5632 85.6889C49.5667 85.6738 49.5643 85.6579 49.5563 85.6447C49.5484 85.6315 49.5356 85.622 49.5208 85.6184C49.5059 85.6147 49.4903 85.6172 49.4773 85.6253C49.4643 85.6334 49.4549 85.6464 49.4514 85.6615Z" fill="#FFB07F"/><path d="M49.2008 87.7187C48.133 87.2681 47.0498 87.4719 45.9434 87.2407C45.8085 87.2093 45.7468 87.4248 45.8856 87.4523C46.2703 87.5596 46.6664 87.6188 47.0652 87.6286C47.7722 87.6236 48.4781 87.6852 49.1738 87.8128C49.1847 87.8128 49.1953 87.8093 49.2041 87.8027C49.2128 87.7961 49.2192 87.7867 49.2222 87.7761C49.2253 87.7655 49.2248 87.7541 49.221 87.7438C49.2171 87.7334 49.21 87.7246 49.2008 87.7187Z" fill="#F1703D"/><path d="M45.2994 89.2665C43.8924 89.3135 42.4121 88.1575 41.379 87.268C41.2749 87.174 41.1207 87.3307 41.2286 87.4248C42.3157 88.3652 43.7883 89.5683 45.2994 89.3841C45.3649 89.3841 45.3688 89.2744 45.2994 89.2744V89.2665Z" fill="#F1703D"/><path d="M44.0583 90.7634C42.8054 90.6263 41.6528 89.819 40.7122 89.0196C40.6081 88.9295 40.4539 89.0823 40.558 89.1764C41.5333 90.011 42.7283 90.8614 44.0583 90.83C44.1007 90.83 44.0968 90.7673 44.0583 90.7634Z" fill="#F1703D"/><path d="M45.4458 102.01C46.6704 101.755 47.876 101.413 49.0539 100.987C49.5204 100.842 50.2104 100.693 50.5959 100.341C50.6383 100.298 50.5959 100.204 50.5458 100.211C49.9406 100.286 49.2583 100.689 48.6646 100.874C47.5693 101.175 46.4931 101.544 45.4419 101.979V102.01H45.4458Z" fill="#2A9C9E"/><path d="M38.6652 96.7669C38.5856 96.4668 38.5251 96.1618 38.4841 95.8539C38.4841 95.7128 38.2451 95.7089 38.2605 95.8539C38.2918 96.1834 38.3603 96.5082 38.4648 96.8218C38.4735 96.847 38.4912 96.8679 38.5145 96.8804C38.5377 96.8928 38.5647 96.8959 38.5901 96.8889C38.6154 96.882 38.6373 96.8656 38.6512 96.8429C38.6652 96.8203 38.6702 96.7931 38.6652 96.7669Z" fill="#2A9C9E"/><path d="M38.4765 95.8223C40.6121 94.6468 42.7901 93.4907 44.8409 92.1819C44.9566 92.1075 44.8409 91.9194 44.733 91.9899C42.6513 93.2556 40.3847 94.2706 38.3955 95.6774C38.3862 95.6828 38.3779 95.69 38.3713 95.6986C38.3647 95.7073 38.3598 95.7171 38.357 95.7277C38.3541 95.7382 38.3533 95.7493 38.3546 95.7601C38.356 95.771 38.3594 95.7815 38.3647 95.791C38.37 95.8005 38.3771 95.8089 38.3856 95.8156C38.3941 95.8223 38.4038 95.8273 38.4142 95.8302C38.4246 95.8331 38.4354 95.8339 38.4461 95.8326C38.4568 95.8312 38.4671 95.8277 38.4765 95.8223Z" fill="#2A9C9E"/><path d="M68.7103 20.949C67.9393 18.7624 66.2432 16.662 63.8763 16.2466C62.4692 16.0076 59.8132 16.807 61.1778 18.6252C61.9488 19.6598 62.9858 20.2515 63.4676 21.525C64.0572 23.2469 64.2084 25.0924 63.9071 26.8897C63.5505 30.0229 62.256 32.9692 60.1987 35.3304C58.5025 37.2427 56.2744 38.72 54.8481 40.8596C53.5508 42.8393 52.8158 45.1444 52.724 47.5213C52.6161 49.414 52.5698 51.7338 53.3292 53.5168C53.9653 55.0098 55.0177 54.1085 55.6191 53.0818C56.5869 51.4311 57.1304 49.5593 57.1996 47.6389C57.4478 48.4553 57.5776 49.3041 57.5851 50.1585C57.5851 51.0637 57.2612 52.0277 57.4116 52.9329C57.4733 53.3248 57.6853 53.9283 58.144 53.991C58.5295 54.0458 58.9998 53.5599 59.3005 53.3052C60.2528 52.4491 60.9635 51.3505 61.3592 50.1224C61.7549 48.8943 61.8213 47.5812 61.5518 46.3183C62.1107 47.1529 62.6735 47.9954 63.298 48.7635C63.6218 49.1554 63.9996 49.4336 64.5162 49.1554C66.2239 48.2737 64.7012 45.6678 64.2271 44.5549C63.0089 41.6982 64.7706 38.5437 65.9502 35.9652C67.0489 33.5631 68.1861 31.1845 68.8761 28.6217C69.4736 26.149 69.5854 23.4138 68.7103 20.949Z" fill="#322A2D"/><path d="M38.8194 8.91086C37.9539 9.87682 37.1479 10.8963 36.4063 11.9635C35.5258 13.0769 34.7404 14.2646 34.0586 15.5138C33.5282 16.5815 33.1393 17.7161 32.9022 18.8877C32.6516 20.0633 32.3278 21.4388 32.4241 22.6379C32.4261 22.7029 32.4508 22.7652 32.4938 22.8134C32.5368 22.8617 32.5952 22.8929 32.6587 22.9014C32.7222 22.9098 32.7866 22.8951 32.8404 22.8597C32.8942 22.8244 32.9338 22.7707 32.9523 22.7084C33.3031 21.6151 33.2954 20.3925 33.5189 19.26C33.7578 17.948 34.1893 16.6798 34.7988 15.4981C36.0092 13.2331 37.7748 11.3169 38.9544 9.03234C39.0045 8.93437 38.8811 8.82857 38.804 8.91086H38.8194Z" fill="#211E1F"/><path d="M34.5481 11.9791C33.3377 13.1116 32.4703 14.7888 31.6993 16.2426C31.0402 17.477 30.1574 19.0915 30.4542 20.5531C30.4705 20.6067 30.5033 20.6535 30.5477 20.6868C30.5921 20.72 30.6458 20.738 30.7009 20.738C30.7561 20.738 30.8098 20.72 30.8542 20.6868C30.8986 20.6535 30.9313 20.6067 30.9476 20.5531C31.1481 19.836 31.2059 19.0993 31.4526 18.3939C31.749 17.5969 32.1046 16.824 32.5166 16.0819C33.2143 14.7574 34.1511 13.527 34.7717 12.1633C34.7894 12.1329 34.7955 12.097 34.789 12.0624C34.7825 12.0277 34.7637 11.9966 34.7363 11.975C34.7089 11.9534 34.6746 11.9427 34.64 11.9449C34.6054 11.9471 34.5727 11.962 34.5481 11.987V11.9791Z" fill="#211E1F"/><path d="M39.5786 9.05972C38.9271 9.94533 39.2625 11.4383 39.5478 12.4219C39.8912 13.6627 40.5112 14.8065 41.3596 15.7645C41.4116 15.8143 41.4794 15.8435 41.5508 15.8471C41.6222 15.8507 41.6924 15.8283 41.7491 15.7839C41.8057 15.7396 41.8449 15.6762 41.8597 15.6052C41.8745 15.5341 41.8639 15.46 41.8299 15.3962C41.2092 14.3616 40.5616 13.4094 40.2031 12.2377C39.8831 11.1993 40.1029 10.0864 39.7945 9.10283C39.7881 9.08031 39.7755 9.06014 39.7581 9.04476C39.7407 9.02938 39.7193 9.01943 39.6965 9.01611C39.6737 9.0128 39.6504 9.01626 39.6295 9.02609C39.6086 9.03591 39.5909 9.05167 39.5786 9.07148V9.05972Z" fill="#211E1F"/><path d="M40.7971 9.74165C40.8819 11.7598 42.817 13.0568 43.854 14.5655C44.9295 16.133 45.0606 18.3627 46.4407 19.7107C46.4895 19.7567 46.5528 19.7837 46.6193 19.7868C46.6859 19.7899 46.7513 19.7689 46.8041 19.7275C46.8568 19.6861 46.8934 19.627 46.9073 19.5608C46.9212 19.4946 46.9116 19.4255 46.8801 19.3658C46.4012 18.5176 45.9813 17.6364 45.6234 16.7286C45.3473 15.9003 44.9828 15.1053 44.5363 14.3578C44.0142 13.6696 43.4503 13.0153 42.8479 12.3985C42.1193 11.5521 41.7492 10.5332 41.0939 9.65544C41.0091 9.5418 40.7894 9.5614 40.7971 9.73773V9.74165Z" fill="#211E1F"/><path d="M41.9108 9.79249C42.5546 10.6468 43.3217 11.3599 43.9038 12.2887C44.4836 13.297 44.9751 14.3552 45.3725 15.451C45.3924 15.5253 45.4406 15.5885 45.5064 15.6267C45.5722 15.665 45.6502 15.675 45.7233 15.6548C45.7964 15.6345 45.8586 15.5856 45.8962 15.5187C45.9338 15.4518 45.9437 15.3725 45.9238 15.2982C45.5383 13.2213 43.9963 10.6154 42.1498 9.54954C42.011 9.46725 41.799 9.64359 41.9108 9.79249Z" fill="#211E1F"/><path d="M45.3456 7.68042H45.2454C45.1957 7.68067 45.1475 7.69776 45.1084 7.72898C45.0693 7.76021 45.0415 7.80379 45.0295 7.85284C44.8252 9.1695 47.2962 9.9258 48.1135 10.5528C48.9873 11.2221 49.7545 12.0244 50.3879 12.9314C50.9391 13.7151 51.2398 14.6791 51.8257 15.4276C51.8591 15.4559 51.8995 15.4743 51.9425 15.4807C51.9856 15.4871 52.0295 15.4812 52.0694 15.4638C52.1094 15.4463 52.1438 15.4179 52.1688 15.3818C52.1938 15.3457 52.2085 15.3032 52.2112 15.2591C52.1033 13.4957 50.4071 11.6226 49.1543 10.5293C48.4189 9.91207 47.6202 9.37734 46.772 8.93438C46.2375 8.67008 45.7725 8.28061 45.415 7.79798C45.3919 7.76663 45.3611 7.70001 45.3187 7.69218L45.3456 7.68042Z" fill="#211E1F"/><path d="M50.9625 11.2033C52.7319 12.712 53.9886 14.6752 55.2029 16.6424C55.7983 17.566 56.324 18.534 56.7757 19.5383C57.2962 20.7491 57.4157 22.0031 57.7973 23.2453C57.8093 23.2879 57.8345 23.3253 57.8693 23.352C57.9041 23.3787 57.9465 23.3931 57.99 23.3931C58.0336 23.3931 58.076 23.3787 58.1108 23.352C58.1455 23.3253 58.1708 23.2879 58.1828 23.2453C58.6569 20.9607 57.0263 18.2843 55.893 16.4464C54.6363 14.4283 53.2948 12.0968 51.2671 10.7723C51.0127 10.6077 50.7004 11.0034 50.9394 11.2033H50.9625Z" fill="#211E1F"/><path d="M56.3591 13.5937C56.9104 14.8163 57.7855 15.7646 58.2172 17.0812C58.649 18.3979 58.6027 19.6636 58.6836 20.9999C58.6836 21.3173 59.1771 21.4153 59.2542 21.0783C59.5664 19.6832 59.2542 18.0492 58.7723 16.7325C58.3483 15.5569 57.6428 14.0247 56.5403 13.3899C56.515 13.3769 56.4862 13.3724 56.4582 13.377C56.4302 13.3816 56.4043 13.395 56.3842 13.4154C56.3642 13.4358 56.3509 13.4621 56.3464 13.4906C56.3419 13.5191 56.3464 13.5483 56.3591 13.5741V13.5937Z" fill="#211E1F"/><path d="M64.5778 17.2929C64.5123 18.5782 64.8631 19.8753 64.8207 21.1802C64.7343 22.5868 64.4753 23.9769 64.0497 25.3182L64.4352 25.0949H64.412C64.4891 25.1929 64.5624 25.2947 64.6395 25.3966V25.3261C64.6665 25.0557 64.3272 24.993 64.1653 25.1262L64.1036 25.1733C64.0469 25.2325 64.0151 25.312 64.0151 25.3947C64.0151 25.4774 64.0469 25.5568 64.1036 25.6161V25.6357C64.1432 25.6743 64.1918 25.7019 64.2448 25.7159C64.2979 25.7299 64.3536 25.7298 64.4066 25.7157C64.4596 25.7015 64.5082 25.6737 64.5476 25.635C64.587 25.5963 64.616 25.548 64.6318 25.4946C65.1464 24.1166 65.4204 22.6579 65.4413 21.1841C65.476 19.938 65.4413 18.3235 64.8052 17.2223C64.7884 17.1956 64.7637 17.175 64.7346 17.1636C64.7055 17.1521 64.6735 17.1505 64.6434 17.1588C64.6133 17.1671 64.5866 17.1849 64.5671 17.2098C64.5477 17.2346 64.5366 17.2651 64.5354 17.2968L64.5778 17.2929Z" fill="#211E1F"/><path d="M64.7048 23.8761C65.2048 25.1513 65.4462 26.5161 65.4144 27.8884C65.3826 29.2608 65.0783 30.6125 64.5198 31.8623C63.4404 34.3154 61.6595 36.357 59.9479 38.3673C58.3828 40.2051 56.7946 42.0743 55.7075 44.2452C54.5905 46.5444 54.0817 49.0996 54.2311 51.6593C54.2393 51.7329 54.274 51.8008 54.3284 51.8501C54.3828 51.8995 54.4531 51.9267 54.526 51.9267C54.5988 51.9267 54.6692 51.8995 54.7235 51.8501C54.7779 51.8008 54.8126 51.7329 54.8209 51.6593C54.9519 50.1193 54.9673 48.5793 55.3567 47.0745C55.7417 45.6831 56.3374 44.3611 57.1222 43.1559C58.5871 40.8321 60.5107 38.8649 62.2146 36.7293C64.8475 33.422 67.9777 27.8496 65.0402 23.7351C64.94 23.594 64.6547 23.6685 64.7357 23.8644L64.7048 23.8761Z" fill="#211E1F"/><path d="M65.1791 21.4075C65.1367 22.0031 65.5337 22.4655 65.7457 23.0181C65.9672 23.6047 66.13 24.2125 66.2314 24.8324C66.4526 26.2724 66.4226 27.7408 66.1428 29.1703C65.6147 32.0466 64.2423 34.6564 62.8083 37.1487C61.4591 39.4999 59.9171 41.851 59.0844 44.4609C58.713 45.6458 58.5384 46.8854 58.5679 48.1287C58.5679 49.5237 58.7105 50.9932 57.7429 52.1179C57.4692 52.4353 57.9048 52.9016 58.2017 52.5842C59.9826 50.766 58.9727 47.6467 59.5201 45.3896C60.3373 42.1097 62.4498 39.2373 64.0534 36.3218C65.445 33.7982 66.6516 31.1218 66.9639 28.2142C67.1199 26.8583 67.0469 25.4853 66.748 24.1545C66.5398 23.2767 66.1852 21.6896 65.2831 21.3252C65.2292 21.3252 65.1829 21.3605 65.1791 21.4075Z" fill="#211E1F"/><path d="M65.0286 18.7545C65.7649 19.7577 66.4819 20.6825 66.9214 21.8659C67.3475 23.042 67.5819 24.2809 67.6153 25.5338C67.7078 28.1436 67.0216 30.6672 66.0733 33.0654C65.0132 35.7027 63.6216 38.1832 62.5268 40.8047C61.7558 42.6896 61.2508 45.1152 63.0549 46.5926C63.371 46.8473 63.8259 46.4084 63.5098 46.1302C61.0157 43.9514 63.6177 39.9622 64.7164 37.6737C65.8729 35.3226 67.0293 32.9204 67.7117 30.3694C68.7294 26.6388 68.7563 21.0274 65.3332 18.4606C65.1674 18.3352 64.9207 18.586 65.0441 18.7545H65.0286Z" fill="#211E1F"/><path d="M55.041 6.91232C55.9154 7.21222 56.7737 7.55885 57.6122 7.95076C58.3364 8.35667 59.0285 8.81915 59.6823 9.33404C61.0662 10.4038 62.5966 11.5755 63.2288 13.2762C63.2545 13.3485 63.306 13.4082 63.3731 13.4436C63.4402 13.479 63.5179 13.4874 63.5909 13.4672C63.6638 13.4469 63.7265 13.3995 63.7666 13.3343C63.8066 13.2691 63.8211 13.191 63.807 13.1155C63.3984 11.2973 61.7061 10.0903 60.3376 9.02055C58.9691 7.95076 56.9723 6.53613 55.0911 6.61842C55.0546 6.617 55.019 6.62945 54.9911 6.65332C54.9632 6.6772 54.9451 6.7108 54.9403 6.74754C54.9354 6.78429 54.9443 6.82154 54.965 6.85201C54.9858 6.88249 55.017 6.90399 55.0525 6.91232H55.041Z" fill="#211E1F"/><path d="M49.7173 3.65597C50.7967 4.04784 52.0765 3.9146 53.1868 4.18107C54.3698 4.46112 55.5135 4.89165 56.5906 5.46246C58.7879 6.63806 60.4224 8.28781 61.949 10.2354C62.161 10.5097 62.5735 10.1609 62.4115 9.87485C61.1587 7.66866 59.0077 5.91703 56.7795 4.80805C55.6906 4.258 54.5398 3.8448 53.3525 3.5776C52.2577 3.34248 50.7659 3.00156 49.7019 3.42477C49.6779 3.43267 49.6569 3.44811 49.642 3.46888C49.6272 3.48965 49.6191 3.51468 49.6191 3.54037C49.6191 3.56606 49.6272 3.59109 49.642 3.61186C49.6569 3.63263 49.6779 3.64808 49.7019 3.65597H49.7173Z" fill="#211E1F"/><path d="M50.1684 85.0267C50.5347 85.1056 50.8787 85.2677 51.1746 85.5008C51.4128 85.7362 51.6028 86.0172 51.7335 86.3277C51.7875 86.4295 51.9147 86.3551 51.9031 86.2571C51.7952 85.4734 50.9047 84.9091 50.1916 84.8542C50.0952 84.8542 50.0798 84.9992 50.1684 85.0267Z" fill="#F1703D"/><path d="M34.4865 51.2401C33.9584 52.4784 33.8158 53.9831 33.5999 55.292C33.5767 55.437 33.7926 55.4997 33.8157 55.3547C34.0355 54.0067 34.4711 52.6116 34.5443 51.2558C34.5443 51.2283 34.4981 51.2127 34.4865 51.2558V51.2401Z" fill="#F1703D"/><path d="M61.8218 70.2102C61.0508 70.0417 59.9714 70.4963 59.3431 70.9547C59.3201 70.9688 59.3035 70.9915 59.297 71.018C59.2905 71.0444 59.2946 71.0724 59.3084 71.0958C59.3222 71.1192 59.3445 71.136 59.3706 71.1427C59.3966 71.1493 59.4241 71.1451 59.4471 71.1311C59.836 70.9073 60.2421 70.7159 60.6614 70.559C61.0469 70.4336 61.4555 70.3944 61.8179 70.2376V70.2102H61.8218Z" fill="#F1703D"/><path d="M56.2397 76.1822C55.2991 77.6635 54.5936 79.2897 53.6414 80.771C52.6644 82.341 51.4597 83.7519 50.0679 84.9561C49.9562 85.0501 50.1181 85.2186 50.2299 85.1207C52.9052 82.8557 55.0523 79.4974 56.3707 76.2371C56.4054 76.1587 56.2821 76.1156 56.2397 76.1822Z" fill="#F1703D"/><path d="M48.8539 84.8032C48.029 85.1128 47.2117 85.4302 46.3713 85.6888C45.9859 85.8064 45.3344 85.8495 45.0992 86.2531C45.0116 86.423 44.9883 86.6195 45.0337 86.8056C45.1416 87.3112 46.1323 87.7148 44.9527 87.4797C43.9273 87.272 42.5897 85.7437 41.4833 86.1748C41.1518 86.308 40.8164 86.8684 41.1981 87.1701C41.3021 87.2524 41.4448 87.1191 41.3484 87.0173C40.747 86.3824 42.5511 86.645 42.9713 86.8292C43.3915 87.0133 43.777 87.2994 44.2087 87.4757C44.7315 87.7294 45.3201 87.8076 45.8895 87.6991C45.9936 87.6795 45.9936 87.5345 45.9165 87.4836C45.3228 86.6371 45.31 86.1669 45.8779 86.0729L46.4215 85.9122C46.7221 85.8221 47.019 85.7241 47.3158 85.6183C47.8593 85.4263 48.3913 85.2264 48.9156 84.9756C49.012 84.9325 48.9426 84.764 48.8423 84.8032H48.8539Z" fill="#F1703D"/><path d="M40.4346 87.0996C40.5541 87.1623 40.6428 87.0604 40.7661 87.0369C40.909 87.0357 41.0515 87.0528 41.1902 87.0878C41.2088 87.0876 41.227 87.0818 41.2425 87.0713C41.258 87.0608 41.2701 87.0459 41.2775 87.0285C41.2848 87.0111 41.2871 86.9918 41.2839 86.9732C41.2807 86.9545 41.2722 86.9372 41.2596 86.9233C41.0745 86.7117 40.6659 86.8018 40.4655 86.9233C40.4471 86.9349 40.4327 86.9522 40.4244 86.9725C40.4161 86.9929 40.4143 87.0154 40.4192 87.0369C40.4192 87.0369 40.4192 87.0761 40.4192 87.0839L40.4346 87.0996Z" fill="#F1703D"/><path d="M44.5903 77.4597C44.5373 77.5303 44.4993 77.6114 44.4789 77.6978C44.4584 77.7841 44.4559 77.8739 44.4715 77.9613C44.4871 78.0487 44.5205 78.1318 44.5695 78.2053C44.6185 78.2789 44.682 78.3413 44.756 78.3884C44.9246 78.4998 45.1266 78.5463 45.3259 78.5197C45.5252 78.4932 45.7086 78.3952 45.8431 78.2434C45.9655 78.095 46.0336 77.9081 46.0359 77.7144C46.0359 77.5734 46.0127 77.299 45.8817 77.2128C45.5771 77.0091 45.076 77.4205 45.1107 77.7419C45.1107 77.8281 45.2418 77.8829 45.288 77.7928C45.3228 77.6933 45.378 77.6025 45.4499 77.5263C45.5077 77.4754 45.6812 77.3657 45.7622 77.4323C45.8431 77.4989 45.8161 77.7614 45.7969 77.8437C45.768 77.9659 45.7019 78.0756 45.608 78.1572C45.5141 78.2354 45.3995 78.2834 45.2787 78.2952C45.1579 78.3071 45.0364 78.2823 44.9295 78.2238C44.875 78.196 44.8268 78.1566 44.7883 78.1085C44.7498 78.0603 44.7218 78.0043 44.7062 77.9443C44.6905 77.8843 44.6875 77.8217 44.6975 77.7604C44.7074 77.6992 44.73 77.6407 44.7637 77.589C44.8293 77.4911 44.6751 77.3696 44.598 77.4597H44.5903Z" fill="#F1703D"/><path d="M29.0548 67.1419C29.4904 66.6952 29.8258 66.1349 30.2382 65.6725C30.7117 65.1774 31.2278 64.7262 31.7802 64.3244C31.9228 64.2186 31.7802 63.9718 31.6376 64.0776C31.0479 64.4652 30.509 64.9274 30.0339 65.453C29.5634 65.9091 29.1861 66.455 28.9237 67.0597C28.9189 67.0781 28.9203 67.0976 28.9275 67.1151C28.9348 67.1326 28.9476 67.1473 28.9638 67.1567C28.9801 67.1661 28.999 67.1697 29.0176 67.167C29.0361 67.1644 29.0532 67.1556 29.0663 67.1419H29.0548Z" fill="#F1703D"/></g><defs><clipPath id="clip0_138_1996"><rect width="90" height="105" fill="white"/></clipPath></defs></svg>