<svg width="21" height="20" viewBox="0 0 21 20" fill="none" xmlns="http://www.w3.org/2000/svg"><path d="M20.3142 13.1342C20.3142 13.053 20.2346 13.053 20.2346 12.9718C19.9163 12.3224 19.2002 11.5107 18.2453 10.6177C17.7678 10.2118 17.5291 9.88711 17.3699 9.72476C17.1312 9.40005 17.1312 9.15653 17.2108 8.83182C17.2904 8.58829 17.6087 8.18239 18.1657 7.4518C18.484 7.04591 18.6431 6.80239 18.8819 6.55886C20.0755 4.93531 20.6325 3.88 20.4734 3.39294L20.3938 3.31177C20.3142 3.23059 20.2346 3.14942 20.0755 3.14942C19.9163 3.06824 19.6776 3.06824 19.4389 3.14942H16.415C16.3355 3.14942 16.3355 3.14942 16.1763 3.14942C16.0967 3.14942 16.0172 3.14942 16.0172 3.14942H15.9376H15.858L15.7784 3.23059C15.6989 3.31177 15.6989 3.31176 15.6989 3.39294C15.3806 4.28589 14.9827 5.01648 14.5848 5.82825C14.3461 6.23414 14.1074 6.64003 13.8686 6.96474C13.6299 7.28945 13.4707 7.53298 13.3116 7.69533C13.1524 7.85768 12.9933 7.93886 12.9137 8.10122C12.8341 8.18239 12.675 8.26358 12.675 8.1824C12.5954 8.1824 12.5158 8.18239 12.5158 8.10122C12.4363 8.02004 12.3567 7.93886 12.2771 7.85768C12.1976 7.7765 12.1975 7.61415 12.118 7.4518C12.118 7.28944 12.118 7.12709 12.118 7.04591C12.118 6.96473 12.118 6.72121 12.118 6.55886C12.118 6.31532 12.118 6.15297 12.118 6.07179C12.118 5.82826 12.118 5.50356 12.118 5.17885C12.118 4.85414 12.118 4.6106 12.118 4.44825C12.118 4.28589 12.118 4.04236 12.118 3.88001C12.118 3.63648 12.118 3.47412 12.118 3.39294C12.118 3.31176 12.0384 3.14941 12.0384 3.06824C11.9588 2.98706 11.8792 2.90588 11.7997 2.8247C11.7201 2.74353 11.561 2.74353 11.4814 2.66235C11.0835 2.58117 10.6061 2.5 10.049 2.5C8.77583 2.5 7.9005 2.58118 7.5822 2.74353C7.42305 2.82471 7.2639 2.90588 7.18432 3.06824C7.02517 3.23059 7.02517 3.31177 7.10474 3.31177C7.50262 3.39295 7.82092 3.5553 7.98007 3.79883L8.05965 3.96119C8.13923 4.04237 8.13922 4.20471 8.21879 4.44825C8.29837 4.69178 8.29837 4.93531 8.29837 5.26002C8.29837 5.74708 8.29837 6.23415 8.29837 6.55886C8.29837 6.96474 8.21879 7.20827 8.21879 7.4518C8.21879 7.69533 8.13923 7.85769 8.05965 7.93886C7.98008 8.10122 7.98007 8.1824 7.9005 8.1824C7.9005 8.1824 7.90049 8.26357 7.82091 8.26357C7.74134 8.26357 7.66177 8.34475 7.50262 8.34475C7.42304 8.34475 7.2639 8.26358 7.18432 8.1824C7.02517 8.10122 6.86602 7.93887 6.78645 7.77651C6.6273 7.61416 6.46814 7.37062 6.30899 7.04591C6.14984 6.7212 5.91111 6.3965 5.75196 5.90944L5.59282 5.58473C5.51324 5.42238 5.35409 5.09767 5.19494 4.69178C5.03579 4.28589 4.87664 3.96119 4.71749 3.55531C4.63791 3.39295 4.55835 3.31177 4.47877 3.23059H4.39919C4.39919 3.23059 4.31961 3.14942 4.24003 3.14942C4.16046 3.14942 4.08089 3.06824 4.00132 3.06824H1.1366C0.818303 3.06824 0.659155 3.14941 0.57958 3.23059L0.5 3.31177C0.5 3.31177 0.5 3.39295 0.5 3.47412C0.5 3.5553 0.500005 3.63647 0.57958 3.79883C0.977456 4.77295 1.4549 5.74708 1.93236 6.72121C2.40981 7.61416 2.88726 8.42593 3.20556 8.99417C3.60344 9.56241 3.92174 10.1306 4.31961 10.6177C4.71749 11.1048 4.95621 11.4295 5.03578 11.5918C5.19493 11.7542 5.2745 11.8354 5.35408 11.9165L5.59282 12.1601C5.75197 12.3224 5.99069 12.566 6.30899 12.8095C6.62729 13.053 7.02516 13.2965 7.42304 13.5401C7.82091 13.7836 8.29838 13.946 8.77583 14.1083C9.33285 14.2707 9.8103 14.3519 10.2878 14.2707H11.4814C11.7201 14.2707 11.8793 14.1895 12.0384 14.0271L12.118 13.946C12.118 13.8648 12.1975 13.8648 12.1975 13.7836C12.1975 13.7024 12.1975 13.6213 12.1975 13.4589C12.1975 13.1342 12.1976 12.8907 12.2771 12.6471C12.3567 12.4036 12.3567 12.2413 12.4363 12.0789C12.5159 11.9165 12.5954 11.8354 12.675 11.7542C12.7546 11.673 12.8342 11.5918 12.8342 11.5918H12.9137C13.0729 11.5107 13.3116 11.5918 13.4708 11.7542C13.7095 11.9165 13.9482 12.1601 14.1073 12.4036C14.2665 12.6471 14.5052 12.8907 14.8235 13.2154C15.1418 13.5401 15.3806 13.7836 15.5397 13.8648L15.7784 14.0271C15.9376 14.1083 16.0967 14.1895 16.3355 14.2707C16.5742 14.3519 16.7333 14.3519 16.8925 14.3519L19.5981 14.2707C19.8368 14.2707 20.0755 14.1895 20.2346 14.1083C20.3938 14.0272 20.4734 13.946 20.4734 13.7836C20.4734 13.7024 20.4734 13.5401 20.4734 13.4589C20.3142 13.2966 20.3142 13.2154 20.3142 13.1342Z" fill="#7294C7"/></svg>